<svg width="509" height="538" viewBox="0 0 509 538" fill="none" xmlns="http://www.w3.org/2000/svg">
<path d="M471.211 235.656L459.2 237.49C450.644 243.239 441.156 248.084 430.735 251.671L429.528 242.007L423.578 242.91L424.537 250.494C424.839 252.383 424.839 254.299 425.004 255.695C425.113 257.119 425.196 258.077 425.196 258.077L428.98 257.009C437.07 254.682 444.83 251.643 451.878 248.03C458.871 244.416 465.37 240.227 471.239 235.656H471.211Z" fill="#FEE063"/>
<path d="M402.325 362.764L398.65 361.395C398.65 361.395 399.391 360.245 400.68 358.22C401.914 356.166 403.586 353.182 405.588 349.569C409.455 342.314 413.925 332.267 417.27 321.864C420.671 311.461 422.837 300.729 423.962 292.626C424.208 290.6 424.455 288.738 424.675 287.068C424.867 285.426 424.921 283.975 425.031 282.77C425.223 280.389 425.333 279.02 425.333 279.02L429.117 280.06C441.951 283.619 453.853 289.04 463.835 295.637C474.036 302.262 482.29 310.037 488.954 317.73C495.398 325.368 500.252 332.924 503.214 338.591C506.285 344.285 507.848 348.172 508.013 348.747L509 351.43L506.587 353.018C505.6 353.62 492.683 362.244 472.966 367.007C463.259 369.471 451.714 370.813 439.73 370.32C427.609 369.8 415.022 367.418 402.38 362.764H402.325ZM430.845 285.371C430.845 285.371 430.845 286.329 430.625 287.753C430.433 289.176 430.214 291.065 429.967 292.954C429.775 294.843 429.474 296.732 429.199 298.156C428.953 299.552 428.788 300.51 428.788 300.51C443.158 304.89 456.129 310.393 466.906 316.306C477.765 322.22 486.733 328.626 493.232 334.101C490.681 329.94 487.281 325.341 483.332 320.687C481.358 318.36 479.246 316.033 476.943 313.733C474.584 311.406 472.089 309.134 469.456 306.916C466.824 304.699 464.054 302.563 461.147 300.51C458.158 298.457 455.032 296.513 451.796 294.679C445.297 291.038 438.441 287.917 430.872 285.398L430.845 285.371ZM427.965 304.973L426.046 313.322C425.47 315.376 424.894 317.456 424.455 318.989C424.016 320.55 423.715 321.563 423.715 321.563L494.246 343.327C488.515 337.852 479.877 330.679 468.743 323.807C457.445 316.854 443.651 310.229 427.965 304.945V304.973ZM416.009 341.848C431.859 346.749 447.052 349.459 460.132 350.335C466.686 350.801 472.774 350.855 478.232 350.636C483.634 350.417 488.323 349.924 492.245 349.377L422.289 325.861C422.289 325.861 421 329.967 419.355 333.937C418.587 335.935 417.819 337.961 417.133 339.412C416.475 340.89 416.036 341.876 416.036 341.876L416.009 341.848ZM406.905 359.506C414.391 361.806 421.932 363.339 429.364 364.16C436.768 364.981 443.925 365.009 450.863 364.516C464.602 363.476 476.915 359.999 486.074 356.303C477.436 356.905 466.714 356.96 454.291 355.4C441.924 353.867 428.349 350.855 414.117 346.01C414.117 346.01 412.389 349.432 410.661 352.854C408.769 356.194 406.905 359.534 406.905 359.534V359.506Z" fill="#FEE063"/>
<path d="M346.355 455.515C353.759 461.237 361.602 465.918 369.088 469.285C376.657 472.817 383.842 475.089 390.067 476.677C382.718 472.105 373.997 465.891 364.865 457.322C355.761 448.835 346.547 438.46 337.854 426.195L332.89 428.768L330.175 423.403C330.175 423.403 331.19 422.883 332.945 421.979C333.823 421.514 334.892 420.966 336.099 420.336C337.278 419.652 338.622 418.858 340.102 418.009C343.091 416.394 346.327 414.122 349.92 411.85C353.348 409.359 357.105 406.813 360.56 403.911C367.635 398.271 374.271 392.057 378.824 386.992C381.209 384.556 383.019 382.365 384.281 380.86C385.57 379.354 386.31 378.505 386.31 378.505L388.751 381.572C397.005 391.975 403.449 403.363 407.618 414.56C411.978 425.894 414.089 437.036 414.939 447.165C415.296 452.148 415.351 456.884 415.241 461.182C415.104 465.48 414.665 469.203 414.254 472.434C413.404 478.867 412.362 482.891 412.197 483.466L411.429 486.231L408.55 486.094C407.727 486.04 400.268 485.766 389.518 483.083C378.851 480.51 364.975 475.308 351.757 466.438L346.3 455.597L346.355 455.515ZM387.078 386.883C387.078 386.883 386.474 387.649 385.515 388.689C384.527 389.73 383.211 391.126 381.895 392.522C380.606 393.946 379.262 395.287 378.193 396.273C377.151 397.258 376.465 397.943 376.465 397.943C385.542 409.934 392.754 421.952 398.02 433.094C403.34 444.263 406.822 454.666 408.879 462.907C409.236 458.034 409.235 452.339 408.742 446.234C408.495 443.196 408.166 440.047 407.672 436.844C407.124 433.587 406.438 430.274 405.616 426.934C404.793 423.594 403.806 420.227 402.654 416.86C401.447 413.438 400.076 410.043 398.541 406.648C395.442 399.886 391.712 393.316 387.105 386.855L387.078 386.883ZM373.174 401.091C373.174 401.091 369.939 403.911 366.675 406.73C365.002 408.072 363.302 409.413 362.041 410.399C360.807 411.439 359.929 412.041 359.929 412.041L404.272 470.955C402.873 463.208 400.049 452.312 395.085 440.212C390.067 428.002 382.745 414.505 373.174 401.064V401.091ZM399.116 474.706L356.282 414.697C356.282 414.697 355.404 415.327 354.115 416.285C352.799 417.216 350.962 418.338 349.179 419.515C347.397 420.72 345.587 421.87 344.161 422.636C342.762 423.457 341.83 423.978 341.83 423.978C351.785 437.2 362.507 448.342 372.571 456.692C382.663 465.152 392.206 471.12 399.144 474.733L399.116 474.706Z" fill="#FEE063"/>
<path d="M469.319 288.218C468.99 288.109 464.822 286.466 458.734 283.373C452.728 280.306 444.501 275.789 436.192 270.287C436.192 270.287 435.534 269.849 434.848 269.411C434.163 268.973 433.477 268.535 433.477 268.535L436.137 266.755C440.278 263.963 444.419 261.444 448.286 259.199C452.043 256.982 455.553 255.038 458.597 253.478C464.685 250.329 468.853 248.687 469.182 248.55L473.981 246.688L473.241 251.424C471.705 262.156 471.705 273.654 473.378 285.316L474.036 289.97L469.346 288.191L469.319 288.218ZM466.851 281.21C466.33 276.857 466.083 272.532 466.083 268.233C465.891 263.963 466.357 259.747 466.659 255.613C461.531 257.967 452.344 262.457 442.911 268.48C452.427 274.448 461.641 278.91 466.824 281.182L466.851 281.21Z" fill="#FEE063"/>
<path d="M416.53 411.74C415.982 411.193 407.288 396.574 400.35 377.794L399.171 374.755L402.38 374.892C412.471 375.33 421.603 376.315 428.377 377.383C435.178 378.451 439.51 379.546 439.812 379.628L444.721 380.915L443.103 382.667C442.253 383.515 441.403 384.337 441.403 384.337C433.834 392.111 426.978 401.365 421.521 411.795L419.3 415.929L416.557 411.74H416.53ZM418.669 404.622C422.947 396.957 428.075 390.031 433.587 383.816C430.762 383.214 426.923 382.53 422.344 381.9C417.709 381.216 412.389 380.613 406.795 380.257C411.018 390.715 415.735 399.667 418.642 404.622H418.669Z" fill="#FEE063"/>
<path d="M351.812 466.356L346.355 455.515C338.347 449.383 330.696 441.581 324.115 432.875C324.115 432.875 326.309 431.862 328.53 430.849C330.751 429.891 332.89 428.741 332.89 428.741L330.175 423.375C330.175 423.375 329.325 423.813 328.064 424.47C326.775 425.045 325.047 425.839 323.32 426.633C321.592 427.454 319.864 428.221 318.521 428.686C317.204 429.206 316.327 429.562 316.327 429.562L318.493 432.82C327.899 446.946 339.527 458.143 351.785 466.356H351.812Z" fill="#FEE063"/>
<path d="M209.405 440.321L209.569 436.406C209.569 436.406 210.913 436.735 213.244 437.255C215.575 437.803 218.893 438.596 222.952 439.226C231.014 440.65 241.928 441.854 252.898 441.772C263.867 441.827 274.836 440.485 282.953 439.007C287.039 438.377 290.357 437.529 292.716 436.981C295.047 436.434 296.39 436.133 296.39 436.133L296.555 440.047C297.076 453.243 295.568 466.274 292.332 477.799C290.714 483.576 288.739 489.133 286.491 494.307C284.215 499.372 281.692 504.108 279.059 508.434C273.794 517.03 268.117 523.792 263.675 528.5C259.205 533.1 255.996 535.755 255.503 536.166L253.282 538C253.282 538 252.706 537.562 252.157 537.124C251.609 536.659 251.033 536.221 251.033 536.221C250.128 535.427 237.925 525.763 227.23 508.653C224.57 504.3 221.992 499.564 219.688 494.526C217.385 489.462 215.383 483.822 213.738 478.073C212.092 472.324 210.886 466.192 210.145 459.841C209.405 453.517 209.131 447.001 209.377 440.349L209.405 440.321ZM292.03 443.305C292.03 443.305 288.301 444.236 284.516 444.838C282.624 445.167 280.732 445.523 279.306 445.769C277.88 445.933 276.92 446.07 276.92 446.07C277.194 461.018 275.933 475.007 273.657 487.189C271.381 499.262 268.062 509.665 264.881 517.687C268.008 513.799 271.381 509.227 274.562 504.108C277.77 498.934 280.787 492.939 283.392 486.642C285.997 480.373 288.109 473.255 289.617 466.082C291.125 458.882 291.948 451.217 292.03 443.333V443.305ZM272.368 446.618C272.368 446.618 271.298 446.782 269.68 446.919C268.062 447.028 265.923 447.193 263.757 447.357C261.618 447.576 259.452 447.603 257.834 447.631C256.216 447.658 255.146 447.685 255.146 447.685L256.353 521.383C259.781 514.21 263.922 504.026 267.02 491.132C270.147 478.292 272.203 463.29 272.34 446.618H272.368ZM233.51 446.782C233.756 463.372 235.923 478.402 239.131 491.269C242.312 504.081 246.536 514.265 250.018 521.437L250.649 447.74C250.649 447.74 249.579 447.713 247.961 447.658C246.344 447.576 244.205 447.658 242.066 447.466C239.927 447.302 237.788 447.138 236.17 447.028C234.552 446.946 233.482 446.782 233.482 446.782H233.51ZM213.93 443.552C214.039 451.463 214.917 459.101 216.425 466.301C217.961 473.529 220.1 480.564 222.76 486.834C227.998 499.618 235.155 510.131 241.517 517.714C238.254 509.857 234.881 499.317 232.522 487.272C230.137 475.226 228.82 461.127 228.985 446.18C228.985 446.18 225.173 445.769 221.444 445.03C219.579 444.674 217.659 444.428 216.261 444.099C214.862 443.771 213.93 443.552 213.93 443.552Z" fill="#FEE063"/>
<path d="M103.799 415.682C100.536 424.607 98.7536 433.231 97.6566 441.581C96.7791 449.684 96.642 457.404 97.1356 463.728C99.1101 455.488 102.593 444.975 107.803 433.833C112.959 422.691 120.198 410.508 129.138 398.517C129.138 398.517 128.123 397.559 127.081 396.601C126.067 395.616 125.134 394.603 125.134 394.603L129.412 390.359C129.412 390.359 130.153 391.208 131.606 392.577C133.06 393.918 135.144 395.862 137.639 398.162C142.74 402.651 149.87 408.291 157.439 413.301C165.007 418.338 173.07 422.499 179.185 425.456C182.311 426.797 184.861 428.002 186.699 428.768C188.536 429.48 189.606 429.891 189.606 429.891L187.439 433.176C179.98 444.428 171.287 453.681 161.771 461.319C152.393 468.738 142.301 474.459 133.005 478.21C123.599 482.18 115.152 484.123 108.681 485.41C102.346 486.505 98.2051 486.724 97.6018 486.779L94.7224 486.943L93.9271 484.205C93.7626 483.384 91.7882 476.129 90.9655 465.206C90.6364 459.649 90.4993 453.325 91.13 446.344C91.8156 439.281 92.9125 431.944 95.1886 424.197L103.827 415.655L103.799 415.682ZM181.817 433.231C181.817 433.231 180.94 432.847 179.624 432.245C178.335 431.643 176.525 430.958 174.825 430.055C171.397 428.33 167.996 426.606 167.996 426.606C159.413 438.843 150.199 449.328 141.149 457.869C132.127 466.383 123.379 472.735 116.085 477.361C120.911 476.075 126.259 474.432 131.908 472.105C137.612 469.696 143.508 466.794 149.321 463.208C155.217 459.512 161.004 455.187 166.461 450.231C171.973 445.167 177.156 439.473 181.817 433.203V433.231ZM164.02 424.361C164.02 424.361 160.236 422.308 156.643 419.926C154.806 418.776 152.969 417.654 151.68 416.695C150.363 415.765 149.486 415.162 149.486 415.162L107.008 475.418C113.946 471.694 123.379 465.809 133.471 457.212C138.489 452.969 143.672 448.096 148.8 442.648C153.956 437.118 159.084 431.013 164.047 424.361H164.02ZM101.825 471.749L145.811 412.562C145.811 412.562 142.411 409.906 139.01 407.278C137.365 405.882 135.72 404.486 134.513 403.445C133.252 402.432 132.484 401.666 132.484 401.666C122.941 415.244 115.811 428.686 110.847 440.951C105.911 453.161 103.278 463.92 101.852 471.749H101.825Z" fill="#FEE063"/>
<path d="M301.162 480.701C301.162 480.345 301.436 475.91 302.533 469.203C303.63 462.551 305.385 453.27 308.1 443.771L308.923 440.622L311.445 442.621C319.343 448.945 326.117 455.05 330.998 459.895C335.879 464.741 338.731 468.163 338.923 468.437L342.132 472.379C342.132 472.379 340.953 472.598 339.801 472.844C338.622 473.009 337.415 473.2 337.415 473.2C326.72 475.034 315.723 478.484 305.138 483.713L300.915 485.711L301.162 480.701ZM307.085 476.239C315.065 472.543 323.32 469.997 331.409 468.19C329.49 466.055 326.775 463.208 323.457 460.032C320.111 456.774 316.162 453.133 311.857 449.547C309.115 460.58 307.634 470.435 307.085 476.212V476.239Z" fill="#FEE063"/>
<path d="M167.174 468.875C167.393 468.574 170.19 465.234 175.071 460.333C179.925 455.406 186.671 449.328 194.569 442.977L197.065 440.951L197.887 444.099C200.63 453.626 202.439 462.879 203.536 469.532C204.661 476.239 204.935 480.674 204.962 481.03L205.237 486.122L200.931 484.014C191.251 479.059 180.2 475.719 168.6 473.638C168.6 473.638 167.42 473.474 166.296 473.228C165.144 472.981 163.993 472.762 163.993 472.762L167.119 468.902L167.174 468.875ZM174.633 468.656C183.189 470.572 191.47 472.981 199.039 476.513C198.463 470.709 196.927 460.908 194.185 449.93C185.492 457.267 178.472 464.412 174.633 468.683V468.656Z" fill="#FEE063"/>
<path d="M95.1612 424.224L103.799 415.682C107.255 406.101 112.054 396.601 118.471 387.512C118.471 387.512 118.882 387.978 119.458 388.662C120.061 389.346 120.856 390.277 121.707 391.126C123.407 392.878 125.08 394.603 125.08 394.603L129.358 390.359C129.358 390.359 128.699 389.675 127.712 388.662C126.752 387.622 125.326 386.335 124.12 384.857C122.858 383.433 121.597 382.01 120.664 380.942C119.705 379.902 119.129 379.135 119.129 379.135L116.688 382.229C106.35 395.424 99.0826 410.07 95.1612 424.197V424.224Z" fill="#FEE063"/>
<path d="M76.02 280.936L79.8043 279.868C79.8043 279.868 79.914 281.237 80.0786 283.619C80.1608 286.028 80.7367 289.423 81.2029 293.502C82.4095 301.66 84.6308 312.446 88.0586 322.849C91.4591 333.252 95.8467 343.272 99.8505 350.445C101.743 354.086 103.607 356.96 104.759 359.041C106.048 361.039 106.788 362.189 106.788 362.189L103.114 363.585C90.4444 368.321 78.0219 370.703 65.7913 371.36C53.8623 371.88 42.2898 370.566 32.5547 368.157C22.6002 365.858 14.6201 362.435 8.64195 359.67C2.85572 356.851 -0.599562 354.578 -1.14802 354.25L-3.56123 352.69L-2.57401 350.007C-2.10782 348.912 3.34933 334.347 16.4026 318.962C19.6111 315.129 23.4777 311.214 27.5912 307.464C29.6753 305.575 31.8143 303.741 34.1178 301.961C36.4488 300.154 38.8894 298.43 41.4123 296.76C46.4581 293.42 51.8056 290.381 57.6192 287.698C63.4603 285.015 69.603 282.743 76.0474 280.909L76.02 280.936ZM98.5342 360.355C98.5342 360.355 98.0406 359.534 97.3276 358.302C96.642 357.042 95.5725 355.454 94.7498 353.73C93.8723 352.032 92.9948 350.335 92.3366 349.076C91.6785 347.816 91.2397 346.94 91.2397 346.94C77.0895 351.813 63.4603 354.907 51.12 356.495C38.8071 358.083 28.0025 358.083 19.3643 357.508C24.0262 359.315 29.3188 361.121 35.2422 362.572C41.2478 363.969 47.747 365.091 54.5753 365.611C61.5407 366.077 68.7529 365.967 76.0748 365.146C83.479 364.297 91.0477 362.682 98.5068 360.355H98.5342ZM89.3749 342.807C89.3749 342.807 87.5102 338.947 86.0294 334.922C84.3291 330.98 83.0677 326.874 83.0677 326.874L13.1942 350.636C17.1156 351.156 21.8324 351.649 27.2072 351.841C32.637 352.032 38.7523 351.95 45.3064 351.458C51.8878 350.965 58.9081 350.089 66.2849 348.665C73.7165 347.214 81.4497 345.271 89.3749 342.807ZM77.2814 305.958C61.623 311.296 47.8293 317.976 36.5859 324.985C25.507 331.911 16.9237 339.083 11.1649 344.586L81.6143 322.603C81.6143 322.603 80.4351 318.469 79.2559 314.335C78.2687 310.147 77.2814 305.958 77.2814 305.958ZM74.2375 286.274C59.5114 291.339 46.1839 299.141 35.7906 308.066C33.158 310.284 30.6625 312.583 28.3316 314.938C26.0555 317.264 23.9439 319.591 21.9969 321.918C18.048 326.572 14.675 331.199 12.1521 335.36C18.5965 329.858 27.5637 323.424 38.3958 317.456C49.173 311.461 62.0617 305.903 76.4588 301.441C76.4588 301.441 76.2942 300.483 76.0474 299.087C75.8006 297.663 75.4167 295.801 75.2247 293.885C74.9779 291.969 74.7311 290.08 74.5666 288.656C74.3746 287.233 74.2923 286.274 74.2923 286.274H74.2375Z" fill="#FEE063"/>
<path d="M66.7236 173.155C57.345 172.854 48.268 173.676 40.2057 175.318C32.0063 176.879 24.8763 179.26 18.8707 181.615C27.5089 181.012 38.2312 180.958 50.6538 182.518C63.0215 184.051 76.5959 187.063 90.8284 191.908L93.3512 186.926L98.6987 189.691C98.6987 189.691 98.1777 190.704 97.3001 192.483C96.3403 194.235 95.1886 196.809 93.8449 199.929C92.364 202.996 91.1026 206.746 89.512 210.661C88.1957 214.685 86.6601 218.956 85.5632 223.336C83.1774 232.042 81.4497 240.939 80.7367 247.674C80.2431 251.014 80.0512 253.834 79.914 255.805C79.7495 257.776 79.6672 258.898 79.6672 258.898L75.8829 257.858C63.049 254.299 51.1474 248.878 41.1655 242.281C30.9642 235.656 22.7099 227.881 16.0461 220.188C9.60175 212.55 4.7479 204.994 1.78623 199.327C-1.28513 193.633 -2.84824 189.745 -3.01278 189.171L-4 186.488L-1.58679 184.9C-0.873791 184.462 5.29636 180.301 15.5799 176.194C20.6258 174.114 26.7685 172.088 33.5968 170.527C40.3154 168.912 47.9938 167.872 55.919 167.571L66.6962 173.155H66.7236ZM74.1004 252.547C74.1004 252.547 74.1004 251.589 74.3198 250.165C74.5117 248.742 74.7311 246.853 74.9779 244.964C75.1699 243.075 75.4715 241.186 75.7458 239.762C75.9926 238.366 76.1571 237.408 76.1571 237.408C61.7875 233.027 48.8165 227.525 38.0393 221.612C27.1798 215.698 18.2125 209.292 11.7133 203.817C14.2636 207.978 17.6641 212.577 21.613 217.231C23.5874 219.558 25.699 221.885 28.0025 224.185C30.3609 226.512 32.8564 228.784 35.489 231.002C38.1216 233.219 40.8913 235.354 43.7981 237.408C46.7872 239.461 49.9134 241.405 53.1493 243.239C59.6485 246.88 66.5042 250.001 74.0455 252.519L74.1004 252.547ZM76.9798 232.945C76.9798 232.945 77.9396 228.757 78.8994 224.596C79.4753 222.542 80.0511 220.462 80.4899 218.929C80.9287 217.368 81.2303 216.355 81.2303 216.355L10.6987 194.591C16.4301 200.066 25.0683 207.239 36.202 214.11C47.5002 221.064 61.2939 227.689 76.9798 232.973V232.945ZM12.7554 188.541L82.7112 212.057C82.7112 212.057 84 207.951 85.6454 203.981C86.4133 201.983 87.1811 199.957 87.8667 198.506C88.5248 197.028 88.9636 196.042 88.9636 196.042C73.1132 191.142 57.9209 188.431 44.8402 187.555C38.2861 187.09 32.1982 187.035 26.7411 187.254C21.3387 187.473 16.6494 187.966 12.728 188.514L12.7554 188.541Z" fill="#FEE063"/>
<path d="M65.7364 380.641C66.0929 380.531 70.316 379.464 77.1169 378.368C83.9726 377.219 92.9673 376.261 103.114 375.713L106.322 375.549L105.171 378.588C101.743 387.95 97.8486 396.437 94.8047 402.514C91.7607 408.592 89.4024 412.37 89.183 412.644L86.4133 416.942L84.1646 412.726C79.2285 403.035 72.2905 393.864 64.091 385.404C64.091 385.404 63.2683 384.583 62.5005 383.707C61.7052 382.858 60.91 381.982 60.91 381.982L65.7364 380.695V380.641ZM71.8791 384.829C73.36 386.445 74.7585 388.115 76.1023 389.812C77.5282 391.454 78.8445 393.152 80.106 394.876C82.5466 398.408 85.0421 401.775 87.0166 405.471C89.9782 400.434 94.4482 391.619 98.6987 381.079C87.3182 381.927 77.4734 383.597 71.8517 384.829H71.8791Z" fill="#FEE063"/>
<path d="M35.6535 249.727C35.9826 249.837 40.1508 251.479 46.2387 254.573C52.2443 257.639 60.4712 262.156 68.7803 267.659C68.7803 267.659 69.4385 268.097 70.1241 268.535C70.8096 268.973 71.4952 269.411 71.4952 269.411L68.8352 271.19C64.6943 273.982 60.5535 276.501 56.6868 278.746C52.9299 280.963 49.4198 282.907 46.3758 284.468C40.288 287.616 36.1197 289.259 35.7906 289.395L30.9916 291.257L31.732 286.521C33.2677 275.789 33.2677 264.291 31.5949 252.629L30.9368 247.975L35.6261 249.754L35.6535 249.727ZM38.1216 256.735C38.6426 261.088 38.8894 265.414 38.8894 269.712C39.0814 273.983 38.6152 278.198 38.3135 282.332C43.4416 279.978 52.6283 275.488 62.0617 269.465C52.546 263.497 43.3319 259.035 38.149 256.763L38.1216 256.735Z" fill="#FEE063"/>
<path d="M55.9464 167.571L66.7236 173.155C76.8153 173.429 87.5924 175.236 98.0406 178.412C98.0406 178.412 96.834 180.52 95.6548 182.628C94.3933 184.708 93.3512 186.898 93.3512 186.898L98.6987 189.663C98.6987 189.663 99.1375 188.815 99.7682 187.528C100.481 186.296 101.414 184.626 102.346 182.984C103.251 181.314 104.211 179.671 105.006 178.494C105.774 177.289 106.267 176.495 106.267 176.495L102.593 175.127C86.6601 169.268 70.6451 166.996 55.8916 167.543L55.9464 167.571Z" fill="#FEE063"/>
<path d="M186.452 105.098L188.618 108.356C188.618 108.356 187.357 108.848 185.108 109.724C182.914 110.655 179.816 112.106 176.086 113.831C168.709 117.445 159.221 122.92 150.391 129.408C141.533 135.841 133.416 143.288 127.712 149.201C126.314 150.707 124.997 152.076 123.873 153.28C122.749 154.512 121.844 155.662 121.048 156.565C119.485 158.4 118.608 159.44 118.608 159.44L116.167 156.374C107.913 145.971 101.468 134.582 97.2727 123.385C92.9125 112.051 90.8009 100.909 89.9508 90.78C89.5943 85.7975 89.5395 81.0614 89.6492 76.7633C89.7863 72.4652 90.225 68.742 90.6364 65.5116C91.4865 59.0508 92.5286 55.0538 92.6931 54.4789L93.4609 51.7139L96.3403 51.8508C97.4921 51.9329 113.041 52.5078 131.826 60.2006C136.487 62.0622 141.314 64.3618 146.223 67.2089C151.131 70.0561 155.93 73.177 160.674 76.9823C170.19 84.5382 178.938 93.8461 186.425 105.043L186.452 105.098ZM117.867 151.035C117.867 151.035 118.471 150.269 119.43 149.228C120.418 148.188 121.734 146.792 123.05 145.396C124.339 143.972 125.683 142.631 126.752 141.645C127.794 140.66 128.48 139.975 128.48 139.975C119.403 127.984 112.191 115.966 106.926 104.824C101.606 93.6545 98.1228 83.2515 96.0661 75.0112C95.7096 79.8842 95.7096 85.5785 96.2032 91.6834C96.45 94.7222 96.7791 97.8704 97.2727 101.073C97.8212 104.331 98.5068 107.644 99.3294 110.984C100.152 114.324 101.139 117.691 102.291 121.058C103.498 124.48 104.869 127.875 106.405 131.27C109.503 138.032 113.233 144.602 117.84 151.063L117.867 151.035ZM131.771 136.827C131.771 136.827 135.007 134.007 138.27 131.187C139.943 129.846 141.643 128.505 142.904 127.519C144.138 126.479 145.016 125.876 145.016 125.876L100.673 66.9625C102.072 74.7101 104.896 85.6058 109.86 97.7062C114.878 109.916 122.2 123.413 131.771 136.854V136.827ZM163.115 113.968C153.161 100.745 142.438 89.6028 132.374 81.253C122.282 72.7937 112.739 66.8257 105.801 63.212L148.636 123.221C148.636 123.221 149.513 122.591 150.802 121.633C152.119 120.702 153.956 119.58 155.738 118.403C157.521 117.198 159.331 116.048 160.757 115.282C162.155 114.461 163.088 113.94 163.088 113.94L163.115 113.968ZM180.83 105.043C176.114 98.8012 170.931 93.1343 165.419 88.0971C159.907 83.0872 154.148 78.8986 148.224 75.2028C136.487 67.9755 124.476 63.5953 114.878 61.2409C122.228 65.8127 130.948 72.0272 140.08 80.596C149.184 89.0826 158.398 99.4583 167.091 111.723L173.892 108.219C177.375 106.631 180.858 105.043 180.858 105.043H180.83Z" fill="#FEE063"/>
<path d="M286.381 62.9656C283.776 53.8493 280.129 45.8006 276.097 38.4364C272.039 31.3733 267.569 25.0767 263.455 20.2037C266.719 28.0608 270.092 38.6007 272.45 50.6462C274.836 62.6918 276.152 76.7907 275.988 91.7381C275.988 91.7381 277.386 91.9024 278.757 92.0667C280.156 92.2583 281.5 92.5321 281.5 92.5321L280.512 98.4727C280.512 98.4727 280.238 98.418 279.717 98.3358C279.196 98.2537 278.428 98.0895 277.441 97.98C275.467 97.7336 272.67 97.4051 269.297 96.9944C262.55 96.3921 253.501 95.9815 244.424 96.3921C235.374 96.9397 226.297 98.0347 219.606 99.4035C216.233 99.9511 213.518 100.772 211.571 101.156C209.624 101.594 208.527 101.867 208.527 101.867L208.363 97.9526C207.842 84.7572 209.35 71.726 212.586 60.2006C214.204 54.4242 216.178 48.8668 218.427 43.6926C220.703 38.628 223.226 33.8919 225.859 29.5665C231.124 20.9703 236.8 14.2083 241.243 9.49959C245.713 4.90037 248.921 2.24486 249.415 1.83422L251.636 0C251.636 0 252.212 0.438022 252.76 0.876043C253.309 1.34144 253.885 1.77946 253.885 1.77946C254.516 2.35437 260.384 7.00835 267.514 15.3855C271.052 19.6836 274.918 24.6935 278.511 30.7436C282.103 36.8486 285.531 43.4463 288.273 51.0295L286.299 62.993L286.381 62.9656ZM212.942 94.64C212.942 94.64 216.672 93.7092 220.456 93.107C222.349 92.7784 224.241 92.4225 225.667 92.1762C227.093 92.0119 228.052 91.875 228.052 91.875C227.778 76.9275 229.04 62.9382 231.316 50.7557C233.592 38.6828 236.91 28.2798 240.091 20.2585C236.965 24.1459 233.592 28.7178 230.411 33.8372C227.202 39.0113 224.186 45.0067 221.581 51.3033C218.976 57.5725 216.864 64.6903 215.356 71.8629C213.847 79.0629 213.025 86.7283 212.942 94.6127V94.64ZM232.605 91.3275C232.605 91.3275 233.674 91.1632 235.292 91.0264C236.91 90.9169 239.049 90.7526 241.215 90.5883C243.354 90.3693 245.521 90.3419 247.139 90.3146C248.757 90.2872 249.826 90.2598 249.826 90.2598L248.62 16.5627C245.192 23.7353 241.051 33.9193 237.952 46.8136C234.826 59.6531 232.769 74.6553 232.632 91.3275H232.605ZM254.954 16.5079L254.324 90.2051C254.324 90.2051 255.393 90.2324 257.011 90.2872C258.629 90.3693 260.768 90.2872 262.907 90.4788C265.046 90.6431 267.185 90.8074 268.803 90.9169C270.421 90.999 271.49 91.1632 271.49 91.1632C271.243 74.5732 269.077 59.5436 265.869 46.6767C262.688 33.8645 258.464 23.6805 254.982 16.5079H254.954Z" fill="#FEE063"/>
<path d="M88.4426 126.205C88.991 126.752 97.6841 141.371 104.622 160.152L105.801 163.19L102.593 163.054C92.5011 162.616 83.3693 161.63 76.5959 160.562C69.795 159.495 65.4622 158.4 65.1605 158.317L60.2518 157.031C60.2518 157.031 61.0745 156.155 61.8698 155.279C62.7199 154.43 63.57 153.609 63.57 153.609C71.1387 145.834 77.967 136.581 83.4516 126.15L85.6728 122.016L88.4151 126.205H88.4426ZM86.3036 133.323C82.0256 140.988 76.8975 147.914 71.3855 154.129C74.2101 154.731 78.0493 155.416 82.6289 156.045C87.2634 156.73 92.5834 157.332 98.1777 157.688C93.9546 147.23 89.2378 138.278 86.331 133.323H86.3036Z" fill="#FEE063"/>
<path d="M203.811 57.2166C203.811 57.5725 203.536 62.0074 202.439 68.7146C201.343 75.3671 199.588 84.6477 196.873 94.1473L196.05 97.2955L193.527 95.2971C185.629 88.9731 178.856 82.8682 173.975 78.0226C169.093 73.177 166.241 69.7549 166.049 69.4812L162.841 65.539C162.841 65.539 164.02 65.32 165.172 65.0736C166.351 64.9093 167.558 64.7177 167.558 64.7177C178.253 62.8835 189.249 59.4341 199.834 54.2052L204.057 52.2067L203.811 57.2166ZM197.887 61.6789C189.907 65.3747 181.653 67.9207 173.563 69.7276C175.483 71.8629 178.198 74.7101 181.516 77.8857C184.861 81.1435 188.81 84.7845 193.116 88.3708C195.858 77.3382 197.339 67.4827 197.887 61.7063V61.6789Z" fill="#FEE063"/>
<path d="M288.355 50.9748L286.381 62.9382C289.206 72.7663 290.906 83.1967 291.043 94.3389C291.043 94.3389 290.44 94.202 289.562 94.0104C288.685 93.7914 287.505 93.545 286.299 93.3533L281.527 92.5047L280.54 98.4454C280.54 98.4454 281.472 98.6096 282.871 98.856C284.269 99.1298 286.162 99.3488 287.999 99.8142C289.836 100.225 291.701 100.663 293.1 100.964C294.498 101.265 295.403 101.511 295.403 101.511L295.568 97.5967C296.198 80.8424 293.456 64.7451 288.328 50.9748H288.355Z" fill="#FEE063"/>
<path d="M388.284 155.662L385.844 158.755C385.844 158.755 385.624 158.482 385.213 157.989C384.774 157.496 384.171 156.812 383.376 155.908C381.785 154.101 379.564 151.501 376.657 148.599C370.953 142.686 362.781 135.294 353.841 128.915C344.929 122.509 335.413 116.952 327.954 113.475C324.279 111.668 321.071 110.381 318.905 109.369C316.656 108.52 315.394 108.027 315.394 108.027L317.561 104.742C325.02 93.4902 333.713 84.237 343.229 76.5716C352.607 69.1527 362.699 63.431 371.995 59.6804C381.401 55.7109 389.848 53.7672 396.319 52.4805C402.654 51.3854 406.795 51.1664 407.398 51.1116L410.278 50.9474L411.073 53.685C411.32 54.8622 415.488 69.8371 414.035 89.9313C413.623 94.9959 412.91 100.334 411.813 105.782C410.689 111.257 409.016 116.952 406.959 122.591C402.846 133.843 396.456 145.286 388.312 155.689L388.284 155.662ZM323.182 104.687C323.182 104.687 324.06 105.07 325.376 105.673C326.665 106.275 328.475 106.959 330.175 107.863C333.603 109.588 337.004 111.312 337.004 111.312C345.587 99.075 354.801 88.5899 363.851 80.0484C372.873 71.5344 381.621 65.1831 388.943 60.5565C384.116 61.8432 378.769 63.4858 373.12 65.8127C367.416 68.1945 361.52 71.1237 355.706 74.7101C349.81 78.4059 344.024 82.7313 338.567 87.6864C333.055 92.7511 327.872 98.4454 323.21 104.715L323.182 104.687ZM340.98 113.557C340.98 113.557 344.764 115.61 348.357 117.992C350.194 119.142 352.031 120.264 353.32 121.222C354.637 122.153 355.514 122.756 355.514 122.756L397.992 62.5002C391.054 66.2234 381.621 72.1093 371.529 80.7055C366.511 84.9488 361.328 89.8218 356.2 95.2697C351.044 100.8 345.916 106.905 340.953 113.557H340.98ZM372.544 136.279C382.087 122.701 389.217 109.259 394.18 96.9944C399.116 84.7846 401.749 74.0257 403.175 66.196L359.189 125.384C359.189 125.384 362.589 128.039 365.99 130.667C367.635 132.064 369.28 133.46 370.487 134.5C371.748 135.513 372.516 136.279 372.516 136.279H372.544ZM386.529 150.406C391.054 143.945 394.893 137.238 397.882 130.503C400.899 123.768 403.312 116.787 404.848 110.162C408.111 96.748 408.55 84.0454 407.864 74.1899C405.89 82.4302 402.407 92.9427 397.197 104.085C392.041 115.227 384.802 127.41 375.862 139.4C375.862 139.4 378.686 141.974 381.292 144.794C384.034 147.476 386.502 150.406 386.502 150.406H386.529Z" fill="#FEE063"/>
<path d="M459.2 237.49C466.824 232.234 473.762 226.238 479.328 220.188C484.84 214.165 489.557 207.978 492.848 202.585C486.404 208.088 477.436 214.521 466.604 220.489C455.827 226.485 442.938 232.042 428.541 236.504L429.528 242.034L423.578 242.938C423.578 242.938 423.386 241.815 423.002 239.872C422.59 237.928 422.316 235.081 421.439 231.796C420.068 225.116 417.49 216.437 414.391 207.951C411.265 199.464 407.179 191.388 403.998 185.42C402.298 182.491 400.872 180.054 399.857 178.357C398.76 176.714 398.157 175.756 398.157 175.756L401.831 174.36C414.501 169.624 426.923 167.215 439.154 166.585C451.083 166.065 462.655 167.379 472.39 169.788C482.345 172.088 490.325 175.51 496.303 178.275C502.089 181.095 505.545 183.367 506.093 183.695L508.506 185.256L507.519 187.939C507.272 188.678 504.42 195.741 498.744 205.049C495.755 209.73 491.998 214.959 487.473 220.215C482.811 225.499 477.327 230.81 471.156 235.71L459.145 237.545L459.2 237.49ZM406.438 177.59C406.438 177.59 406.932 178.412 407.645 179.644C408.331 180.903 409.4 182.491 410.223 184.215C411.1 185.913 411.978 187.61 412.636 188.869C413.294 190.129 413.733 191.005 413.733 191.005C427.883 186.132 441.512 183.038 453.853 181.45C466.165 179.863 476.97 179.863 485.608 180.438C480.946 178.631 475.654 176.824 469.73 175.373C463.725 173.977 457.226 172.854 450.397 172.334C443.432 171.869 436.22 171.978 428.898 172.8C421.494 173.648 413.925 175.263 406.466 177.59H406.438ZM415.598 195.166C415.598 195.166 417.462 199.026 418.943 203.05C420.643 206.993 421.905 211.099 421.905 211.099L491.778 187.336C487.857 186.816 483.14 186.323 477.765 186.132C472.336 185.94 466.22 186.022 459.666 186.515C453.085 187.008 446.064 187.884 438.688 189.307C431.256 190.758 423.523 192.702 415.598 195.166ZM493.835 193.359L423.386 215.342C423.386 215.342 424.565 219.476 425.744 223.61C426.731 227.799 427.719 231.987 427.719 231.987C443.377 226.649 457.171 219.969 468.414 212.961C479.493 206.034 488.076 198.862 493.835 193.359Z" fill="#FEE063"/>
<path d="M337.799 69.0432C337.579 69.3443 334.782 72.6842 329.901 77.5846C325.047 82.5123 318.301 88.5899 310.403 94.9412L307.908 96.967L307.085 93.8187C304.343 84.2918 302.533 75.0386 301.436 68.3861C300.312 61.6789 300.038 57.2439 300.01 56.8881L299.736 51.7961L304.041 53.904C313.722 58.8591 324.773 62.1991 336.373 64.2797C336.373 64.2797 337.552 64.4439 338.676 64.6903C339.828 64.9367 340.98 65.1557 340.98 65.1557L337.854 69.0158L337.799 69.0432ZM330.34 69.2622C321.784 67.3458 313.502 64.9367 305.933 61.4052C306.509 67.2089 308.045 77.0097 310.787 87.9876C319.48 80.6507 326.501 73.5055 330.34 69.2348V69.2622Z" fill="#FEE063"/>
<path d="M439.236 157.305C438.88 157.414 434.656 158.482 427.856 159.577C421 160.727 412.005 161.685 401.859 162.232L398.65 162.396L399.802 159.358C403.23 149.995 407.124 141.508 410.168 135.431C413.212 129.353 415.57 125.575 415.79 125.302L418.559 121.003L420.808 125.219C425.744 134.911 432.682 144.082 440.882 152.541C440.882 152.541 441.704 153.362 442.472 154.238C443.267 155.087 444.063 155.963 444.063 155.963L439.236 157.25V157.305ZM433.093 153.116C431.613 151.501 430.214 149.831 428.87 148.133C427.444 146.491 426.128 144.794 424.867 143.069C422.426 139.537 419.93 136.17 417.956 132.474C414.994 137.511 410.524 146.327 406.274 156.866C417.654 156.018 427.499 154.348 433.121 153.116H433.093Z" fill="#FEE063"/>
<path d="M146.14 330.241C146.14 330.241 144.605 330.378 142.274 330.569C139.915 330.761 136.817 330.898 133.773 330.898C127.63 330.98 121.268 330.569 121.268 330.569C121.268 330.569 119.595 334.703 118.059 339.111C117.264 341.328 116.578 343.546 116.167 345.188C115.728 346.858 115.427 347.981 115.427 347.981L114.165 348.72L108.955 351.731C108.955 351.731 108.626 351.156 108.022 350.171C107.419 349.185 106.542 347.762 105.719 345.955C103.964 342.369 101.578 337.605 99.4391 332.732C97.547 327.75 95.737 322.74 94.3933 318.989C93.7626 317.1 93.4061 315.458 93.077 314.335C92.7754 313.213 92.6108 312.556 92.6108 312.556C92.6108 312.556 91.4317 307.957 90.2799 303.357C89.7314 301.058 89.4572 298.676 89.1556 296.951C88.8813 295.199 88.6894 294.022 88.6894 294.022C88.6894 294.022 88.2232 290.901 87.5376 286.22C87.1811 281.538 86.8794 275.242 86.6326 268.973C86.8794 262.703 87.1811 256.434 87.5376 251.726C88.2232 247.044 88.6894 243.923 88.6894 243.923C88.6894 243.923 88.8813 242.746 89.1556 240.994C89.4572 239.242 89.7314 236.888 90.2799 234.588C91.4591 229.989 92.6108 225.389 92.6108 225.389C92.6108 225.389 92.8028 224.623 93.1593 223.282C93.5432 221.967 93.9271 220.024 94.8047 217.806C95.5999 215.589 96.5597 212.988 97.5744 210.196C98.6164 207.431 99.6311 204.419 101.057 201.627C103.827 195.96 106.35 190.156 108.955 186.214C111.423 182.19 113.041 179.479 113.041 179.479C112.63 179.206 124.12 164.121 124.12 164.121C124.12 164.121 124.586 163.492 125.518 162.479C126.451 161.466 127.767 159.987 129.33 158.235C130.921 156.511 132.785 154.485 134.787 152.295C136.899 150.214 139.257 148.133 141.561 146.025C143.946 143.972 146.14 141.7 148.554 139.975C150.912 138.196 153.106 136.553 154.998 135.13C156.89 133.733 158.481 132.556 159.605 131.762C160.784 131.023 161.442 130.613 161.442 130.613C161.442 130.613 165.501 128.149 169.559 125.685C171.589 124.48 173.618 123.221 175.236 122.482C176.827 121.688 177.896 121.168 177.896 121.168C177.896 121.168 180.748 119.799 184.999 117.746C187.11 116.651 189.688 115.665 192.485 114.68C195.282 113.667 198.244 112.599 201.205 111.504C207.211 109.56 213.409 108.191 217.988 106.987C220.292 106.439 222.266 106.248 223.61 106.001C224.981 105.782 225.749 105.673 225.749 105.673C225.749 105.673 230.438 104.988 235.155 104.277C239.872 103.921 244.616 103.702 244.616 103.702L252.459 103.346V110.819L250.978 109.423C250.978 109.423 243.382 109.697 235.786 110.245C228.244 111.312 220.703 112.544 220.703 112.544C220.703 112.544 219.963 113.612 218.921 115.309C217.879 116.979 216.535 119.224 215.246 121.441C212.668 125.876 210.474 130.257 210.474 130.257C210.474 130.257 217.741 137.402 223.747 144.93C225.255 146.792 226.736 148.681 228.052 150.46C229.396 152.322 230.603 154.101 231.617 155.607C233.619 158.619 234.853 160.644 234.853 160.644C234.853 160.644 234.086 162.287 232.934 164.778C231.809 167.16 230.548 170.692 229.451 174.141C228.354 177.59 227.449 180.958 226.873 183.449C226.572 184.681 226.352 185.721 226.215 186.515C226.078 187.282 225.996 187.72 225.996 187.72C225.996 187.72 221.114 183.066 215.191 178.685C212.284 176.495 209.295 174.743 206.909 173.292C204.496 171.923 202.906 170.993 202.906 170.993C202.906 170.993 202.165 161.63 202.604 151.692C203.07 142.165 204.77 132.228 204.77 132.228C204.77 132.228 200.41 129.901 195.693 127.738C193.335 126.616 190.922 125.63 189.167 125C187.357 124.343 186.15 123.905 186.15 123.905C186.15 123.905 184.423 124.727 181.845 125.959C179.267 127.191 175.812 128.806 172.603 130.886C169.34 132.857 166.104 134.856 163.664 136.334C161.305 137.949 159.797 139.099 159.797 139.099C159.797 139.099 158.919 144.301 158.371 149.311C157.713 154.238 157.713 159.358 157.713 159.358C157.713 159.358 160.044 160.206 163.444 161.575C166.899 163.026 171.452 165.134 175.784 167.352C180.117 169.569 184.258 171.951 187.275 173.812C188.755 174.716 190.044 175.565 190.922 176.167C191.799 176.769 192.293 177.098 192.293 177.098C192.293 177.098 192.293 177.563 192.266 178.33C192.238 179.096 192.238 180.246 192.266 181.669C192.348 184.489 192.567 188.13 192.924 191.662C193.253 195.166 193.774 198.561 194.377 201.244C194.926 203.844 195.364 205.514 195.364 205.514C195.364 205.514 193.746 204.912 191.224 204.118C189.962 203.707 188.454 203.269 186.808 202.804C185.191 202.366 183.518 202.01 181.79 201.654C178.335 200.942 174.715 200.368 171.945 200.012C170.547 199.847 169.368 199.71 168.572 199.601C167.777 199.546 167.311 199.491 167.311 199.491C167.311 199.491 167.037 198.971 166.516 198.041C166.049 197.11 165.419 195.796 164.623 194.235C163.088 191.06 161.141 186.679 159.358 182.135C155.629 172.964 153.298 163.382 153.298 163.382C153.298 163.382 152.036 163.3 150.144 163.163C148.224 163.026 145.674 162.917 143.179 162.971C138.16 162.999 132.895 163.355 132.895 163.355C132.895 163.355 131.634 164.778 129.714 166.886C127.904 169.076 125.655 172.17 123.352 175.209C122.228 176.742 121.103 178.275 120.034 179.698C119.101 181.204 118.224 182.628 117.456 183.86C115.975 186.296 114.988 187.939 114.988 187.939C114.988 187.939 115.317 189.198 115.783 191.06C116.304 192.921 116.88 195.33 117.785 197.794C119.458 202.722 121.323 207.294 121.323 207.294C121.323 207.294 123.846 207.129 127.548 207.02C131.305 206.938 136.021 206.856 140.985 207.212C150.884 207.814 160.126 209.484 160.126 209.484C160.126 209.484 163.06 216.437 166.488 222.488C170.272 228.839 174.413 234.205 174.413 234.205C174.413 234.205 172.603 234.287 170.026 234.588C167.503 234.916 164.047 235.464 160.537 236.203C153.325 237.545 146.497 240.118 146.497 240.118C146.497 240.118 144.605 238.694 141.807 236.367C138.928 234.04 135.445 230.865 132.045 227.47C125.162 220.708 118.772 212.742 118.772 212.742C118.772 212.742 114.22 214.466 109.531 216.547C104.869 218.6 100.097 221.037 100.097 221.037C100.097 221.037 99.9327 221.475 99.7134 222.296C99.494 223.09 99.1923 224.267 98.8358 225.636C98.1228 228.401 97.1905 232.097 96.2307 235.793C95.4354 239.516 94.9692 243.294 94.503 246.113C94.0917 248.933 93.8174 250.822 93.8174 250.822C93.8174 250.822 94.5579 251.862 95.8193 253.341C97.1082 254.846 98.8358 256.818 100.563 258.679C104.046 262.484 107.556 265.906 107.556 265.906C107.556 265.906 116.578 261.225 125.518 257.83C129.906 256.078 134.705 254.627 138.16 253.642C141.643 252.656 143.946 252.109 143.946 252.109C143.946 252.109 145.29 253.341 147.32 255.202C148.334 256.106 149.513 257.119 150.802 258.186C152.118 259.254 153.654 260.349 155.135 261.417C161.086 265.687 166.954 268.918 166.954 268.918C166.954 268.918 161.086 272.148 155.135 276.419C153.654 277.459 152.146 278.582 150.802 279.649C149.513 280.69 148.334 281.73 147.32 282.633C145.29 284.495 143.946 285.727 143.946 285.727C143.946 285.727 141.643 285.179 138.16 284.194C134.705 283.208 129.906 281.757 125.518 280.005C116.551 276.611 107.556 271.929 107.556 271.929C107.556 271.929 104.046 275.351 100.563 279.157C98.8358 281.046 97.1082 283.017 95.8193 284.495C94.5579 286.001 93.8174 287.014 93.8174 287.014C93.8174 287.014 94.0917 288.903 94.503 291.722C94.9692 294.542 95.4354 298.32 96.2307 302.043C97.163 305.739 98.1228 309.435 98.8358 312.2C99.1923 313.569 99.494 314.746 99.7134 315.54C99.9053 316.361 100.097 316.799 100.097 316.799C100.097 316.799 104.841 319.236 109.531 321.289C114.22 323.369 118.772 325.094 118.772 325.094C118.772 325.094 125.162 317.128 132.045 310.366C135.445 306.944 138.928 303.795 141.807 301.468C144.605 299.169 146.497 297.718 146.497 297.718C146.497 297.718 153.298 300.291 160.537 301.633C164.075 302.372 167.503 302.919 170.026 303.248C172.603 303.549 174.413 303.631 174.413 303.631C174.413 303.631 171.589 307.299 168.929 311.433C166.132 315.595 164.047 319.893 164.047 319.893L146.168 330.214L146.14 330.241ZM209.871 137.977C209.871 137.977 208.61 145.642 208.061 153.034C207.787 156.757 207.622 160.371 207.595 163.108C207.622 165.901 207.65 167.79 207.65 167.79C207.65 167.79 208.692 168.419 210.228 169.35C211.791 170.39 213.847 171.841 215.822 173.292C219.771 176.194 223.281 179.233 223.281 179.233C223.281 179.233 223.5 178.001 223.966 176.304C224.433 174.634 225.091 172.361 225.831 170.062C227.285 165.49 229.204 160.781 229.204 160.781C229.204 160.781 225.091 154.868 220.21 149.119C217.796 146.244 215.219 143.425 213.244 141.317C211.27 139.236 209.899 137.977 209.899 137.977H209.871ZM194.514 120.401C194.514 120.401 197.476 121.715 200.328 123.057C203.18 124.426 205.922 125.822 205.922 125.822C205.922 125.822 207.238 122.92 208.774 120.237C210.282 117.499 211.928 114.762 211.928 114.762C211.928 114.762 210.831 115.063 209.158 115.473C207.513 115.939 205.264 116.404 203.125 117.253C198.82 118.813 194.514 120.374 194.514 120.374V120.401ZM160.263 166.695C160.263 166.695 162.155 174.114 164.623 181.04C167.229 188.185 170.382 194.81 170.382 194.81C170.382 194.81 175.318 195.412 179.953 196.371C184.834 197.493 189.331 198.917 189.331 198.917C189.331 198.917 189.112 197.739 188.783 195.987C188.481 194.235 188.015 191.717 187.823 189.39C187.357 184.681 187.22 179.671 187.22 179.671C187.22 179.671 180.967 175.893 174.112 172.553C170.684 170.856 167.338 169.487 164.678 168.419C162.018 167.406 160.263 166.722 160.263 166.722V166.695ZM138.983 156.73C138.983 156.73 139.751 156.675 140.985 156.73C142.191 156.757 143.809 156.812 145.427 156.866C148.636 157.003 151.735 157.222 151.735 157.222C151.735 157.222 151.817 154.101 152.009 150.898C152.146 147.641 152.612 144.547 152.612 144.547C152.612 144.547 151.68 145.204 150.363 146.327C149.102 147.476 147.402 149.009 145.702 150.515C144.029 152.048 142.329 153.581 141.067 154.758C140.436 155.333 139.915 155.826 139.559 156.155C139.23 156.511 139.038 156.73 139.038 156.73H138.983ZM126.506 212.961C126.506 212.961 127.685 214.412 129.44 216.602C131.25 218.764 133.882 221.639 136.46 224.349C141.67 229.797 147.155 234.533 147.155 234.533C147.155 234.533 152.036 233.137 156.726 232.151C159.084 231.659 161.36 231.221 163.143 230.974C164.952 230.755 166.159 230.618 166.159 230.618C166.159 230.618 163.499 226.813 160.976 222.57C158.344 218.326 156.396 213.891 156.396 213.891C156.396 213.891 148.965 212.851 141.616 212.742C134.211 212.495 126.478 212.961 126.478 212.961H126.506ZM103.141 212.55C103.141 212.55 106.048 211.181 108.9 209.977C110.299 209.347 111.807 208.799 112.931 208.416C114.056 208.033 114.796 207.759 114.796 207.759C114.796 207.759 113.672 204.912 112.602 201.928C111.533 198.944 110.545 195.85 110.545 195.85C110.545 195.85 108.571 199.957 106.569 204.091C105.527 206.144 104.704 208.252 104.128 209.867C103.525 211.482 103.141 212.55 103.141 212.55ZM114.522 268.945C114.522 268.945 121.46 272.504 128.398 275.297C135.336 278.171 142.219 280.279 142.219 280.279C142.219 280.279 146.168 276.994 150.089 274.202C154.038 271.354 157.96 268.945 157.96 268.945C157.96 268.945 154.038 266.536 150.089 263.689C146.14 260.869 142.219 257.611 142.219 257.611C142.219 257.611 135.336 259.719 128.398 262.594C121.46 265.386 114.522 268.945 114.522 268.945ZM93.1319 278.034C93.1319 278.034 95.2709 275.625 97.4098 273.353C99.5762 271.081 101.743 268.918 101.743 268.918C101.743 268.918 99.5762 266.783 97.4098 264.483C95.2434 262.211 93.1319 259.802 93.1319 259.802C93.1319 259.802 92.9125 264.346 92.7205 268.891C92.9399 273.435 93.1319 277.979 93.1319 277.979V278.034ZM114.851 330.131C114.851 330.131 114.11 329.858 112.986 329.474C111.834 329.091 110.353 328.516 108.955 327.914C106.075 326.709 103.196 325.341 103.196 325.341C103.196 325.341 103.607 326.408 104.183 328.023C104.759 329.639 105.582 331.774 106.624 333.8C108.598 337.906 110.6 342.04 110.6 342.04C110.6 342.04 111.587 338.947 112.657 335.963C113.726 332.979 114.851 330.131 114.851 330.131ZM156.451 323.999C156.451 323.999 158.398 319.591 161.031 315.321C163.526 311.077 166.214 307.272 166.214 307.272C166.214 307.272 165.007 307.135 163.197 306.916C161.415 306.67 159.166 306.232 156.78 305.739C152.091 304.754 147.21 303.357 147.21 303.357C147.21 303.357 141.725 308.093 136.515 313.541C133.91 316.252 131.305 319.126 129.495 321.289C127.74 323.479 126.56 324.93 126.56 324.93C126.56 324.93 134.294 325.395 141.698 325.149C149.02 325.039 156.479 323.999 156.479 323.999H156.451Z" fill="#FEE063"/>
<path d="M252.486 166.886V146.272C252.486 146.272 250.978 149.557 249.662 152.87C248.318 156.155 247.139 159.44 247.139 159.44C247.139 159.44 248.537 161.301 249.909 163.163C251.197 165.025 252.486 166.886 252.486 166.886Z" fill="#FEE063"/>
<path d="M358.832 330.241C358.832 330.241 362.315 335.196 365.523 340.589C367.141 343.272 368.704 346.037 369.829 348.145C370.871 350.226 371.584 351.622 371.584 351.622C371.584 351.622 372.708 351.485 374.436 351.266C376.081 350.992 378.275 350.554 380.496 350.089C384.939 349.158 389.518 347.953 389.518 347.953L390.78 348.693L395.99 351.704C395.99 351.704 394.619 353.976 392.535 357.371C390.561 360.848 387.379 365.091 384.171 369.334C382.526 371.415 381.045 373.632 379.345 375.467C377.672 377.328 376.109 379.053 374.792 380.531C372.105 383.461 370.295 385.404 370.295 385.404C370.295 385.404 370.103 385.623 369.747 386.007C369.363 386.362 368.814 386.855 368.183 387.457C366.867 388.662 365.112 390.25 363.384 391.865C361.629 393.453 359.847 395.041 358.531 396.218C357.187 397.368 356.2 398.052 356.2 398.052C356.2 398.052 353.677 399.941 349.892 402.788C346.19 405.745 340.788 409.003 335.386 412.233C334.042 413.027 332.698 413.876 331.327 414.615C329.928 415.299 328.557 415.984 327.241 416.613C324.581 417.9 322.086 419.077 319.947 420.117C318.877 420.61 317.89 421.076 317.012 421.486C316.107 421.815 315.34 422.116 314.681 422.362C313.392 422.855 312.652 423.129 312.652 423.129C312.652 423.129 308.182 424.744 303.712 426.387C301.491 427.263 299.16 427.728 297.432 428.221C295.705 428.659 294.553 428.96 294.553 428.96C294.553 428.96 291.482 429.727 286.902 430.876C282.268 431.807 276.015 432.683 269.763 433.587C263.483 434.052 257.203 434.298 252.486 434.49C247.77 434.271 244.643 434.134 244.643 434.134C244.643 434.134 239.899 433.943 235.182 433.559C230.493 432.875 225.776 432.163 225.776 432.163C225.776 432.163 225.009 432.054 223.637 431.835C222.294 431.588 220.319 431.396 218.016 430.849C213.436 429.644 207.238 428.303 201.233 426.332C198.271 425.264 195.282 424.169 192.512 423.156C189.715 422.143 187.138 421.158 185.026 420.09C180.748 418.037 177.923 416.668 177.923 416.668C177.923 416.668 176.854 416.148 175.263 415.354C173.618 414.642 171.616 413.383 169.587 412.151C165.528 409.687 161.47 407.223 161.47 407.223C161.47 407.223 160.812 406.813 159.632 406.073C158.535 405.252 156.945 404.102 155.025 402.706C153.133 401.283 150.939 399.64 148.581 397.86C146.168 396.136 143.974 393.891 141.588 391.81C139.257 389.675 136.899 387.594 134.815 385.541C132.813 383.378 130.948 381.353 129.358 379.6C127.767 377.848 126.451 376.397 125.546 375.357C124.613 374.344 124.147 373.715 124.147 373.715C124.147 373.715 112.657 358.63 113.068 358.356L108.982 351.649L114.193 348.638L115.454 347.899L114.96 349.897C114.96 349.897 115.948 351.512 117.429 353.976C118.169 355.181 119.047 356.604 120.006 358.137C121.076 359.561 122.2 361.094 123.324 362.627C125.628 365.666 127.849 368.759 129.687 370.95C131.606 373.085 132.868 374.481 132.868 374.481C132.868 374.481 138.133 374.81 143.151 374.864C145.647 374.919 148.197 374.81 150.117 374.673C152.009 374.536 153.27 374.454 153.27 374.454C153.27 374.454 155.601 364.872 159.331 355.701C161.113 351.156 163.06 346.776 164.596 343.601C165.391 342.013 166.022 340.726 166.488 339.795C166.982 338.864 167.283 338.344 167.283 338.344C167.283 338.344 167.75 338.317 168.545 338.235C169.367 338.125 170.519 337.988 171.918 337.824C174.688 337.468 178.307 336.893 181.763 336.182C183.518 335.826 185.163 335.47 186.781 335.032C188.426 334.566 189.907 334.128 191.196 333.718C193.719 332.924 195.337 332.322 195.337 332.322C195.337 332.322 194.898 333.991 194.35 336.592C193.746 339.275 193.225 342.67 192.896 346.174C192.54 349.705 192.32 353.374 192.238 356.166C192.183 357.59 192.183 358.74 192.238 359.506C192.238 360.3 192.266 360.738 192.266 360.738C192.266 360.738 191.772 361.067 190.894 361.669C190.017 362.271 188.755 363.12 187.247 364.023C184.231 365.885 180.117 368.267 175.757 370.484C171.424 372.702 166.872 374.81 163.417 376.261C160.016 377.629 157.685 378.478 157.685 378.478C157.685 378.478 157.685 383.597 158.344 388.525C158.892 393.535 159.769 398.737 159.769 398.737C159.769 398.737 161.278 399.914 163.636 401.501C166.077 402.98 169.34 404.978 172.576 406.949C175.784 409.003 179.24 410.618 181.817 411.877C184.395 413.109 186.123 413.93 186.123 413.93C186.123 413.93 187.329 413.492 189.139 412.835C190.922 412.206 193.308 411.22 195.666 410.098C200.383 407.935 204.743 405.608 204.743 405.608C204.743 405.608 203.043 395.67 202.577 386.143C202.138 376.206 202.878 366.843 202.878 366.843C202.878 366.843 204.496 365.912 206.882 364.543C209.268 363.092 212.229 361.313 215.164 359.15C221.087 354.77 225.968 350.116 225.968 350.116C225.968 350.116 226.051 350.554 226.188 351.321C226.325 352.115 226.544 353.128 226.846 354.387C227.422 356.878 228.327 360.245 229.424 363.695C230.521 367.144 231.782 370.676 232.906 373.057C234.058 375.549 234.826 377.191 234.826 377.191C234.826 377.191 233.592 379.217 231.59 382.229C230.575 383.734 229.369 385.486 228.025 387.375C226.709 389.155 225.255 391.044 223.72 392.905C217.714 400.406 210.447 407.579 210.447 407.579C210.447 407.579 212.641 411.959 215.219 416.394C216.48 418.612 217.851 420.829 218.893 422.527C219.935 424.224 220.676 425.292 220.676 425.292C220.676 425.292 228.217 426.524 235.758 427.591C243.354 428.139 250.951 428.412 250.951 428.412C250.951 428.412 251.17 428.193 251.581 427.81C251.993 427.427 252.569 426.879 253.254 426.14C254.625 424.717 256.408 422.8 258.108 420.884C261.536 417.051 264.58 413.219 264.58 413.219C264.58 413.219 258.986 404.732 254.68 396.191C252.486 392.002 250.539 387.43 249.196 384.09C247.852 380.723 247.057 378.505 247.057 378.505C247.057 378.505 248.153 377.027 249.799 374.837C250.594 373.742 251.499 372.455 252.404 371.086C253.336 369.608 254.269 368.02 255.174 366.432C256.984 363.284 258.574 360.136 259.671 357.809C260.192 356.659 260.658 355.673 260.96 355.016C261.262 354.359 261.426 353.921 261.426 353.921C261.426 353.921 265.238 359.424 270.092 364.899C272.505 367.719 275.055 370.128 277.057 371.99C279.114 373.824 280.485 375.029 280.485 375.029C280.485 375.029 280.183 377.356 279.553 380.915C278.922 384.391 277.99 389.374 276.728 393.918C274.287 403.144 270.531 412.589 270.531 412.589C270.531 412.589 274.315 415.737 278.456 418.803C280.512 420.336 282.651 421.87 284.297 422.965C285.942 423.978 287.012 424.662 287.012 424.662C287.012 424.662 288.876 424.197 291.646 423.485C294.388 422.718 298.173 421.952 301.765 420.665C305.358 419.351 308.95 418.037 311.637 417.079C312.981 416.559 314.105 416.175 314.873 415.847C315.641 415.491 316.053 415.299 316.053 415.299C316.053 415.299 317.972 410.344 319.535 405.498C320.33 403.089 321.043 400.68 321.565 398.901C322.086 397.149 322.36 395.889 322.36 395.889C322.36 395.889 321.839 395.561 320.934 394.986C320.029 394.356 318.713 393.48 317.149 392.413C314.051 390.277 310.074 387.321 306.317 384.254C298.804 378.314 292.195 371.251 292.195 371.251C292.195 371.251 292.606 369.499 293.209 366.843C293.758 364.188 294.251 360.437 294.635 356.905C294.992 353.319 295.211 349.924 295.239 347.324C295.239 344.641 295.156 342.889 295.156 342.889C295.156 342.889 296.61 343.792 298.886 345.079C301.162 346.338 304.398 348.118 307.661 349.514C314.051 352.306 321.318 354.524 321.318 354.524C321.318 354.524 323.95 363.476 325.541 373.222C326.418 378.15 326.885 382.886 327.159 386.581C327.433 390.25 327.543 392.768 327.543 392.768C327.543 392.768 332.314 394.165 337.415 395.342C342.351 396.355 347.507 397.039 347.507 397.039C347.507 397.039 349.042 395.889 351.318 394.192C353.677 392.549 356.474 389.976 359.298 387.43C362.068 384.829 365.03 382.42 366.895 380.23C368.814 378.122 370.103 376.726 370.103 376.726C370.103 376.726 369.911 371.497 369.445 366.515C369.225 364.023 368.759 361.423 368.485 359.561C368.156 357.699 367.937 356.467 367.937 356.467C367.937 356.467 365.469 356.112 361.821 355.454C360.011 355.126 357.927 354.743 355.679 354.223C353.403 353.675 350.989 353.073 348.631 352.416C339.115 349.842 330.477 346.311 330.477 346.311C330.477 346.311 328.996 338.837 326.857 332.157C325.897 328.872 324.389 325.395 323.374 323.014C322.332 320.604 321.565 319.044 321.565 319.044C321.565 319.044 322.771 319.208 324.554 319.427C326.391 319.646 328.804 319.893 331.135 319.92C335.879 320.112 340.898 319.893 340.898 319.893L358.777 330.214L358.832 330.241ZM160.236 371.223C160.236 371.223 161.991 370.539 164.651 369.526C167.311 368.458 170.656 367.089 174.084 365.392C180.94 362.052 187.192 358.274 187.192 358.274C187.192 358.274 187.302 353.264 187.796 348.556C187.988 346.229 188.481 343.71 188.755 341.958C189.085 340.206 189.304 339.029 189.304 339.029C189.304 339.029 184.807 340.452 179.925 341.575C175.291 342.533 170.355 343.135 170.355 343.135C170.355 343.135 167.201 349.76 164.596 356.905C162.128 363.804 160.236 371.251 160.236 371.251V371.223ZM152.557 393.371C152.557 393.371 152.118 390.277 151.954 387.019C151.762 383.816 151.68 380.695 151.68 380.695C151.68 380.695 148.581 380.942 145.372 381.051C143.755 381.106 142.137 381.161 140.93 381.188C139.696 381.216 138.928 381.188 138.928 381.188C138.928 381.188 139.12 381.407 139.449 381.763C139.806 382.092 140.327 382.584 140.957 383.159C142.219 384.309 143.919 385.842 145.592 387.403C147.292 388.936 148.992 390.441 150.254 391.591C151.543 392.714 152.502 393.371 152.502 393.371H152.557ZM209.844 399.941C209.844 399.941 211.187 398.682 213.189 396.601C215.191 394.493 217.741 391.673 220.155 388.799C225.036 383.05 229.149 377.137 229.149 377.137C229.149 377.137 227.23 372.428 225.776 367.856C225.036 365.556 224.378 363.312 223.912 361.614C223.473 359.917 223.226 358.685 223.226 358.685C223.226 358.685 219.716 361.724 215.767 364.626C213.82 366.077 211.763 367.527 210.173 368.568C208.61 369.499 207.595 370.128 207.595 370.128C207.595 370.128 207.595 371.99 207.54 374.81C207.568 377.547 207.732 381.188 208.006 384.884C208.527 392.276 209.816 399.941 209.816 399.941H209.844ZM211.928 423.129C211.928 423.129 210.282 420.364 208.774 417.654C207.238 414.998 205.922 412.069 205.922 412.069C205.922 412.069 203.207 413.492 200.328 414.834C197.476 416.203 194.514 417.489 194.514 417.489C194.514 417.489 198.82 419.05 203.125 420.61C205.264 421.459 207.513 421.897 209.158 422.39C210.831 422.828 211.928 423.101 211.928 423.101V423.129ZM266.883 405.936C266.883 405.936 269.708 398.682 271.792 391.509C272.861 387.923 273.739 384.364 274.37 381.708C274.671 380.394 274.918 379.272 275.083 378.505C275.247 377.711 275.33 377.246 275.33 377.246C275.33 377.246 275.11 377.054 274.726 376.671C274.342 376.288 273.766 375.713 273.108 375.056C271.792 373.715 270.092 371.908 268.474 370.073C265.211 366.432 262.441 362.791 262.441 362.791C262.441 362.791 261.947 363.859 261.152 365.419C260.357 366.98 259.232 369.061 258.026 371.169C255.64 375.357 252.788 379.6 252.788 379.6C252.788 379.6 255.612 386.225 259.177 392.823C260.933 396.108 262.852 399.421 264.36 401.885C265.869 404.349 266.938 405.936 266.938 405.936H266.883ZM278.182 426.25C278.182 426.25 275.549 424.388 273.053 422.472C270.558 420.555 268.2 418.639 268.2 418.639C268.2 418.639 267.733 419.269 266.993 420.145C266.253 421.021 265.238 422.225 264.251 423.403C262.221 425.784 260.028 428.139 260.028 428.139C260.028 428.139 264.58 427.947 269.132 427.591C273.657 426.934 278.182 426.25 278.182 426.25ZM321.427 388.142C321.427 388.142 321.098 380.422 320.084 373.112C319.837 371.278 319.563 369.471 319.288 367.774C318.959 366.049 318.63 364.434 318.356 363.038C317.753 360.328 317.341 358.521 317.341 358.521C317.341 358.521 316.19 358.11 314.462 357.508C313.612 357.179 312.625 356.823 311.583 356.413C310.513 355.947 309.389 355.427 308.237 354.934C303.74 352.881 299.654 350.609 299.654 350.609C299.654 350.609 299.654 351.813 299.599 353.62C299.599 355.509 299.379 357.781 299.133 360.163C298.639 364.899 297.734 369.882 297.734 369.882C297.734 369.882 303.027 374.837 309.032 379.464C311.994 381.791 315.148 384.09 317.451 385.568C319.809 387.102 321.4 388.114 321.4 388.114L321.427 388.142ZM340.157 402.241C340.157 402.241 336.976 401.556 333.877 400.79C330.779 400.023 327.817 399.175 327.817 399.175C327.817 399.175 327.104 402.241 326.254 405.334C325.349 408.291 324.279 411.302 324.279 411.302C324.279 411.302 325.294 410.809 326.857 410.043C328.42 409.359 330.367 408.127 332.342 406.977L340.157 402.213V402.241ZM374.326 357.343C374.326 357.343 374.875 360.382 375.313 363.558C375.78 366.706 376.136 369.937 376.136 369.937C376.136 369.937 387.215 355.4 386.831 355.126C386.831 355.126 386.063 355.29 384.911 355.564C383.732 355.81 382.279 356.194 380.633 356.413C377.452 356.933 374.354 357.316 374.354 357.316L374.326 357.343ZM348.274 324.437C348.274 324.437 343.256 324.82 338.484 324.82C336.154 324.875 333.685 324.738 331.848 324.574C330.038 324.41 328.859 324.3 328.859 324.3C328.859 324.3 330.724 328.598 332.314 333.307C333.192 335.689 333.685 337.906 334.179 339.713C334.618 341.493 334.919 342.697 334.919 342.697C334.919 342.697 336.675 343.272 339.307 344.148C341.94 344.969 345.669 346.147 349.207 346.94C356.364 348.693 363.988 349.815 363.988 349.815C363.988 349.815 363.138 348.145 361.849 345.626C360.56 343.135 358.75 339.905 356.693 336.674C352.69 330.214 348.274 324.437 348.274 324.437Z" fill="#FEE063"/>
<path d="M164.02 319.92L146.14 330.241C146.14 330.241 149.705 329.912 153.188 329.447C156.671 328.982 160.071 328.379 160.071 328.379C160.071 328.379 161.031 326.217 161.991 324.081C163.005 322.001 163.993 319.947 163.993 319.947L164.02 319.92Z" fill="#FEE063"/>
<path d="M252.486 146.272C252.486 146.272 255.037 140.851 258.108 135.458C261.124 130.065 264.635 124.699 264.635 124.699C264.635 124.699 261.892 121.25 258.848 117.773C255.832 114.324 252.514 110.874 252.514 110.874V103.4C252.514 103.4 255.174 103.51 259.15 103.674C261.124 103.784 263.455 103.893 265.951 104.03C267.185 104.112 268.474 104.14 269.79 104.277C271.079 104.468 272.395 104.66 273.712 104.851C278.977 105.7 284.269 106.302 288.136 107.288C292.003 108.273 294.608 108.93 294.608 108.93C294.608 108.93 295.76 109.232 297.487 109.67C299.187 110.162 301.546 110.628 303.767 111.504C308.237 113.119 312.707 114.762 312.707 114.762C312.707 114.762 313.447 115.035 314.736 115.528C315.394 115.775 316.162 116.076 317.067 116.404C317.945 116.815 318.932 117.28 320.001 117.773C322.14 118.786 324.636 119.991 327.296 121.277C328.612 121.934 329.983 122.591 331.382 123.276C332.726 124.042 334.069 124.864 335.441 125.657C340.843 128.888 346.273 132.146 349.947 135.102C353.732 137.949 356.254 139.838 356.254 139.838C356.254 139.838 357.242 140.523 358.585 141.673C359.902 142.85 361.684 144.438 363.439 146.025C365.194 147.613 366.949 149.228 368.238 150.433C368.896 151.035 369.445 151.528 369.801 151.884C370.158 152.267 370.35 152.486 370.35 152.486C370.35 152.486 372.489 154.813 375.67 158.29C377.233 160.042 379.153 162.041 381.017 164.34C382.8 166.695 384.692 169.213 386.584 171.732C390.506 176.66 393.55 182.217 396.045 186.214C398.568 190.211 399.857 193.113 399.857 193.113C399.857 193.113 401.914 197.383 403.97 201.654C405.04 203.762 405.917 205.98 406.493 207.65C407.124 209.32 407.535 210.442 407.535 210.442C407.535 210.442 408.605 213.399 410.223 217.861C411.758 222.323 413.157 228.51 414.72 234.615C415.927 240.802 416.749 247.044 417.435 251.726C417.791 256.407 417.929 259.555 417.929 259.555C417.929 259.555 418.148 264.264 418.367 269C418.148 273.709 417.929 278.445 417.929 278.445C417.929 278.445 417.791 281.593 417.435 286.274C416.749 290.956 415.927 297.198 414.72 303.385C413.157 309.49 411.758 315.649 410.223 320.139C408.605 324.574 407.535 327.558 407.535 327.558C407.535 327.558 407.124 328.68 406.493 330.35C405.89 332.02 405.04 334.238 403.97 336.346L399.857 344.887C399.857 344.887 399.034 346.667 398.074 348.391C397.06 350.089 396.073 351.759 396.073 351.759L390.862 348.747L389.601 348.008L391.63 347.461C391.63 347.461 391.877 347.05 392.316 346.338C392.754 345.626 393.33 344.586 393.934 343.299C395.168 340.726 396.84 337.304 398.486 333.855C400.241 330.46 401.338 326.791 402.38 324.136C403.367 321.453 403.998 319.646 403.998 319.646C403.998 319.646 401.859 314.992 399.116 310.53C396.484 306.068 393.742 301.989 393.742 301.989C393.742 301.989 383.979 304.726 374.546 306.177C369.747 306.916 364.81 307.354 361.245 307.601C357.653 307.847 355.295 307.902 355.295 307.902C355.295 307.902 354.225 306.396 352.607 304.179C350.907 301.961 348.905 299.223 346.327 296.541C341.364 291.147 336.236 286.795 336.236 286.795C336.236 286.795 336.675 286.685 337.415 286.466C338.128 286.22 339.115 285.891 340.322 285.481C342.762 284.632 346.026 283.373 349.344 281.922C351.017 281.21 352.662 280.416 354.253 279.677C355.761 278.91 357.105 278.144 358.284 277.487C360.642 276.09 362.205 275.16 362.205 275.16C362.205 275.16 364.344 276.173 367.553 277.843C370.789 279.513 375.067 281.922 379.043 284.522C387.133 289.697 395.003 296.13 395.003 296.13C395.003 296.13 399.144 293.502 403.312 290.49C405.396 288.985 407.48 287.424 409.044 286.22C410.634 285.015 411.566 284.167 411.566 284.167C411.566 284.167 412.033 276.583 412.334 269C412.033 261.417 411.566 253.834 411.566 253.834C411.566 253.834 410.634 252.985 409.044 251.78C407.48 250.576 405.396 248.988 403.312 247.51C399.144 244.498 395.003 241.87 395.003 241.87C395.003 241.87 387.133 248.303 379.043 253.478C375.094 256.106 370.789 258.488 367.553 260.157C364.344 261.827 362.205 262.84 362.205 262.84C362.205 262.84 360.642 261.91 358.284 260.513C357.105 259.829 355.761 259.09 354.253 258.323C352.69 257.557 351.017 256.79 349.344 256.078C346.026 254.627 342.735 253.368 340.322 252.519C339.115 252.109 338.101 251.78 337.415 251.534C336.675 251.315 336.236 251.205 336.236 251.205C336.236 251.205 341.364 246.853 346.327 241.459C348.933 238.749 350.907 236.012 352.607 233.821C354.225 231.577 355.295 230.098 355.295 230.098C355.295 230.098 357.653 230.153 361.245 230.399C364.81 230.646 369.747 231.084 374.546 231.823C383.979 233.301 393.742 236.012 393.742 236.012C393.742 236.012 396.484 231.932 399.116 227.47C401.859 223.008 403.998 218.354 403.998 218.354C403.998 218.354 403.34 216.574 402.38 213.864C401.31 211.209 400.241 207.54 398.486 204.145C396.84 200.723 395.168 197.274 393.934 194.701C393.33 193.414 392.754 192.374 392.316 191.662C391.877 190.95 391.63 190.539 391.63 190.539C391.63 190.539 386.502 189.143 381.566 188.076C379.098 187.528 376.63 187.063 374.82 186.734C372.928 186.488 371.666 186.323 371.666 186.323C371.666 186.323 371.392 186.871 370.926 187.829C370.432 188.787 369.774 190.129 368.842 191.799C367.004 195.111 364.481 199.382 361.821 203.434C359.161 207.513 356.392 211.345 354.225 214.138C351.949 216.985 350.386 218.792 350.386 218.792C350.386 218.792 348.576 218.518 345.889 218.244C343.064 218.053 339.389 217.861 335.824 217.888C328.804 217.751 321.784 218.847 321.784 218.847C321.784 218.847 322.524 217.313 323.594 214.877C324.608 212.495 326.117 209.018 327.077 205.733C329.216 199.053 330.696 191.58 330.696 191.58C330.696 191.58 339.335 188.076 348.85 185.475C351.209 184.818 353.622 184.215 355.898 183.668C358.147 183.175 360.203 182.765 362.041 182.436C365.661 181.779 368.156 181.423 368.156 181.423C368.156 181.423 368.375 180.191 368.704 178.33C368.979 176.468 369.472 173.867 369.664 171.376C370.13 166.393 370.322 161.165 370.322 161.165C370.322 161.165 369.034 159.768 367.114 157.66C365.249 155.498 362.288 153.089 359.518 150.46C356.693 147.914 353.896 145.341 351.538 143.698C349.262 141.974 347.726 140.851 347.726 140.851C347.726 140.851 342.543 141.536 337.634 142.549C332.561 143.726 327.762 145.122 327.762 145.122C327.762 145.122 327.68 147.641 327.378 151.309C327.104 155.005 326.638 159.741 325.76 164.669C324.17 174.415 321.537 183.367 321.537 183.367C321.537 183.367 314.27 185.584 307.881 188.377C304.617 189.8 301.381 191.58 299.105 192.812C296.802 194.098 295.376 195.002 295.376 195.002C295.376 195.002 295.458 193.25 295.458 190.567C295.431 187.966 295.211 184.571 294.855 180.985C294.471 177.453 293.977 173.703 293.429 171.047C292.825 168.392 292.414 166.64 292.414 166.64C292.414 166.64 298.995 159.577 306.537 153.636C310.294 150.57 314.27 147.641 317.369 145.478C318.932 144.41 320.248 143.534 321.153 142.905C322.058 142.33 322.579 142.001 322.579 142.001C322.579 142.001 322.332 140.742 321.784 138.99C321.263 137.21 320.55 134.829 319.755 132.392C318.191 127.574 316.272 122.591 316.272 122.591C316.272 122.591 315.833 122.4 315.093 122.044C314.325 121.715 313.201 121.305 311.857 120.812C309.169 119.826 305.577 118.512 301.985 117.226C298.392 115.939 294.635 115.172 291.866 114.406C289.096 113.694 287.231 113.229 287.231 113.229C287.231 113.229 286.134 113.913 284.516 114.926C282.898 116.021 280.732 117.554 278.675 119.087C274.534 122.153 270.75 125.302 270.75 125.302C270.75 125.302 274.479 134.719 276.947 143.972C278.236 148.517 279.169 153.499 279.772 156.976C280.375 160.535 280.704 162.862 280.704 162.862C280.704 162.862 279.333 164.094 277.277 165.901C275.275 167.735 272.724 170.144 270.311 172.991C265.457 178.466 261.646 183.969 261.646 183.969C261.646 183.969 261.207 182.874 260.466 181.314C259.726 179.726 258.711 177.59 257.587 175.455C255.366 171.184 252.651 166.831 252.651 166.831V146.217L252.486 146.272ZM387.434 297.581C387.434 297.581 386.036 296.376 383.705 294.597C381.401 292.845 378.33 290.6 375.204 288.492C368.979 284.249 362.699 280.772 362.699 280.772C362.699 280.772 358.174 283.154 353.759 285.097C351.538 286.083 349.344 286.959 347.726 287.589C346.135 288.218 344.929 288.574 344.929 288.574C344.929 288.574 348.302 291.722 351.593 295.336C353.238 297.116 354.883 299.004 356.09 300.455C356.721 301.195 357.159 301.797 357.489 302.208C357.818 302.646 357.982 302.865 357.982 302.865C357.982 302.865 358.448 302.837 359.271 302.755C360.094 302.7 361.273 302.591 362.589 302.399C365.277 302.071 368.924 301.55 372.599 300.866C379.948 299.552 387.462 297.499 387.462 297.499L387.434 297.581ZM410.278 293.091C410.278 293.091 407.7 295.008 405.122 296.787C403.833 297.663 402.572 298.539 401.585 299.196C400.625 299.826 399.912 300.236 399.912 300.236C399.912 300.236 401.612 302.782 403.23 305.465C404.875 308.148 406.466 310.968 406.466 310.968C406.466 310.968 407.59 306.533 408.714 302.098C409.263 299.881 409.482 297.608 409.784 295.911C410.058 294.214 410.223 293.091 410.223 293.091H410.278ZM387.434 240.337C387.434 240.337 379.92 238.284 372.571 236.97C368.896 236.285 365.277 235.765 362.562 235.437C361.218 235.272 360.066 235.163 359.244 235.081C358.421 235.026 357.955 234.971 357.955 234.971C357.955 234.971 357.763 235.218 357.461 235.628C357.159 236.039 356.693 236.641 356.063 237.38C354.856 238.831 353.211 240.72 351.565 242.5C348.274 246.113 344.901 249.262 344.901 249.262C344.901 249.262 346.081 249.618 347.699 250.247C349.316 250.877 351.51 251.753 353.732 252.738C358.147 254.682 362.671 257.064 362.671 257.064C362.671 257.064 368.979 253.587 375.176 249.344C378.275 247.236 381.374 244.991 383.677 243.239C386.008 241.487 387.407 240.255 387.407 240.255L387.434 240.337ZM406.521 226.977C406.521 226.977 404.93 229.797 403.285 232.48C401.639 235.163 399.967 237.709 399.967 237.709C399.967 237.709 400.68 238.12 401.639 238.749C402.599 239.406 403.888 240.282 405.177 241.158C407.755 242.938 410.332 244.854 410.332 244.854C410.332 244.854 410.168 243.732 409.894 242.034C409.592 240.337 409.345 238.065 408.824 235.847C407.7 231.412 406.576 226.977 406.576 226.977H406.521ZM364.015 188.076C364.015 188.076 356.392 189.198 349.234 190.95C345.697 191.744 341.967 192.921 339.335 193.742C336.702 194.618 334.947 195.193 334.947 195.193C334.947 195.193 334.645 196.398 334.206 198.177C333.713 199.984 333.192 202.202 332.342 204.583C330.751 209.292 328.886 213.59 328.886 213.59C328.886 213.59 330.093 213.481 331.876 213.317C333.713 213.18 336.154 213.015 338.512 213.07C343.256 213.07 348.302 213.453 348.302 213.453C348.302 213.453 352.717 207.65 356.721 201.216C358.777 197.986 360.587 194.728 361.876 192.264C363.165 189.745 364.015 188.076 364.015 188.076ZM376.164 167.981C376.164 167.981 375.807 171.239 375.341 174.36C374.902 177.508 374.354 180.574 374.354 180.574C374.354 180.574 377.452 180.958 380.633 181.478C382.251 181.724 383.732 182.08 384.911 182.327C386.063 182.6 386.831 182.765 386.831 182.765C387.242 182.491 376.136 167.954 376.136 167.954L376.164 167.981ZM321.455 149.776C321.455 149.776 319.864 150.789 317.506 152.322C315.202 153.828 312.049 156.127 309.087 158.427C303.082 163.054 297.789 168.009 297.789 168.009C297.789 168.009 298.694 172.991 299.187 177.727C299.434 180.109 299.654 182.381 299.654 184.27C299.654 186.077 299.708 187.282 299.708 187.282C299.708 187.282 303.794 185.009 308.292 182.956C309.416 182.463 310.568 181.943 311.637 181.478C312.68 181.067 313.667 180.711 314.517 180.383C316.245 179.781 317.396 179.37 317.396 179.37C317.396 179.37 317.808 177.563 318.411 174.853C318.685 173.457 318.987 171.869 319.343 170.117C319.618 168.419 319.892 166.612 320.139 164.778C321.126 157.469 321.482 149.749 321.482 149.749L321.455 149.776ZM324.334 126.588C324.334 126.588 325.376 129.6 326.309 132.556C327.159 135.65 327.872 138.716 327.872 138.716C327.872 138.716 330.833 137.867 333.932 137.101C337.004 136.334 340.212 135.65 340.212 135.65L332.397 130.886C330.422 129.709 328.503 128.505 326.912 127.82C325.376 127.054 324.334 126.561 324.334 126.561V126.588ZM268.254 119.306C268.254 119.306 270.613 117.362 273.108 115.473C275.604 113.557 278.236 111.696 278.236 111.696C278.236 111.696 273.712 111.038 269.187 110.354C264.635 110.026 260.082 109.807 260.082 109.807C260.082 109.807 262.276 112.161 264.306 114.543C265.293 115.72 266.307 116.924 267.048 117.8C267.788 118.676 268.254 119.306 268.254 119.306ZM252.76 158.317C252.76 158.317 255.612 162.561 257.998 166.749C259.205 168.857 260.329 170.938 261.124 172.498C261.92 174.059 262.413 175.127 262.413 175.127C262.413 175.127 265.21 171.485 268.446 167.844C270.064 166.038 271.765 164.231 273.081 162.862C273.739 162.177 274.315 161.63 274.699 161.247C275.083 160.891 275.302 160.672 275.302 160.672C275.302 160.672 275.22 160.206 275.055 159.412C274.891 158.646 274.644 157.524 274.342 156.209C273.739 153.554 272.834 149.995 271.765 146.409C269.708 139.236 266.856 131.981 266.856 131.981C266.856 131.981 265.786 133.569 264.278 136.033C262.77 138.497 260.85 141.782 259.095 145.095C255.503 151.692 252.706 158.317 252.706 158.317H252.76Z" fill="#FEE063"/>
<path d="M340.953 319.92L358.832 330.241C358.832 330.241 356.83 327.339 354.746 324.601C352.58 321.809 350.276 319.126 350.276 319.126C350.276 319.126 348 319.455 345.697 319.674C343.338 319.811 340.98 319.92 340.98 319.92H340.953Z" fill="#FEE063"/>
<path d="M212.476 293.42L221.69 287.78C221.69 287.78 221.553 287.561 221.498 287.452C221.498 287.452 221.032 286.74 220.566 286.028C220.1 285.316 219.579 284.605 219.579 284.605C219.579 284.605 218.811 285.426 218.043 286.22C217.303 287.068 216.562 287.917 216.562 287.917C215.191 289.532 213.793 291.421 212.504 293.42H212.476Z" fill="#FEE063"/>
<path d="M223.308 240.72C223.308 240.72 224.35 241.186 225.392 241.624C226.407 242.116 227.394 242.582 227.394 242.582C227.394 242.582 226.873 243.239 226.352 243.923C225.804 244.58 225.283 245.237 225.283 245.237C222.65 248.824 220.264 253.286 218.729 258.186C217.166 263.059 216.562 268.124 216.59 272.559C216.59 272.559 216.59 273.408 216.59 274.256C216.672 275.105 216.782 275.926 216.782 275.926C216.782 275.926 215.657 275.735 214.533 275.57C213.381 275.351 212.257 275.105 212.257 275.105C209.295 274.421 206.169 273.38 202.933 271.957C199.779 270.533 196.708 268.699 193.582 266.481C190.675 264.291 187.768 261.69 185.163 258.816C182.722 255.969 180.254 252.766 178.472 249.535C178.472 249.535 177.786 248.303 177.128 247.072C176.47 245.785 175.812 244.498 175.812 244.498C175.812 244.498 177.046 243.786 178.307 243.157C179.596 242.554 180.913 241.952 180.913 241.952C184.395 240.392 187.96 239.078 191.799 238.256C193.692 237.818 195.556 237.49 197.421 237.243C199.341 237.024 201.26 236.915 203.125 236.888C206.8 236.778 210.474 237.161 213.902 237.846C217.248 238.448 220.456 239.516 223.308 240.693V240.72ZM218.016 244.662C208.747 242.609 197.01 243.513 186.808 248.002C192.403 257.529 201.562 265.113 210.337 268.808C210.612 260.678 213.738 251.507 218.016 244.662Z" fill="#FEE063"/>
<path d="M270.421 232.535C270.421 232.535 270.311 233.685 270.201 234.807C270.037 235.929 269.9 237.052 269.9 237.052C269.9 237.052 266.746 235.738 266.719 235.847C262.468 234.451 257.422 233.548 252.322 233.575C247.221 233.575 242.285 234.533 238.034 235.957C238.034 235.984 237.184 236.121 236.416 236.504C235.621 236.86 234.853 237.189 234.853 237.189C234.853 237.189 234.689 236.066 234.524 234.944C234.387 233.794 234.277 232.644 234.277 232.644C233.729 226.539 234.305 219.339 236.691 212.249C237.815 208.58 239.46 205.323 241.38 201.846C243.327 198.479 245.658 195.495 248.181 192.565C248.181 192.565 249.113 191.525 250.128 190.539C251.143 189.554 252.185 188.541 252.185 188.541C252.185 188.541 253.227 189.526 254.241 190.512C255.256 191.498 256.188 192.51 256.188 192.51C258.739 195.412 261.097 198.396 263.044 201.736C264.991 205.186 266.664 208.416 267.843 212.085C270.284 219.148 270.997 226.293 270.476 232.453L270.421 232.535ZM264.964 228.784C264.086 219.175 259.561 208.444 252.157 200.148C244.808 208.498 240.393 219.285 239.625 228.894C247.413 226.704 257.093 226.676 264.964 228.784Z" fill="#FEE063"/>
<path d="M292.771 274.694C292.771 274.694 291.619 274.941 290.494 275.187L288.246 275.57C288.246 275.57 288.328 274.722 288.41 273.873C288.41 273.024 288.41 272.176 288.41 272.176C288.41 267.713 287.752 262.703 286.162 257.885C284.598 253.067 282.076 248.55 279.416 244.991C279.525 244.909 277.277 242.363 277.277 242.363C277.277 242.363 278.291 241.87 279.306 241.35C280.348 240.885 281.39 240.392 281.39 240.392C284.324 239.105 287.341 238.202 290.796 237.462C294.279 236.696 297.816 236.395 301.573 236.395C309.087 236.395 316.903 238.12 323.841 241.186C323.841 241.186 325.157 241.788 326.446 242.363C327.707 243.02 328.941 243.704 328.941 243.704C328.941 243.704 328.311 244.991 327.68 246.278C327.022 247.51 326.364 248.769 326.364 248.769C324.581 252.054 322.14 255.284 319.755 258.159C317.204 261.061 314.297 263.689 311.418 265.906C308.319 268.151 305.22 269.986 302.122 271.436C298.886 272.887 295.787 273.955 292.825 274.667L292.771 274.694ZM294.635 268.37C303.383 264.62 312.488 256.982 317.972 247.373C307.661 243.02 296.116 242.144 286.683 244.361C291.153 251.205 294.279 260.267 294.635 268.37Z" fill="#FEE063"/>
<path d="M259.452 308.969C259.452 308.969 258.876 308.011 258.3 307.053C257.751 306.04 257.23 305 257.23 305C257.23 305 258.081 304.863 258.876 304.562L260.494 304.069C264.717 302.7 269.297 300.51 273.465 297.471C277.633 294.46 281.061 290.819 283.639 287.178L285.476 284.303C285.476 284.303 286.244 285.097 287.039 285.891C287.807 286.74 288.575 287.589 288.575 287.589C289.589 288.738 290.604 289.998 291.591 291.366C292.551 292.708 293.429 294.104 294.279 295.61C295.129 297.116 295.952 298.703 296.719 300.373C297.432 302.016 298.036 303.713 298.612 305.493C299.16 307.272 299.708 309.134 300.092 310.995C300.449 312.83 300.723 314.719 300.915 316.635C301.354 320.55 301.244 324.328 300.86 328.106C300.86 328.106 300.696 329.529 300.531 330.953C300.367 332.404 300.065 333.745 300.065 333.745C300.065 333.745 298.639 333.526 297.213 333.307C295.814 333.061 294.443 332.814 294.443 332.814C287.039 331.363 279.608 328.16 273.52 323.89C267.377 319.592 262.605 314.226 259.424 308.969H259.452ZM266.061 308.833C272.313 315.868 282.46 322.22 293.292 324.465C294.279 313.35 291.482 302.016 286.518 293.858C283.968 296.979 280.732 299.963 277.249 302.591C273.739 305.274 269.763 307.19 266.061 308.805V308.833Z" fill="#FEE063"/>
<path d="M204.606 328.571C204.414 327.01 204.304 325.45 204.222 323.917C204.222 322.302 204.222 320.687 204.332 319.099C204.496 315.923 204.88 312.83 205.675 309.736C207.019 303.686 209.624 297.992 212.504 293.392L221.718 287.753C224.405 291.284 227.751 294.816 231.755 297.69C235.895 300.647 240.53 302.755 244.808 304.124C244.808 304.124 245.631 304.37 246.453 304.589C247.276 304.89 248.126 305 248.126 305C248.126 305 247.605 306.013 247.057 307.053C246.481 308.011 245.932 308.997 245.932 308.997C242.779 314.28 238.034 319.728 231.947 324.081C228.93 326.189 225.53 328.27 222.047 329.721C220.292 330.487 218.482 331.172 216.617 331.801C214.78 332.404 212.97 332.814 211.105 333.225C211.105 333.225 209.707 333.499 208.308 333.772C206.909 334.019 205.456 334.238 205.456 334.238C205.456 334.238 205.237 332.814 204.99 331.363C204.798 329.967 204.606 328.544 204.606 328.544V328.571ZM218.701 294.186C213.902 302.317 211.023 313.788 212.175 324.902C223.062 322.439 233.043 316.115 239.268 308.942C235.512 307.409 231.617 305.383 228.025 302.892C224.488 300.319 221.389 297.252 218.701 294.186Z" fill="#FEE063"/>
<path d="M172.603 254.162C172.603 254.162 172.165 256.024 171.781 257.885C171.506 259.774 171.26 261.663 171.26 261.663C170.218 269.356 170.327 278.253 172.329 287.041C174.249 295.829 177.896 304.452 182.503 311.734L187.96 308.395C180.858 297.335 176.47 282.688 177.018 269.986C185.876 276.72 196.598 282.086 206.251 284.194C203.811 286.986 201.809 290.052 199.615 293.557C197.586 297.006 195.831 300.702 194.13 304.644L205.045 297.964C206.416 295.172 207.897 292.598 209.377 290.271C210.886 287.917 212.641 285.727 214.176 283.838C214.176 283.838 214.889 282.989 215.602 282.195C216.398 281.401 217.193 280.608 217.193 280.608C217.193 280.608 216.096 280.443 215.027 280.252C213.93 280.033 212.805 279.814 212.805 279.814C209.789 279.157 206.827 278.144 203.482 276.857C200.273 275.57 197.092 273.928 193.774 272.011C190.675 270.095 187.494 267.905 184.505 265.523C181.626 263.169 178.828 260.623 176.223 258.104C176.223 258.104 175.318 257.146 174.413 256.188C173.508 255.202 172.603 254.189 172.603 254.189V254.162Z" fill="#FEE063"/>
<path d="M239.296 193.222C237.678 196.507 236.087 199.765 234.771 203.352C233.455 206.993 232.276 210.469 231.48 214.193C229.835 221.502 229.396 228.62 229.945 234.67C229.945 234.67 230.054 235.792 230.191 236.915C230.356 238.01 230.493 239.078 230.493 239.078C230.493 239.078 229.478 238.503 228.491 238.065C227.477 237.627 226.462 237.216 226.462 237.216C223.692 236.094 220.456 234.971 217.166 234.232C215.493 233.849 213.738 233.466 211.9 233.164C210.118 232.891 208.335 232.699 206.471 232.562C204.606 232.425 202.686 232.288 200.767 232.288C198.902 232.288 197.01 232.37 195.118 232.48C193.225 232.589 191.306 232.726 189.441 232.945C187.631 233.192 185.821 233.466 184.039 233.767C184.039 233.767 182.722 234.013 181.379 234.259C180.035 234.533 178.691 234.834 178.691 234.834L180.282 231.385C180.693 230.509 181.104 229.66 181.406 229.003C181.708 228.346 181.955 227.935 181.955 227.935C186.616 219.011 194.295 209.73 203.811 202.859C213.217 195.933 224.323 191.415 234.277 189.609C234.277 189.609 241.846 188.377 241.846 188.568C241.846 188.568 241.161 189.718 240.502 190.868C239.872 192.072 239.241 193.277 239.241 193.277L239.296 193.222ZM228.162 197.602C221.252 199.82 213.957 203.16 207.622 207.923C201.26 212.632 195.639 218.409 191.553 224.404C202.714 224.021 214.698 226.047 223.665 229.77C222.732 219.942 224.515 208.197 228.162 197.602Z" fill="#FEE063"/>
<path d="M320.522 233.027C313.475 231.878 305.577 231.412 298.173 232.097C294.388 232.48 290.933 232.945 287.478 233.876C284.105 234.725 281.061 235.71 278.209 236.942C278.209 236.942 277.194 237.408 276.18 237.846C275.22 238.338 274.233 238.804 274.233 238.804C274.233 238.804 274.397 237.736 274.534 236.641C274.644 235.546 274.754 234.424 274.754 234.424C274.863 232.918 274.973 231.275 274.946 229.66C274.946 228.072 274.836 226.402 274.699 224.678C274.479 221.119 273.821 217.697 272.999 214.001C271.298 206.746 268.309 199.464 264.991 193.085C264.991 193.085 264.36 191.881 263.73 190.676L262.359 188.377C262.359 188.185 269.927 189.335 269.927 189.335C279.827 191.032 291.015 195.358 300.559 202.229C310.129 209.073 317.835 218.326 322.579 227.114C322.579 227.114 323.429 228.812 324.279 230.509C325.102 232.206 325.925 233.931 325.925 233.931C325.925 233.931 324.581 233.63 323.237 233.411C321.894 233.192 320.577 232.973 320.577 232.973L320.522 233.027ZM312.981 223.829C308.785 217.943 303.246 212.112 296.802 207.458C290.302 202.859 283.063 199.464 276.125 197.383C279.882 207.896 281.746 219.805 280.979 229.469C289.946 225.636 301.793 223.637 313.009 223.829H312.981Z" fill="#FEE063"/>
<path d="M307.716 322.493C307.168 318.962 306.482 315.348 305.412 311.625C304.425 307.984 303.246 304.425 301.71 300.948C300.97 299.223 300.202 297.581 299.407 295.993C298.529 294.378 297.624 292.817 296.719 291.339C294.964 288.437 292.88 285.754 290.933 283.482C290.933 283.482 290.193 282.661 289.48 281.84C288.712 281.018 287.889 280.252 287.889 280.252C287.889 280.252 288.986 280.06 290.056 279.868C291.153 279.622 292.277 279.403 292.277 279.403C295.293 278.691 298.228 277.651 301.573 276.337C304.754 274.995 307.935 273.353 311.254 271.409C314.325 269.465 317.533 267.248 320.468 264.866C323.32 262.484 326.117 259.911 328.694 257.338C328.694 257.338 329.599 256.38 330.504 255.394C331.382 254.381 332.287 253.368 332.287 253.368C332.287 253.368 332.753 255.23 333.137 257.091C333.411 258.98 333.713 260.869 333.713 260.869C335.166 270.834 334.426 282.77 330.833 293.912C327.351 305.082 321.016 315.293 313.996 322.576C313.996 322.576 312.625 323.917 311.254 325.231C309.855 326.545 308.456 327.832 308.456 327.832C308.456 327.832 308.292 326.463 308.155 325.122C307.963 323.78 307.771 322.466 307.771 322.466L307.716 322.493ZM314.188 312.446C318.548 306.642 322.278 299.552 324.718 292.024C327.241 284.522 328.146 276.529 327.954 269.301C319.151 276.118 308.456 281.538 298.858 283.783C305.275 291.12 310.979 301.77 314.188 312.446Z" fill="#FEE063"/>
<path d="M218.592 337.961C224.981 334.731 231.645 330.515 237.239 325.587C240.009 323.287 242.641 320.413 244.835 317.894C247.057 315.266 248.976 312.446 250.539 310.01C250.539 310.01 251.115 309.024 251.664 308.039C252.157 307.053 252.678 306.04 252.678 306.04C252.678 306.04 253.199 307.026 253.72 308.011C254.269 308.997 254.845 309.982 254.845 309.982C256.408 312.419 258.355 315.239 260.603 317.812C262.825 320.303 265.457 323.123 268.254 325.423C273.904 330.296 280.622 334.402 287.067 337.605C287.067 337.605 288.273 338.18 289.48 338.728C290.714 339.275 291.948 339.823 291.948 339.823C291.948 339.823 290.302 340.781 288.685 341.766C287.889 342.259 287.012 342.67 286.354 342.971C285.695 343.272 285.284 343.491 285.284 343.491C276.289 347.981 264.607 350.992 252.87 350.992C241.133 351.074 229.506 348.227 220.429 343.847C220.429 343.847 218.674 343.108 217.028 342.122C215.356 341.191 213.71 340.233 213.71 340.233C213.71 340.233 214.944 339.686 216.178 339.111C217.385 338.536 218.592 337.934 218.592 337.934V337.961ZM230.164 340.918C243.793 345.928 261.892 345.873 275.549 340.699C266.335 334.594 257.806 325.861 252.76 317.538C247.77 325.915 239.296 334.703 230.191 340.918H230.164Z" fill="#FEE063"/>
<path d="M182.503 311.734C183.956 313.815 185.41 315.841 186.863 317.785C188.344 319.701 190.017 321.426 191.553 323.096C191.553 323.096 192.814 324.547 194.267 325.779C195.693 327.038 197.119 328.325 197.119 328.325C197.119 328.325 197.257 326.983 197.394 325.614C197.558 324.3 197.723 322.959 197.723 322.959C198.244 318.907 199.313 314.39 200.438 310.201C201.589 305.985 203.317 301.687 205.017 297.909L194.103 304.589C193.061 307.3 192.074 310.147 191.224 312.939C190.181 311.461 189.03 309.873 187.933 308.34L182.476 311.68L182.503 311.734Z" fill="#FEE063"/>
</svg>
