<svg width="640" height="739" viewBox="0 0 640 739" fill="none" xmlns="http://www.w3.org/2000/svg">
<g opacity="0.2">
<path d="M26.5607 7.67321C24.79 11.8049 23.6095 17.117 23.6095 19.773C23.6095 23.6096 24.4949 23.6096 28.0363 20.6584C30.6923 18.5926 35.4142 12.9853 38.6605 8.26344L44.5629 0.000141144H36.8898C31.5777 0.000141144 28.6265 2.06597 26.5607 7.67321Z" fill="#FF4D6D"/>
<path d="M54.8919 16.5267C47.8091 30.3972 46.6286 35.7093 47.8091 49.5799C48.9896 64.6309 52.8261 72.8942 85.5842 129.557C122.474 193.597 133.688 209.829 137.23 205.992C141.066 202.156 132.803 184.744 98.2743 124.54C57.2529 53.1213 55.4822 45.4482 70.5332 16.8218L79.3867 6.10352e-05H71.4185C64.3357 6.10352e-05 61.9747 2.65611 54.8919 16.5267Z" fill="#FF4D6D"/>
<path d="M90.306 16.5266C83.2232 30.3972 82.0427 35.7093 83.2232 49.5799C84.4037 64.3358 87.9451 72.3039 112.44 114.506C141.952 165.561 151.691 179.727 154.937 176.481C158.773 172.644 149.625 151.691 124.54 108.308C93.8475 54.892 91.4865 43.9726 105.947 16.8218L114.801 4.57764e-05H106.833C99.7498 4.57764e-05 97.3889 2.6561 90.306 16.5266Z" fill="#FF4D6D"/>
<path d="M125.72 17.4122C113.03 43.6777 115.096 58.4336 137.23 95.9136C157.298 130.442 167.332 144.608 171.759 144.608C177.366 144.608 171.168 129.262 152.871 96.2087C129.852 55.1873 127.786 42.2021 141.362 16.8219L150.215 0.000213623H141.952C134.869 0.000213623 132.803 2.36116 125.72 17.4122Z" fill="#FF4D6D"/>
<path d="M189.761 2.06598C190.351 3.24646 205.992 30.3973 224.585 61.9749C256.753 117.457 257.933 120.113 257.933 137.23C258.228 157.298 266.491 141.657 160.839 324.63L117.457 399.885L118.637 417.592C119.523 432.938 122.179 439.431 136.935 464.811C157.298 499.34 167.332 513.505 171.759 513.505C177.366 513.505 171.168 498.159 152.576 464.811C135.754 435.004 134.279 430.872 134.279 414.641V396.934L203.631 277.411L272.984 157.888V138.706C272.984 119.523 272.689 119.228 239.046 60.4993C208.648 7.96832 203.926 1.47571 196.549 0.590393C192.122 0.00012207 188.875 0.590393 189.761 2.06598Z" fill="#FF4D6D"/>
<path d="M225.175 2.0658C256.753 55.4821 339.091 199.795 343.222 209.239C352.076 229.012 348.829 244.948 329.647 278.296C312.825 307.513 304.857 326.696 308.398 329.942C311.349 333.188 321.974 318.727 343.517 280.952C362.7 247.309 363.29 245.833 362.405 228.716C361.224 211.895 358.568 206.583 301.02 106.242C245.538 10.3291 239.636 1.47556 231.963 0.59021C227.536 -3.05176e-05 224.29 0.59021 225.175 2.0658Z" fill="#FF4D6D"/>
<path d="M260.589 2.06586C261.475 3.54144 288.921 50.7603 321.974 107.718L381.883 211.009V230.192C382.178 249.08 381.588 250.26 357.683 291.577C331.417 336.435 322.269 355.912 326.105 359.454C329.647 362.995 341.451 346.173 370.963 294.823C410.804 225.765 413.165 239.636 336.434 105.652C279.772 6.78775 275.345 0.295135 267.672 3.05176e-05C262.95 3.05176e-05 259.999 0.885376 260.589 2.06586Z" fill="#FF4D6D"/>
<path d="M296.003 2.06586C296.889 3.54144 324.335 50.7603 357.388 107.718L417.592 211.009V230.192C417.592 249.375 417.592 249.67 383.358 308.398C350.01 365.651 339.681 387.785 343.812 391.917C347.354 395.458 357.978 379.522 396.639 311.94L434.119 246.424L433.233 228.716C432.348 211.6 429.987 206.878 371.849 105.652C315.186 6.78772 310.759 0.295135 303.086 3.05176e-05C298.364 3.05176e-05 295.413 0.885376 296.003 2.06586Z" fill="#FF4D6D"/>
<path d="M345.288 10.6242C339.386 28.3313 347.354 27.446 357.978 9.14864L363.29 -2.09808e-05H355.912C350.305 -2.09808e-05 347.944 2.36092 345.288 10.6242Z" fill="#FF4D6D"/>
<path d="M375.685 13.8705C369.193 25.0849 367.422 31.5775 367.422 46.0383C367.422 63.4503 368.307 65.5161 399.59 119.818C440.021 189.761 450.645 206.583 454.777 206.583C462.45 206.583 452.711 184.744 418.477 125.72C384.834 66.9917 382.768 62.5649 382.473 47.2188C382.473 35.119 384.539 26.8557 390.441 15.3461L398.409 -7.62939e-05H391.326C385.719 -7.62939e-05 381.883 3.24622 375.685 13.8705Z" fill="#FF4D6D"/>
<path d="M411.099 13.8706C404.607 25.0851 402.836 31.5776 402.836 45.7433C402.836 62.565 404.017 65.5162 429.397 110.079C444.153 135.754 460.089 161.725 465.401 167.627C474.55 178.251 474.845 178.251 475.14 171.168C475.14 167.037 467.762 150.51 458.613 134.279C415.821 57.548 417.887 61.3846 417.887 45.7433C418.182 36.0044 420.838 25.6753 426.15 15.3462L433.823 1.52588e-05H426.741C421.133 1.52588e-05 417.297 3.24632 411.099 13.8706Z" fill="#FF4D6D"/>
<path d="M446.809 13.8708C440.316 25.0852 438.545 31.873 438.25 45.7435C438.25 61.975 439.726 66.1066 454.187 91.4868C474.845 127.786 486.354 144.608 490.486 144.608C496.684 144.608 489.896 125.72 473.664 98.2745C464.811 83.2235 456.252 65.8115 454.482 59.3189C450.94 45.4484 453.891 28.6267 463.04 13.2805C470.713 0.000213623 470.713 0.000213623 462.155 0.000213623C456.843 0.000213623 453.006 3.54163 446.809 13.8708Z" fill="#FF4D6D"/>
<path d="M510.554 2.06586C510.554 3.24634 525.605 30.1021 543.902 61.6797C576.661 119.228 576.956 119.523 576.956 138.706V157.888L507.603 277.411C438.545 396.639 438.545 396.934 438.25 414.641C438.25 430.872 439.726 435.004 454.187 460.384C474.845 496.684 486.354 513.505 490.486 513.505C496.684 513.505 489.896 494.618 473.664 467.172C454.187 434.119 449.76 418.772 454.187 402.541C455.957 396.344 487.535 339.091 524.425 275.935L591.416 160.839L591.712 138.706V116.572L557.773 58.4334C529.737 10.0341 522.654 6.10352e-05 517.342 6.10352e-05C513.505 6.10352e-05 510.554 0.885376 510.554 2.06586Z" fill="#FF4D6D"/>
<path d="M591.121 82.6333C637.455 162.315 638.93 164.676 639.816 153.166C640.701 142.542 636.57 133.984 599.975 70.8286C562.79 6.19771 558.658 0.000244141 551.576 0.000244141C543.902 0.000244141 545.378 2.95142 591.121 82.6333Z" fill="#FF4D6D"/>
<path d="M581.382 2.06589C581.382 2.95124 594.368 26.2656 610.304 54.0066C638.93 103.586 638.93 103.882 639.816 91.7817C640.701 81.1575 637.75 74.3698 617.682 39.841C598.794 7.08289 593.482 6.10352e-05 588.17 6.10352e-05C584.334 6.10352e-05 581.382 0.885414 581.382 2.06589Z" fill="#FF4D6D"/>
<path d="M616.797 1.77084C616.797 2.65619 621.814 12.3951 628.011 23.0193L638.93 42.7922L639.816 30.9875C641.291 15.3463 633.028 0.0001297 623.584 0.0001297C620.043 0.0001297 616.797 0.885483 616.797 1.77084Z" fill="#FF4D6D"/>
<path d="M165.266 13.2803C165.266 19.1827 172.349 33.3484 199.5 81.1575C223.109 123.064 226.946 136.64 220.748 154.937C218.387 161.43 186.81 217.797 150.51 280.362L84.1086 393.983V414.641V435.299L112.145 483.403C142.542 535.639 151.691 548.624 155.232 545.083C159.069 541.246 150.805 522.654 124.245 476.616C100.045 434.709 98.8645 431.758 98.8645 414.641V396.934L168.217 277.411L237.57 157.888V138.706C237.57 119.818 236.98 118.637 211.304 73.7795C182.973 24.7899 172.644 8.85358 167.922 8.85358C166.447 8.85358 165.266 10.9194 165.266 13.2803Z" fill="#FF4D6D"/>
<path d="M483.994 10.0342C483.994 16.5267 496.979 42.4971 517.047 77.3211C540.951 118.342 541.542 120.113 541.542 138.706V157.888L472.189 277.411C386.309 425.855 389.851 409.329 429.397 478.977C444.153 504.652 460.089 530.622 465.401 536.525C474.255 546.559 474.845 546.854 475.14 540.656C475.14 532.688 467.762 517.637 441.201 471.894C418.182 432.348 413.755 417.297 419.658 399.885C422.019 393.097 451.826 339.386 486.059 280.362C564.856 143.723 558.658 156.118 557.183 134.574C556.002 118.342 553.346 112.145 528.261 69.3529C501.996 23.6096 491.667 8.8537 486.354 8.8537C485.174 8.8537 483.994 9.44391 483.994 10.0342Z" fill="#FF4D6D"/>
<path d="M0 31.8729C0 39.8411 2.36094 48.3995 6.78771 55.4823C10.6242 61.3847 33.0532 99.4549 56.3675 140.181C111.555 236.39 110.964 225.47 65.8113 304.267C25.9704 374.21 23.6094 378.636 23.6094 387.195C23.9046 393.687 23.9046 393.687 31.8727 385.129C36.2995 380.112 56.3675 347.649 76.4356 312.825C117.457 241.997 120.408 232.848 110.079 209.239C103.586 195.073 7.08283 26.8559 2.65606 22.134C1.18047 20.6584 0 24.1998 0 31.8729Z" fill="#FF4D6D"/>
<path d="M148.739 47.219C149.625 52.8262 158.478 71.1235 168.217 88.2404C187.695 123.359 191.532 137.525 185.334 154.937C182.973 161.43 151.396 217.797 115.096 280.362L48.6945 393.983V414.641V435.299L85.2891 498.454C122.474 562.495 133.688 578.726 137.23 574.89C141.066 571.053 132.803 553.641 97.9792 493.142C64.3357 434.119 63.4504 432.053 63.4504 414.936V396.934L132.508 277.411C193.893 171.464 201.861 156.118 203.041 142.542C204.517 124.835 200.385 114.801 172.054 68.1724C153.461 38.0703 145.198 30.6924 148.739 47.219Z" fill="#FF4D6D"/>
<path d="M467.467 46.3336C468.647 51.0555 477.796 69.0577 487.83 87.0599C504.947 117.752 506.127 120.703 506.127 138.706V157.888L436.775 277.411L367.422 396.934V414.641C367.422 432.053 368.307 434.119 399.59 488.42C439.726 558.658 450.645 575.48 454.777 575.48C462.45 575.48 452.711 553.937 419.363 496.093C381.588 430.577 377.751 419.363 384.539 399.295C386.9 392.507 416.707 338.796 450.645 279.772C529.442 143.723 523.244 156.117 521.769 134.574C520.588 118.637 517.932 112.44 500.52 82.6331C479.567 47.2189 473.074 38.3654 468.352 38.3654C466.877 38.3654 466.582 41.9068 467.467 46.3336Z" fill="#FF4D6D"/>
<path d="M0 93.8475C0 101.816 2.06583 109.784 5.31212 114.506C8.2633 118.933 22.7241 143.132 37.1849 168.217C61.6797 210.714 63.4504 215.141 63.4504 230.487C63.4504 245.833 61.6797 249.965 36.0044 294.233C10.034 339.386 1.47559 360.044 8.2633 360.044C12.6901 360.044 19.1827 350.01 49.8749 297.184C79.977 245.538 84.1086 231.668 75.8453 211.6C70.8283 199.795 12.0998 96.7987 4.72189 87.0598C0.590236 81.4526 0.295118 81.7477 0 93.8475Z" fill="#FF4D6D"/>
<path d="M0 155.822C0 164.676 3.54142 173.234 13.8705 190.056C25.9704 210.124 27.446 214.551 27.446 229.897C27.446 244.358 25.6753 250.26 16.2315 267.377C10.034 278.591 3.83653 288.035 2.36094 288.625C-0.590236 289.806 -0.885354 315.776 2.36094 315.776C3.54142 315.481 12.9852 300.725 23.3143 282.428C41.0214 252.031 42.497 247.899 42.497 231.668C42.7921 215.141 41.3165 211.6 24.1997 180.907C13.8705 162.61 4.13165 146.969 2.65606 145.788C1.18047 144.903 0 149.625 0 155.822Z" fill="#FF4D6D"/>
<path d="M288.625 167.332C285.969 170.283 267.082 201.861 246.423 237.57C205.107 308.398 200.975 320.498 210.124 342.632C212.78 348.239 242.292 400.475 275.935 458.908C309.579 517.342 339.976 571.053 343.222 578.136C352.076 598.204 349.124 613.255 329.942 646.604C312.825 676.41 304.857 695.593 308.398 698.839C311.349 702.086 321.974 687.625 343.517 649.85C362.7 616.206 363.29 614.731 362.405 597.614C361.224 580.497 358.863 575.48 292.167 460.384C205.402 310.464 208.943 329.647 254.982 249.965C272.689 219.273 289.511 189.171 292.462 182.973C301.315 164.971 298.954 155.822 288.625 167.332Z" fill="#FF4D6D"/>
<path d="M606.172 170.283C602.926 175.005 583.743 207.173 563.675 241.997C512.62 330.237 510.849 313.12 582.858 437.365C637.16 530.917 638.93 533.573 639.816 522.064C640.701 511.144 636.274 502.291 592.892 427.036C546.263 346.469 540.656 333.483 542.427 314.006C543.017 308.693 559.544 276.231 580.202 240.226C612.96 182.973 621.814 162.315 614.436 162.315C612.96 162.315 609.419 165.856 606.172 170.283Z" fill="#FF4D6D"/>
<path d="M306.923 198.319C299.84 205.992 252.916 286.265 246.423 302.201C240.816 315.186 240.816 330.827 246.128 343.222C248.194 348.534 279.772 403.721 315.776 466.286L381.883 579.907V599.09C382.178 617.977 381.883 618.862 355.027 665.491C328.171 712.12 320.793 728.941 326.991 728.941C332.008 728.941 342.632 713.3 371.849 662.54C410.804 594.368 414.051 609.714 330.532 464.811C293.937 401.656 262.36 345.288 260.294 339.681C253.211 320.793 257.638 306.923 286.264 257.048C315.776 205.402 325.515 178.546 306.923 198.319Z" fill="#FF4D6D"/>
<path d="M626.831 198.319C623.289 201.861 607.648 227.241 592.007 254.097C561.61 306.923 557.183 320.203 564.266 339.681C566.331 345.583 584.039 377.751 603.516 411.395C638.34 471.599 638.93 472.484 639.816 460.679C640.701 450.055 637.16 442.382 609.714 394.573C579.612 342.337 578.431 339.681 578.431 322.859C578.431 306.037 579.612 302.791 602.926 262.36C630.077 215.141 635.389 203.631 633.913 196.254C633.323 192.122 632.143 192.417 626.831 198.319Z" fill="#FF4D6D"/>
<path d="M5.01704 228.421C0.885385 231.668 3.14415e-05 235.799 0.590267 245.538L1.77074 258.228L6.49263 247.899C16.5266 225.47 16.2315 219.863 5.01704 228.421Z" fill="#FF4D6D"/>
<path d="M320.793 233.733C316.957 239.046 305.742 257.343 296.298 274.46C280.362 302.791 278.886 306.923 278.886 323.154V340.861L348.239 460.384L417.592 579.907V599.09C417.592 617.977 417.297 618.862 388.375 668.442C372.439 695.888 356.798 723.039 353.551 728.056L347.649 737.795H356.207C363.88 737.5 366.832 733.368 399.295 676.706C447.694 591.416 450.94 612.37 365.946 464.811C328.466 399.885 296.594 341.452 294.823 335.254C290.396 319.318 293.642 305.742 306.628 283.313C322.564 256.162 333.483 234.029 333.483 228.716C333.483 221.634 328.466 223.699 320.793 233.733Z" fill="#FF4D6D"/>
<path d="M619.158 268.853C589.646 319.908 589.646 324.335 620.338 378.636L638.93 411.69L639.816 399.295C640.701 388.966 638.635 383.063 628.306 365.356C617.977 347.649 615.321 340.566 614.436 325.515C613.255 308.103 613.845 305.742 626.831 282.723C638.045 262.95 640.406 256.163 639.816 246.424L638.93 234.619L619.158 268.853Z" fill="#FF4D6D"/>
<path d="M636.569 300.135C631.848 307.513 625.945 327.581 628.306 329.057C633.618 332.303 640.701 319.318 639.816 307.808C639.226 301.316 638.045 298.069 636.569 300.135Z" fill="#FF4D6D"/>
<path d="M182.973 349.42C182.973 357.978 190.351 372.734 223.699 430.282C256.753 486.65 261.77 499.635 258.523 517.342C257.638 522.654 229.602 574.005 196.253 631.553C141.952 725.99 136.64 736.319 142.247 737.205C146.083 737.795 150.51 736.024 152.576 732.778C154.937 729.827 182.973 682.313 214.846 627.126L272.984 526.786V507.603V488.42L235.504 423.199C199.205 360.634 182.973 337.615 182.973 349.42Z" fill="#FF4D6D"/>
<path d="M503.176 347.944C500.52 352.666 515.866 383.358 550.395 442.677L578.726 491.372L577.841 509.079C576.661 528.261 583.153 515.866 485.764 683.788C455.367 736.615 454.777 737.795 462.745 737.795C469.828 737.795 472.779 733.958 488.715 705.922C498.749 688.51 526.49 640.406 550.395 599.09L593.777 523.834L592.597 504.652C591.416 486.354 589.646 482.813 553.641 420.543C514.686 353.256 507.013 342.042 503.176 347.944Z" fill="#FF4D6D"/>
<path d="M165.266 381.293C165.266 387.195 180.317 417.002 201.566 453.892C222.814 490.781 225.765 499.045 222.814 516.161C221.634 523.244 197.729 567.807 160.839 632.143C107.423 724.515 101.226 736.319 106.538 737.205C110.079 737.795 113.916 737.205 115.096 735.729C116.572 734.549 144.608 686.74 177.661 630.077L237.57 526.786V507.603C237.57 488.715 236.98 487.535 211.305 442.677C196.844 417.592 181.793 392.507 177.956 387.195C170.578 377.456 165.266 375.095 165.266 381.293Z" fill="#FF4D6D"/>
<path d="M483.994 378.932C483.994 385.424 496.979 411.395 517.047 446.218C540.951 487.24 541.542 489.011 541.542 507.603C541.542 526.195 540.951 527.966 516.752 569.578C417.887 739.271 418.772 737.795 427.331 737.795C434.414 737.5 437.955 733.073 460.089 694.118C473.96 670.213 501.405 622.109 521.769 587.285L558.363 523.834L557.183 504.652C556.002 486.65 554.232 482.518 528.556 438.25C501.996 392.507 491.667 377.751 486.354 377.751C485.174 377.751 483.994 378.341 483.994 378.932Z" fill="#FF4D6D"/>
<path d="M0 400.77C0 408.738 2.36094 417.297 6.78771 424.38C10.6242 430.282 33.0532 468.352 56.3675 509.079C111.85 605.582 111.259 594.073 64.0406 676.115C32.7581 730.417 30.102 736.319 35.7093 737.205C39.2507 737.795 43.0872 737.205 44.2677 735.729C45.7433 734.549 61.6797 707.398 80.2721 675.82L113.62 618.272L113.325 599.09V579.907L59.3187 486.945C29.8069 435.889 4.13165 392.802 2.65606 391.031C1.18047 389.556 0 393.097 0 400.77Z" fill="#FF4D6D"/>
<path d="M148.739 416.116C149.625 421.724 158.478 440.021 167.922 457.138C186.81 491.076 190.351 501.701 187.4 517.637C186.219 523.244 158.183 574.89 125.13 632.143C71.4186 725.105 65.5162 736.319 71.1234 737.205C74.6649 737.795 78.5014 737.205 79.6819 735.729C81.1575 734.549 109.194 686.74 141.952 630.077C194.483 538.885 201.861 525.015 203.041 511.439C204.517 493.732 200.385 483.698 172.054 437.07C153.461 406.968 145.198 399.59 148.739 416.116Z" fill="#FF4D6D"/>
<path d="M466.286 411.69C466.286 415.231 476.911 436.775 500.815 481.042C506.718 491.667 507.898 497.569 507.013 510.554C505.832 525.31 500.815 535.344 448.579 625.65C417.297 679.952 389.556 727.466 387.195 731.007C383.063 737.5 383.358 737.795 391.326 737.795C399.295 737.5 401.951 733.958 427.921 688.51C443.267 661.655 471.008 613.55 489.306 581.678L522.654 523.834L521.473 504.652C520.588 487.24 518.522 482.518 500.52 451.531C480.157 416.707 473.074 407.263 468.647 407.263C467.467 407.263 466.286 409.329 466.286 411.69Z" fill="#FF4D6D"/>
<path d="M0 463.04C0 470.418 2.06583 478.977 5.31212 483.403C8.2633 487.83 22.7241 512.03 37.1849 537.115C61.6797 579.612 63.4504 583.743 63.4504 599.385C63.4504 614.731 61.6797 618.862 36.0044 663.13C10.034 708.283 1.47559 728.941 8.2633 728.941C12.6901 728.941 19.1827 718.907 49.8749 666.081C80.2721 614.141 84.1086 600.86 75.5502 579.907C69.6478 566.036 9.73889 460.679 3.83653 454.482C0.590236 450.94 0 452.121 0 463.04Z" fill="#FF4D6D"/>
<path d="M0 526.491C0 533.869 1.18047 540.361 2.65606 541.246C4.13165 542.427 10.3291 551.871 16.5266 562.79C32.1679 590.826 32.1679 607.648 16.5266 635.979C10.034 647.194 3.83653 656.933 2.36094 657.523C-0.590236 658.703 -0.885354 684.674 2.36094 684.674C3.54142 684.379 12.9852 669.623 23.3143 651.325C41.0214 620.928 42.497 616.797 42.497 600.565C42.7921 584.039 41.3165 580.497 24.1997 549.805C13.8705 531.508 4.13165 515.866 2.65606 514.686C1.18047 513.8 0 519.113 0 526.491Z" fill="#FF4D6D"/>
<path d="M288.33 536.229C285.969 539.181 266.787 570.758 246.128 606.468C212.78 664.311 208.353 673.164 207.468 687.625C206.287 701.2 207.468 706.513 214.551 720.088C221.339 733.368 224.29 736.615 231.373 737.205L239.931 738.385L231.373 723.924C224.585 712.71 222.814 706.217 222.814 692.052C222.814 674.935 223.699 672.574 252.621 622.699C287.15 563.085 298.069 542.132 298.069 535.639C298.069 529.737 294.233 530.032 288.33 536.229Z" fill="#FF4D6D"/>
<path d="M606.172 539.181C602.926 543.902 583.743 576.07 563.38 610.894C527.671 672.869 526.786 674.64 526.786 692.052C527.081 714.481 539.181 737.795 550.69 737.795C554.527 737.795 557.773 737.205 557.773 736.615C557.773 736.024 554.527 729.827 550.69 722.744C543.607 710.054 542.132 701.791 542.722 683.198C543.017 677.296 556.592 650.44 579.907 609.419C612.96 551.871 621.814 531.212 614.436 531.212C612.96 531.212 609.419 534.754 606.172 539.181Z" fill="#FF4D6D"/>
<path d="M306.923 567.217C303.381 571.053 288.035 595.843 272.394 622.699C248.194 664.311 244.063 673.754 242.882 687.625C241.702 701.2 242.882 706.513 249.965 720.088C256.753 733.073 259.704 736.615 266.492 737.205L274.755 738.09L266.492 722.449C260.294 710.644 258.228 702.676 258.228 690.576C258.523 675.525 260.589 670.803 285.674 627.126C315.776 574.3 325.515 547.444 306.923 567.217Z" fill="#FF4D6D"/>
<path d="M626.831 567.217C623.289 570.758 607.353 596.433 591.416 624.175C564.266 670.803 562.495 675.23 562.2 690.576C562.2 712.12 574.004 735.729 585.514 737.205C594.958 738.385 594.958 736.614 585.809 721.563C580.202 712.415 578.431 705.627 578.431 691.757C578.431 674.935 579.612 671.984 602.926 631.257C630.077 584.038 635.389 572.529 633.913 565.151C633.323 561.019 632.143 561.314 626.831 567.217Z" fill="#FF4D6D"/>
<path d="M5.01704 597.319C0.885385 600.565 3.14415e-05 604.697 0.590267 614.436L1.77074 627.126L6.49263 616.797C16.5266 594.368 16.2315 588.76 5.01704 597.319Z" fill="#FF4D6D"/>
<path d="M320.793 602.631C316.957 607.943 306.037 626.241 296.594 643.062C274.755 681.723 272.689 695.888 285.379 720.088C292.167 733.073 295.708 736.615 301.906 737.205L310.169 738.09L302.201 722.449C296.298 710.939 293.937 702.381 293.937 690.576C293.937 676.115 296.003 670.803 311.94 641.882C330.532 608.829 336.73 593.187 331.122 593.187C329.352 593.187 324.63 597.614 320.793 602.631Z" fill="#FF4D6D"/>
<path d="M618.272 638.93C599.68 671.098 597.909 675.82 597.909 690.576C597.909 712.415 610.599 737.795 621.223 737.795C625.355 737.795 628.601 737.205 628.601 736.615C628.601 735.729 625.355 728.941 621.223 721.268C609.124 698.544 610.894 679.952 627.421 651.03C638.045 631.848 640.406 625.06 639.816 615.616L638.93 603.516L618.272 638.93Z" fill="#FF4D6D"/>
<path d="M636.569 669.033C631.848 676.411 625.945 696.479 628.306 697.954C633.618 701.2 640.701 688.215 639.816 676.706C639.226 670.213 638.045 666.967 636.569 669.033Z" fill="#FF4D6D"/>
<path d="M184.154 723.629C186.515 735.434 189.466 738.68 197.434 737.205L203.631 736.319L197.139 726.876C187.4 713.005 181.793 711.53 184.154 723.629Z" fill="#FF4D6D"/>
<path d="M503.766 716.251C502.586 718.022 503.176 723.629 504.947 728.646C507.308 735.434 509.964 737.795 515.276 737.795C524.425 737.795 524.13 735.434 514.096 723.039C509.079 717.137 504.947 714.481 503.766 716.251Z" fill="#FF4D6D"/>
</g>
</svg>
