<svg width="701" height="689" viewBox="0 0 701 689" fill="none" xmlns="http://www.w3.org/2000/svg">
<path opacity="0.8" fill-rule="evenodd" clip-rule="evenodd" d="M108.301 675.637C186.216 675.746 196.011 675.759 205.691 676.825C207.083 676.978 208.473 677.153 210.063 677.354C210.491 677.408 210.934 677.463 211.395 677.521C224.722 679.164 238.705 682.268 250.644 686.174L256.486 688.109L262.145 688.183L267.804 688.256L261.415 686.065C248.891 681.793 239.362 679.091 228.555 676.791L222.896 675.586L380.11 675.549C482.96 675.513 539.624 675.659 543.859 675.878C566.021 677.156 583.217 680.332 603.444 686.868L603.71 686.953C607.901 688.293 608.003 688.326 613.083 688.219L618.267 688.109L610.053 685.408C596.617 680.99 589.607 679.018 579.055 676.791L573.396 675.586L637.18 675.549L701 675.513V673.687V671.862L549.555 671.825L398.146 671.789L403.805 670.584C414.868 668.247 420.198 666.713 438.673 660.725C463.098 652.766 472.81 650.392 489.605 648.311C490.067 648.253 490.51 648.198 490.939 648.144C492.528 647.943 493.918 647.768 495.31 647.615C504.989 646.55 514.783 646.536 592.664 646.428L603.408 646.413L701 646.266V644.441V642.615L605.051 642.761C536.594 642.871 507.714 643.017 504.209 643.346C478.469 645.536 466.201 648.092 440.498 656.526C434.474 658.498 427.172 660.871 424.251 661.748C406.288 667.298 389.566 670.255 368.755 671.496C364.922 671.716 305.3 671.862 205.189 671.825L47.6461 671.789L53.3052 670.584C64.3314 668.247 69.6619 666.75 86.5297 661.237C111.503 653.058 122.2 650.429 139.105 648.311C139.526 648.258 139.932 648.206 140.326 648.156C141.803 647.969 143.108 647.803 144.415 647.656C154.29 646.546 164.287 646.523 249.904 646.328L261.049 646.303C336.991 646.12 368.171 645.938 371.859 645.646C388.909 644.185 399.826 642.542 412.02 639.512C419.468 637.65 423.484 636.445 436.482 632.173C461.893 623.885 472.7 621.219 489.605 619.101C490.07 619.043 490.517 618.987 490.949 618.933C492.545 618.732 493.939 618.557 495.336 618.404C505.026 617.34 514.83 617.326 592.71 617.218L603.444 617.203L701 617.057V615.304V613.552L691.434 613.332C669.419 612.821 651.747 610.302 632.981 605.008C630.206 604.204 621.663 601.539 613.996 599.02C606.328 596.537 597.42 593.762 594.207 592.849C580.333 588.942 565.838 586.386 551.307 585.328C548.386 585.109 545.356 584.853 544.553 584.743C543.75 584.634 495.264 584.415 436.847 584.269L431.888 584.256C339.981 584.016 329.736 583.989 319.613 582.864C318.343 582.722 317.076 582.564 315.649 582.385C315.233 582.333 314.802 582.28 314.355 582.224C297.56 580.143 287.848 577.77 263.423 569.81C244.985 563.822 239.654 562.325 228.555 559.952L222.896 558.747L384.455 558.82C533.381 558.893 546.488 558.929 552.037 559.513C575.441 561.923 586.321 564.333 613.558 573.279C627.943 577.989 631.813 579.157 639.48 581.092C655.581 585.109 670.952 586.971 693.625 587.701L701 587.956V586.167V584.342L691.398 584.123C669.163 583.612 651.382 581.056 632.506 575.652C629.44 574.776 621.152 572.147 614.069 569.846C595.74 563.858 589.278 562.069 575.952 559.294C573.652 558.82 580.224 558.747 637.18 558.71L701 558.674V556.848V555.022L549.555 554.986L398.146 554.949L403.805 553.745C414.685 551.444 420.381 549.838 435.752 544.799C441.776 542.827 449.078 540.454 451.999 539.578C469.853 534.028 486.684 531.07 507.495 529.829C511.182 529.61 549.664 529.464 607.241 529.464H701V527.638V525.813H611.075C512.606 525.813 506.874 525.922 490.517 527.857C473.905 529.792 462.222 532.567 440.498 539.687C410.669 549.473 399.533 551.955 374.962 554.365C371.493 554.694 332.245 554.803 209.022 554.876L47.6461 554.949L53.3052 553.745C64.2583 551.408 70.027 549.801 85.2518 544.799C99.5274 540.089 105.661 538.227 111.868 536.62C122.456 533.882 134.285 531.801 145.129 530.778C145.499 530.741 145.87 530.703 146.24 530.665L146.904 530.598L146.906 530.598C149.498 530.335 151.869 530.094 152.614 529.975C153.526 529.866 201.976 529.646 260.319 529.5L260.932 529.499H260.933C368.175 529.208 369.145 529.206 382.264 527.821C400.848 525.849 412.933 523.074 435.752 515.589C464.047 506.315 476.023 503.504 495.446 501.569C507.714 500.327 513.775 500.254 607.241 500.254H701V498.502V496.712L691.215 496.493C672.631 496.055 657.078 494.157 641.488 490.359C633.602 488.461 629.367 487.183 613.375 481.998C606.036 479.588 597.712 476.959 594.828 476.156C580.406 472.03 566.131 469.584 547.291 468.05C543.494 467.758 512.387 467.576 436.299 467.393C340.861 467.174 329.981 467.101 324.395 466.553C310.667 465.166 301.43 463.705 290.988 461.15C283.138 459.251 278.867 457.973 263.423 452.971C245.204 447.019 238.961 445.267 225.452 442.455C223.188 441.981 241.407 441.908 384.455 441.981C533.417 442.054 546.488 442.09 552.037 442.674C575.587 445.084 586.321 447.494 614.58 456.768C629.184 461.551 635.646 463.413 644.372 465.385C658.904 468.598 673.289 470.205 693.771 470.898L701 471.117V469.328V467.503L691.252 467.284C672.631 466.845 657.041 464.91 641.561 461.186C633.565 459.251 629.732 458.119 616.844 453.884C596.763 447.311 590.446 445.486 579.092 443.112L573.396 441.908L637.18 441.871L701 441.835V440.009V438.183L549.555 438.147C452.181 438.11 398.73 437.964 399.789 437.745C414.357 434.678 420.162 433.072 435.204 428.142C441.52 426.061 449.078 423.615 451.999 422.739C469.853 417.189 486.939 414.195 507.312 412.99C511.146 412.771 549.153 412.625 607.241 412.625H701V410.799V408.974H610.71C521.04 408.974 510.781 409.083 497.637 410.251C477.739 412.041 464.559 414.962 439.804 423.067C411.144 432.487 400.118 434.97 376.605 437.344C370.836 437.928 358.532 437.964 208.84 438.074L47.281 438.147L53.1227 436.942C64.3314 434.569 69.5158 433.108 87.0773 427.376C114.679 418.321 125.778 415.801 148.962 413.465C154.366 412.917 165.867 412.844 260.684 412.625C335.604 412.442 367.879 412.26 371.493 411.968C388.507 410.544 400.118 408.791 412.02 405.833C419.614 403.935 423.667 402.73 435.752 398.75C463.901 389.513 476.059 386.628 495.446 384.729C507.75 383.488 513.811 383.415 607.241 383.415H701V381.662V379.873L691.215 379.654C669.455 379.107 651.528 376.551 632.945 371.329C630.17 370.526 622.138 368.007 615.055 365.67C586.065 356.14 573.907 353.512 549.482 351.394C543.092 350.846 531.3 350.773 436.665 350.554C360.869 350.371 329.726 350.189 326.586 349.897C302.27 347.523 290.805 345.077 266.343 337.044C246.518 330.545 239.034 328.391 228.008 326.127L222.896 325.068L384.455 325.141C533.819 325.215 546.488 325.251 552.22 325.835C574.491 328.062 587.051 330.874 613.375 339.527C620.714 341.937 628.417 344.42 630.535 345.004C644.19 348.947 658.356 351.576 673.106 352.927C678.473 353.402 694.574 354.169 699.43 354.205H701V352.453V350.664L691.398 350.444C677.56 350.079 667.739 349.203 655.91 347.231C643.167 345.114 634.405 342.813 615.018 336.46C596.361 330.326 588.84 328.245 575.039 325.397C574.017 325.215 597.201 325.068 637.18 325.032L701 324.995V323.17V321.344L549.372 321.308H397.781L403.623 320.066C414.795 317.766 419.906 316.306 437.577 310.5C464.887 301.555 476.68 298.889 499.28 296.625C504.939 296.078 514.395 296.005 603.225 295.895L701 295.749V293.924V292.098L605.051 292.244C518.667 292.354 508.444 292.427 502.018 292.974C488.655 294.143 478.798 295.567 468.867 297.83C459.338 299.985 456.234 300.897 437.577 306.922C422.206 311.924 417.898 313.202 410.012 315.101C399.606 317.62 390.515 319.08 376.605 320.504C370.873 321.089 358.496 321.125 208.84 321.235L47.281 321.308L53.1227 320.103C64.1123 317.803 69.7349 316.196 85.2518 311.121C110.334 302.869 120.192 300.35 135.819 298.195C136.666 298.077 137.451 297.965 138.193 297.859C139.808 297.629 141.22 297.428 142.635 297.251C152.52 296.018 162.556 295.997 242.697 295.824C248.283 295.812 254.21 295.8 260.502 295.786C335.567 295.603 367.55 295.421 371.311 295.128C388.544 293.741 399.972 291.988 412.75 288.812C419.541 287.096 423.813 285.818 437.577 281.29C464.887 272.345 476.68 269.679 499.28 267.416C504.939 266.868 514.395 266.795 603.225 266.685L701 266.539V264.75V262.925H695.377C681.175 262.925 663.358 261.209 649.776 258.507C639.078 256.389 632.835 254.673 615.018 248.831C589.388 240.397 577.449 237.549 559.34 235.54L558.817 235.483C557.167 235.301 555.715 235.141 554.261 235C543.577 233.962 532.795 233.934 442.805 233.696L436.299 233.678C377.956 233.532 329.397 233.313 328.411 233.204C327.665 233.097 325.635 232.893 323.344 232.663L323.32 232.661C322.479 232.576 321.604 232.488 320.744 232.4C309.973 231.378 300.992 229.881 291.061 227.508C282.956 225.536 279.341 224.477 264.518 219.585C245.788 213.451 238.669 211.479 224.539 208.558C221.91 208.01 544.881 208.266 550.395 208.814C574.893 211.26 586.065 213.706 613.411 222.725C620.129 224.915 627.906 227.398 630.717 228.202C649.557 233.642 666.206 236.125 689.134 237.001C691.131 237.068 693.057 237.136 694.721 237.194L694.733 237.195L694.739 237.195C697.568 237.294 699.633 237.366 699.978 237.366C700.964 237.366 701 237.293 701 235.54V233.715H695.377C681.175 233.715 663.358 231.999 649.776 229.297C639.115 227.216 633.018 225.5 615.018 219.585C596.215 213.451 588.767 211.369 575.039 208.558C574.017 208.375 597.201 208.229 637.18 208.193L701 208.156V206.331V204.505L549.372 204.469H397.781L403.623 203.227C414.576 200.963 420.235 199.393 435.752 194.282C460.907 185.993 470.802 183.474 486.319 181.356L486.669 181.309C489.204 180.964 491.369 180.669 493.538 180.417C506.22 178.947 519.073 178.947 607.059 178.947H701V177.121V175.259L604.868 175.405L598.673 175.414C518.339 175.531 507.895 175.546 497.546 176.546C495.999 176.695 494.455 176.866 492.679 177.063L492.16 177.121C473.905 179.166 462.441 181.904 435.861 190.594C409.683 199.174 399.57 201.365 374.414 203.848C371.128 204.176 330.127 204.286 208.657 204.359L47.281 204.469L53.1227 203.264C63.8567 201 70.5746 199.101 87.4424 193.551C113.292 185.044 125.523 182.196 144.764 180.261C157.031 179.02 162.69 178.947 258.019 178.947C312.967 178.947 357.181 178.8 362.548 178.581C385.148 177.705 402.345 175.113 420.965 169.782C423.083 169.161 429.728 167.044 435.752 165.072C460.907 156.784 470.802 154.264 486.319 152.147L486.669 152.099C489.204 151.754 491.369 151.459 493.538 151.208C506.22 149.737 519.073 149.737 607.059 149.737H701V147.911V146.086H695.377C681.175 146.086 663.358 144.369 649.776 141.668C639.078 139.55 632.945 137.834 615.018 131.955C589.278 123.521 577.558 120.746 559.157 118.701L558.723 118.653C557.101 118.472 555.671 118.312 554.239 118.17C543.632 117.124 532.924 117.095 442.905 116.857L436.299 116.839C377.956 116.693 329.397 116.474 328.411 116.365C327.665 116.258 325.635 116.054 323.344 115.824L323.32 115.822C322.479 115.737 321.604 115.649 320.744 115.561C309.973 114.539 300.992 113.042 291.061 110.669C283.065 108.734 279.451 107.675 264.518 102.746C245.715 96.575 238.632 94.6398 224.539 91.7188C223.517 91.4998 284.088 91.4267 384.637 91.4632C534.147 91.5363 546.817 91.5728 552.403 92.157C575.441 94.5303 586.467 97.0131 612.937 105.703C635.792 113.225 645.687 115.707 661.569 117.935C670.733 119.213 689.317 120.49 699.613 120.527H701V118.701V116.876H695.596C685.301 116.876 671.573 115.853 660.473 114.283C646.965 112.385 635.537 109.5 615.748 103.001C599.245 97.5973 590.739 95.1145 581.94 93.2158C578.252 92.3761 574.82 91.6458 574.309 91.5728C573.798 91.4998 602.093 91.3902 637.18 91.3537L701 91.3172V89.4916V87.6659L549.372 87.6294H397.781L403.623 86.388C414.357 84.1608 420.929 82.2986 438.49 76.5297C465.143 67.7668 476.278 65.284 499.097 62.9472C504.574 62.3995 514.213 62.3265 603.079 62.2169L701 62.0709V60.2453V58.4197L604.868 58.5657L598.686 58.5747C518.375 58.6917 507.93 58.7069 497.58 59.7041C496.032 59.8533 494.486 60.0244 492.709 60.221L492.16 60.2818C474.051 62.2899 462.222 65.1014 436.482 73.5722C429.435 75.8725 421.987 78.2458 419.87 78.8665C403.294 83.6131 387.229 86.242 368.025 87.3008C363.644 87.5199 306.03 87.6659 204.276 87.6294H47.281L53.1227 86.388C63.8932 84.1608 70.4651 82.2986 87.9901 76.5297C114.679 67.7668 125.851 65.2474 148.597 62.9472C154.001 62.3995 165.538 62.3265 260.867 62.0709C319.284 61.9248 367.696 61.7057 368.39 61.5962C369.084 61.4867 372.297 61.2311 375.51 61.012C390.442 59.9897 405.558 57.2878 420.198 53.0889C423.338 52.2126 431.626 49.5837 438.636 47.2834C464.997 38.63 476.278 36.0742 499.097 33.7374C504.574 33.1897 514.176 33.1167 603.079 33.0071L701 32.8611V31.072V29.2464H695.596C685.301 29.2464 671.573 28.224 660.473 26.654C646.965 24.7554 635.537 21.8709 615.748 15.3717C588.986 6.57229 577.777 3.9069 559.157 1.86221L558.456 1.78476C556.853 1.60764 555.44 1.45147 554.025 1.31331C543.472 0.283037 532.822 0.254873 442.75 0.0166786L436.482 9.11543e-05C436.47 6.07727e-05 436.458 3.03879e-05 436.446 0H304.152C311.855 1.28439 320.064 2.21999 329.872 3.03061C333.486 3.3227 365.798 3.50526 440.681 3.68783C535.717 3.9069 546.999 3.97992 552.403 4.52761C575.222 6.86439 586.394 9.34722 613.01 18.1102C630.863 23.9886 638.056 25.9603 652.076 28.8447C654.449 29.3194 341.774 29.3559 332.975 28.8813C313.807 27.8224 297.596 25.1935 281.13 20.4104C279.013 19.8262 271.528 17.4164 264.518 15.1162C235.346 5.54995 223.845 3.06712 197.339 0.693823C193.943 0.401725 165.538 0.255677 96.278 0.14614L0 9.11543e-05V1.8257V3.65131L97.9209 3.79736C186.824 3.9069 196.426 3.97992 201.903 4.52761C224.831 6.9009 235.93 9.38373 262.437 18.0736C280.144 23.9156 286.753 25.7777 297.377 27.9685L303.219 29.1734L151.591 29.2099L0 29.2464V31.072V32.8976L63.7837 32.9341C103.799 32.9706 126.983 33.1167 125.961 33.2992C112.233 36.1107 104.785 38.1919 85.982 44.3259C67.9824 50.2409 61.8852 51.957 51.2241 54.0382C37.6057 56.7401 19.7521 58.4562 5.36703 58.4562H0V60.2818C0 61.9248 0.0730208 62.1074 0.803229 62.1074C12.9977 61.9613 30.1576 60.7929 39.4313 59.515C55.2768 57.2878 65.2806 54.8049 87.9901 47.3199C114.679 38.557 125.559 36.1107 148.597 33.7374C154.183 33.1532 166.853 33.1167 316.363 33.0437C416.912 33.0071 477.483 33.0802 476.461 33.2992C462.331 36.2202 455.212 38.1919 436.482 44.3259C421.659 49.2186 418.044 50.2774 409.939 52.2491C400.008 54.6224 391.027 56.1194 380.256 57.1417C379.357 57.2337 378.438 57.3256 377.559 57.4136L377.558 57.4137C375.296 57.64 373.299 57.8398 372.589 57.945C371.566 58.0545 323.044 58.2736 264.701 58.4197C188.54 58.6387 157.214 58.8213 153.526 59.1134C127.567 61.3041 115.263 63.933 85.982 73.5357C68.1649 79.4142 61.9217 81.1303 51.2241 83.248C37.6057 85.9499 19.7521 87.6659 5.36703 87.6659H0V89.4916V91.2807L97.9209 91.4267C186.824 91.5363 196.426 91.6093 201.903 92.157C224.868 94.5303 235.857 96.9766 262.51 105.74C276.931 110.486 284.124 112.604 292.12 114.466C302.306 116.839 314.209 118.628 324.943 119.395C327.864 119.614 331.04 119.87 332.062 120.016C333.048 120.125 381.68 120.344 440.133 120.49C535.425 120.746 546.999 120.819 552.403 121.367C575.039 123.667 586.576 126.259 613.01 134.949C630.717 140.791 640.137 143.384 651.893 145.647C654.486 146.159 341.482 146.195 332.756 145.72C313.478 144.625 297.633 142.033 281.13 137.286C279.013 136.665 271.528 134.292 264.518 131.955C235.31 122.389 223.225 119.797 197.156 117.569C193.615 117.241 165.027 117.095 96.0954 116.985L0 116.839V118.665V120.49L97.9209 120.637C186.787 120.746 196.426 120.819 201.903 121.367C224.831 123.74 235.821 126.186 262.51 134.949C280.035 140.718 286.607 142.58 297.377 144.808L303.219 146.049H151.591L0 146.086V147.911V149.737L63.7837 149.773C103.799 149.81 126.983 149.956 125.961 150.138C112.197 152.986 104.675 155.031 85.982 161.165C68.1649 167.044 61.9217 168.76 51.2241 170.877C37.6057 173.579 19.7521 175.295 5.36703 175.295H0V177.121V178.947H1.35089C6.20677 178.91 22.3809 178.143 27.7479 177.669C47.6461 175.916 61.7391 172.776 86.3836 164.707C114.825 155.36 126.545 152.731 150.423 150.394C156.119 149.846 479.126 149.591 476.461 150.138C462.368 153.059 455.321 154.995 436.482 161.202C421.622 166.058 418.008 167.117 409.939 169.088C400.008 171.462 391.027 172.959 380.256 173.981C379.358 174.073 378.439 174.165 377.561 174.253C375.297 174.479 373.299 174.679 372.589 174.784C371.566 174.894 323.044 175.113 264.701 175.259L258.159 175.276C168.164 175.514 157.386 175.543 146.706 176.583C145.252 176.724 143.8 176.885 142.151 177.067L141.66 177.121C123.551 179.129 111.758 181.941 85.982 190.411C68.0919 196.253 61.8852 198.006 51.2241 200.087C37.6422 202.789 19.8252 204.505 5.6226 204.505H0V206.331V208.12L97.9209 208.266C167.108 208.375 197.047 208.521 199.895 208.814C225.087 211.406 235.2 213.633 261.962 222.396C276.931 227.325 284.088 229.443 292.12 231.305C302.306 233.678 314.209 235.467 324.943 236.234C327.864 236.453 331.04 236.709 332.062 236.855C333.048 236.964 381.68 237.184 440.133 237.33C513.081 237.549 547.62 237.768 550.395 238.023C575.404 240.543 585.919 242.879 613.411 251.934C630.425 257.521 637.143 259.419 647.877 261.647L653.719 262.888H496.505C392.998 262.925 337.028 262.779 332.756 262.56C316.728 261.61 304.241 259.858 291.061 256.718C282.992 254.746 279.378 253.687 264.518 248.831C238.778 240.36 226.949 237.549 208.84 235.54L208.322 235.483C206.547 235.286 205.002 235.115 203.456 234.965C193.106 233.966 182.66 233.95 102.295 233.833L96.0954 233.824L0 233.678V235.54V237.366H93.8318C187.846 237.366 193.469 237.439 205.736 238.681C224.831 240.616 237.062 243.427 262.364 251.752C280.035 257.557 286.57 259.419 297.377 261.647L303.219 262.888H151.591L0 262.925V264.75V266.576L63.7837 266.612L127.604 266.649L122.675 267.671C111.539 269.972 104.018 272.126 84.1565 278.625C66.7775 284.357 57.4674 286.767 45.0904 288.812C33.261 290.783 23.4397 291.66 9.56573 292.025L0 292.244V294.033V295.786H1.53344C12.377 295.749 30.3402 294.471 40.5266 293.011C55.934 290.82 65.0616 288.52 87.0773 281.29C110.736 273.55 121.251 270.921 137.097 268.767C138.089 268.634 138.968 268.51 139.788 268.394C140.701 268.265 141.54 268.147 142.381 268.038C152.077 266.782 161.935 266.778 285.498 266.734C295.137 266.73 305.468 266.727 316.545 266.722L478.104 266.649L472.445 267.817C461.2 270.227 456.563 271.542 436.993 277.895C409.318 286.913 399.387 289.031 374.414 291.477C371.274 291.769 340.204 291.952 264.335 292.134C169.591 292.354 157.908 292.427 151.518 292.974C133.701 294.508 120.229 296.881 106.172 300.897C103.288 301.701 94.9636 304.33 87.625 306.739C71.6334 311.924 67.3982 313.202 59.512 315.101C43.922 318.861 28.4781 320.76 9.74828 321.235L0 321.454V323.206V324.959L97.7384 325.105C101.138 325.108 104.422 325.112 107.596 325.115C187.527 325.196 197.358 325.206 207.055 326.353C208.414 326.514 209.771 326.697 211.318 326.906C211.974 326.995 212.664 327.088 213.403 327.186C229.285 329.34 239.8 331.969 263.569 339.783C270.688 342.12 278.721 344.639 281.459 345.406C295.479 349.386 310.448 352.014 325.125 353.11C328.119 353.329 331.259 353.585 332.062 353.694C332.865 353.804 381.315 354.023 439.768 354.169C446.016 354.184 451.906 354.199 457.463 354.212C538.444 354.411 548.508 354.436 558.419 355.676C559.826 355.852 561.229 356.053 562.832 356.282C563.567 356.387 564.344 356.498 565.181 356.615C579.822 358.623 591.615 361.581 612.827 368.555C630.498 374.396 637.034 376.222 647.877 378.522L653.719 379.727L492.16 379.654C342.504 379.545 330.127 379.508 324.395 378.924C310.485 377.5 301.393 376.04 290.988 373.52C283.102 371.622 278.867 370.344 262.875 365.159C255.536 362.749 247.212 360.12 244.328 359.317C230.271 355.301 216.835 352.964 198.982 351.394C192.556 350.846 182.26 350.773 95.9129 350.664L0 350.517V352.343V354.169L97.7384 354.315C102.355 354.319 106.76 354.324 110.964 354.328C187.561 354.403 197.609 354.413 207.508 355.63C209.003 355.813 210.495 356.025 212.212 356.268C212.983 356.377 213.799 356.493 214.681 356.615C230.308 358.769 240.166 361.289 265.248 369.54C280.765 374.652 286.424 376.222 297.377 378.486L303.219 379.727H151.591L0 379.764V381.589V383.415L63.7837 383.452C120.776 383.488 127.348 383.561 125.048 384.036C111.795 386.811 105.369 388.563 87.0773 394.551C71.6334 399.553 67.3617 400.831 59.512 402.73C43.922 406.527 28.3686 408.426 9.74828 408.864L0 409.083V410.872V412.698L7.19255 412.442C32.1657 411.675 48.7779 409.412 67.7633 404.19C70.7572 403.387 79.1911 400.722 86.5297 398.312C114.752 389.074 125.377 386.665 148.962 384.255C154.512 383.671 167.583 383.634 316.545 383.561C454.993 383.488 477.775 383.561 475.731 383.999C461.857 386.957 456.344 388.454 440.9 393.492C410.742 403.351 400.081 405.797 376.605 408.134C371.019 408.681 359.92 408.754 264.153 409.01C205.7 409.156 157.25 409.375 156.447 409.485C155.644 409.594 152.504 409.85 149.51 410.069C135.344 411.091 120.594 413.684 106.866 417.554C103.726 418.467 95.0731 421.169 87.698 423.542C71.7065 428.763 67.4347 430.041 59.512 431.94C43.922 435.737 28.3686 437.636 9.74828 438.074L0 438.293V440.045V441.798L97.7384 441.944C186.203 442.054 196.097 442.127 201.537 442.674C225.014 445.084 235.821 447.494 264.08 456.768C287.629 464.509 299.312 467.211 317.458 469.219L317.825 469.259C319.489 469.444 320.952 469.606 322.418 469.749C333.122 470.795 343.925 470.82 433.574 471.029L440.316 471.044C535.17 471.263 546.634 471.336 552.037 471.884C575.331 474.257 586.321 476.704 614.58 485.978C631.74 491.601 636.377 492.879 651.711 496.165C652.77 496.42 596.507 496.493 491.978 496.457C342.395 496.384 330.164 496.347 324.395 495.763C310.448 494.339 301.393 492.879 290.988 490.359C283.138 488.461 278.903 487.219 262.875 481.998C240.129 474.586 231.111 472.322 216.032 470.132C197.594 467.503 193.104 467.393 90.2537 467.393H0V469.219V471.008L97.7384 471.154C186.203 471.263 196.097 471.336 201.537 471.884C225.014 474.294 235.821 476.704 264.08 485.978C281.167 491.601 286.388 493.025 301.211 496.165C302.27 496.384 248.818 496.53 151.409 496.566L0 496.603V498.428V500.254L63.7837 500.291L127.604 500.327L121.945 501.532C110.992 503.869 105.515 505.402 89.268 510.733C63.9662 518.985 53.1227 521.687 36.3279 523.805C26.6161 525.009 20.6284 525.448 9.56573 525.703L0 525.922V527.748V529.537L7.3751 529.318C25.5938 528.697 37.2771 527.565 50.5669 525.046C61.4105 523.001 69.0777 520.92 85.2518 515.589C91.276 513.618 98.5781 511.244 101.499 510.368C119.389 504.818 136.439 501.824 156.812 500.619C160.792 500.4 219.501 500.254 320.561 500.291L478.104 500.327L472.445 501.532C461.565 503.832 455.869 505.439 440.498 510.478C414.101 519.131 403.951 521.65 386.645 523.805C386.198 523.86 385.767 523.914 385.351 523.966C383.924 524.144 382.657 524.303 381.387 524.444C371.263 525.57 361.018 525.597 269.097 525.836L264.153 525.849C205.7 525.995 156.995 526.214 155.899 526.36C155.325 526.418 153.987 526.536 152.323 526.682L152.3 526.684C150.796 526.816 149.029 526.972 147.32 527.127C135.636 528.113 124.537 529.902 113.73 532.604C106.209 534.503 102.266 535.671 88.7203 540.089C63.8567 548.268 53.0861 550.897 36.3279 553.014C26.6161 554.219 20.6284 554.657 9.56573 554.913L0 555.132V556.921V558.674H93.7222C151.336 558.674 189.818 558.82 193.505 559.039C214.316 560.28 231.038 563.238 249.001 568.788C251.922 569.664 259.224 572.037 265.248 574.009C287.958 581.457 300.116 584.232 318.736 586.24C331.858 587.626 332.789 587.628 439.614 587.882H439.619L440.133 587.883C516.221 588.066 546.853 588.249 550.029 588.541C563.83 589.892 572.995 591.279 582.889 593.506C590.775 595.295 598.223 597.486 613.521 602.488C631.667 608.44 636.632 609.827 647.877 612.201L653.719 613.406L492.16 613.296C368.865 613.223 329.507 613.113 326.038 612.785C301.832 610.411 290.185 607.819 261.232 598.362C240.458 591.535 229.687 588.869 215.046 586.825C197.193 584.342 191.643 584.232 89.7061 584.232H0V586.058V587.883H93.7222C151.336 587.883 189.818 588.029 193.505 588.249C214.316 589.49 231.038 592.448 249.001 597.997C251.922 598.874 259.224 601.247 265.248 603.219C280.692 608.294 286.424 609.9 297.377 612.164L303.219 613.406H151.591L0 613.442V615.268V617.093L63.7837 617.13L127.604 617.166L121.945 618.371C111.065 620.671 105.369 622.278 89.9982 627.317C69.6984 633.962 61.2645 636.335 50.5669 638.416C37.0581 641.009 19.8252 642.652 5.80516 642.652H0V644.514V646.376L7.55766 646.157C29.829 645.427 45.2729 643.528 61.5201 639.512C69.0047 637.65 73.0573 636.445 85.2518 632.428C113.766 623.081 125.267 620.379 145.129 618.408C157.762 617.13 162.362 617.093 320.634 617.13L478.104 617.166L472.445 618.371C461.492 620.708 455.906 622.278 439.951 627.499C410.085 637.284 399.826 639.585 374.779 641.995C371.64 642.287 340.168 642.469 264.701 642.652C188.759 642.834 157.579 643.017 153.891 643.309C128.188 645.5 115.957 648.019 89.9982 656.526C69.6619 663.208 61.1915 665.581 50.5669 667.626C37.0216 670.219 19.8617 671.862 6.02422 671.862H0V673.687V675.476L97.5558 675.622L108.301 675.637ZM654.447 0C666.176 2.0308 678.263 3.00404 694.173 3.5053L701 3.72437V1.93527V0.146174L694.593 0H654.447Z" fill="#AC007F"/>
</svg>
