<svg width="640" height="641" viewBox="0 0 640 641" fill="none" xmlns="http://www.w3.org/2000/svg">
<g opacity="0.1">
<path d="M18.7826 16.6956C29.3043 27.4782 36.087 35.0434 37.5652 37.826C40.7826 43.913 41.7391 52.4347 41.7391 74.6086V93.3912L45.3043 89.9999L48.7826 86.5217L48.5217 60.8695C48.2609 37.5651 48.087 34.8695 46.6087 31.7391C45.6522 29.826 38.6087 21.913 30.9565 14.0869L17.0435 -7.62939e-05H9.65217H2.26087L18.7826 16.6956Z" fill="#FFD819"/>
<path d="M42.2609 10.6087C48 16.5217 53.5652 22.6956 54.6087 24.4348C58.3478 30.5217 59.1304 36.4348 59.1304 56.8696V76L62.6957 72.6087L66.1739 69.1304L65.913 45.6522C65.5652 18 66.2609 20 54.5217 7.99999L46.6087 -7.62939e-06H39.2174H31.913L42.2609 10.6087Z" fill="#FFD819"/>
<path d="M63.4783 2.17374C64.6087 3.39113 65.6522 4.34766 65.8261 4.34766C66 4.34766 66.087 3.39113 66.087 2.17374C66.087 0.434612 65.6522 -0.000170231 63.7391 -0.000170231H61.4783L63.4783 2.17374Z" fill="#FFD819"/>
<path d="M77.3044 24.9565C77.3044 38.7825 77.2174 51.6521 77.1304 53.7391C77.0435 55.7391 77.1304 57.3912 77.3913 57.3912C77.6522 57.3912 79.3913 55.913 81.1304 54.0869L84.3478 50.7825V25.3912V-6.86646e-05H80.8696H77.3913L77.3044 24.9565Z" fill="#FFD819"/>
<path d="M94.7826 20.1739V40.3478L97.3044 36.8695C100.957 31.826 101.739 28 101.739 13.2173V-4.95911e-05H98.2609H94.7826V20.1739Z" fill="#FFD819"/>
<path d="M112 16.2608C111.739 32.2608 111.652 32.6956 109.217 37.826C107.043 42.2608 100.957 48.7825 67.3044 82.6956C36 114.174 27.4783 123.13 25.913 126.609C24.087 130.609 23.913 132.261 23.6522 152.956L23.3043 174.956L26.6087 178.348C28.4348 180.174 30.1739 181.739 30.4348 181.739C30.6957 181.739 30.7826 176.609 30.6087 170.261C30.4348 164 30.6957 154.261 31.2174 148.609C32.6087 131.826 30.6957 134.435 76.1739 88.6086C107.565 57.1304 116 48.0869 117.565 44.6956C119.391 40.7825 119.565 38.8695 119.826 20.1738L120.174 -7.62939e-05H116.261H112.348L112 16.2608Z" fill="#FFD819"/>
<path d="M130.435 17.5652C130.435 37.7391 129.565 44.6956 126.261 50.8695C124.609 53.9999 112.87 66.4347 85.2174 94.3478C63.8261 115.826 45.4783 135.043 44.2609 136.956C42.1739 140.435 42.1739 140.609 41.913 166.956L41.6522 193.478L45.1304 196.956L48.6957 200.348V178.696C48.6957 154.87 49.3913 150 53.4783 142.956C54.9565 140.348 70.5217 123.913 94.3478 99.9999C115.478 78.6956 133.739 59.7391 134.87 57.826C136.957 54.3478 136.957 54.0869 137.217 27.1304L137.478 -6.10352e-05H134H130.435V17.5652Z" fill="#FFD819"/>
<path d="M183.739 27.5652C198.87 42.7826 212.087 56.3478 213.13 57.6522C214.174 59.0435 215.826 62.1739 216.87 64.6087C218.609 68.9565 218.696 70.5217 218.957 113.043L219.217 157.043L222.609 160.87L226.087 164.783V112.087V59.3043L223.739 54.8695C222 51.6522 214 43.0435 196.087 25.1304L170.957 -1.52588e-05H163.565H156.261L183.739 27.5652Z" fill="#FFD819"/>
<path d="M186.957 0.521622C186.957 0.782494 196.783 10.7825 208.696 22.7825C238.435 52.6086 237.304 49.9999 237.13 89.739L236.957 111.217L240.696 107.565L244.435 103.913L244.174 75.6521C243.913 48.1738 243.826 47.3042 241.913 43.3042C240.522 40.6086 233.565 32.8695 220.522 19.6521L201.13 -0.000114441H194.087C190.174 -0.000114441 186.957 0.26075 186.957 0.521622Z" fill="#FFD819"/>
<path d="M228.435 12.3477C250.348 34.6086 252.087 37.0434 253.826 46.4347C254.348 49.3043 254.783 61.0434 254.783 72.5217V93.3912L258.348 89.9999L261.826 86.5217L261.565 60.4347C261.304 35.6521 261.217 34.1738 259.391 30.8695C258.435 28.8695 251.565 21.2173 244.174 13.6521L230.87 -7.62939e-05H223.478H216.174L228.435 12.3477Z" fill="#FFD819"/>
<path d="M256 10.6086C263.13 18.1738 266.957 22.9564 268.957 26.9564L271.739 32.5216L272.174 54.1738L272.609 75.739L276.435 71.9129L280.174 67.9999L279.826 45.9999C279.478 19.6521 279.652 20.2608 268.087 7.99989L260.435 -0.000114441H253.217H245.913L256 10.6086Z" fill="#FFD819"/>
<path d="M277.13 2.17382C279.13 4.86947 280 4.86947 280 2.17382C280 0.434687 279.565 -9.58443e-05 277.826 -9.58443e-05C275.565 -9.58443e-05 275.565 -9.58443e-05 277.13 2.17382Z" fill="#FFD819"/>
<path d="M290.435 28.8694V57.739L293.913 54.3477L297.391 50.9564V25.4781V-0.00012207H293.913H290.435V28.8694Z" fill="#FFD819"/>
<path d="M307.826 19.6521C307.913 41.3043 308.174 42.0869 312.522 33.6521C314.87 28.9564 315.043 28.0869 315.478 14.3477L315.913 -8.7738e-05H311.826H307.826V19.6521Z" fill="#FFD819"/>
<path d="M326.087 11.4782C326.087 25.4782 325.043 32.6956 322 38.6086C320.348 41.9999 310.522 52.3478 280.87 82.1738C249.565 113.739 241.565 122.261 239.739 126L237.391 130.783V153.217V175.739L240.348 178.696C241.913 180.348 243.478 181.739 243.826 181.739C244.087 181.739 244.348 173.391 244.348 163.217C244.348 142.87 245.13 137.652 249.13 130.783C250.609 128.174 266.087 111.913 289.391 88.5217C310.174 67.6521 328.087 49.2173 329.304 47.5652C332.522 42.9565 333.043 39.4782 333.043 18.8695V-7.62939e-05H329.565H326.087V11.4782Z" fill="#FFD819"/>
<path d="M343.478 19.5651C343.478 41.3912 342.87 45.739 338.87 51.9999C337.304 54.4347 318.87 73.7391 297.826 94.9564C268.609 124.261 258.957 134.522 257.391 137.826C255.217 142.087 255.217 142.696 254.957 167.565L254.609 192.956L258.174 196.435L261.739 199.913V181.913C261.739 172 262.087 160.696 262.609 156.696C264.087 143.826 264.261 143.565 307.391 100.174C334.522 72.8695 346.348 60.4347 348.087 57.3043L350.435 52.8695V26.4347V-7.62939e-05H346.957H343.478V19.5651Z" fill="#FFD819"/>
<path d="M398.087 28.1739C432.261 62.6087 431.304 61.0435 432.261 81.3043C432.609 88.4348 432.957 108.609 432.957 126.087L433.043 157.913L436.609 161.304L440.087 164.783L439.826 112.174L439.565 59.5652L437.478 55.2174C435.913 52 428.696 44.1739 410.087 25.3913L384.957 -1.52588e-05H377.565H370.087L398.087 28.1739Z" fill="#FFD819"/>
<path d="M421.826 22.3478C445.826 46.6087 447.913 49.3913 449.565 59.6521C450.087 62.4347 450.435 75.3043 450.435 88.1739V111.565L454 108L457.478 104.435L457.217 75.4782C456.957 46.8695 456.957 46.4347 454.87 42.6087C453.652 40.2608 444.957 30.7826 433.652 19.3043L414.435 -4.57764e-05H407.13H399.739L421.826 22.3478Z" fill="#FFD819"/>
<path d="M444.957 15.8261C453.565 24.6087 461.652 33.3043 462.87 35.3043C467.217 42.2608 467.739 46.0869 467.913 70.5217C467.913 82.8695 468.174 93.0435 468.435 93.0435C468.783 93.0435 470.522 91.4782 472.435 89.5652L475.826 86L475.478 61.0435C475.13 38 474.957 35.7391 473.304 32C472 29.2174 467.13 23.5652 457.739 14L444.087 -2.28882e-05H436.696H429.217L444.957 15.8261Z" fill="#FFD819"/>
<path d="M469.304 10.6956C485.044 26.8696 486.087 29.8261 486.087 58.6957V76L489.652 72.6087L493.13 69.1304L492.87 46.087C492.522 18.7826 492.87 19.7391 481.044 7.56521L473.565 -7.62939e-06H466.261H458.87L469.304 10.6956Z" fill="#FFD819"/>
<path d="M490.435 2.17374C491.565 3.39113 492.609 4.34766 492.783 4.34766C492.957 4.34766 493.044 3.39113 493.044 2.17374C493.044 0.434612 492.609 -0.000170231 490.696 -0.000170231H488.435L490.435 2.17374Z" fill="#FFD819"/>
<path d="M503.478 28.6956C503.478 44.4347 503.739 57.3912 504 57.3912C504.348 57.3912 505.913 55.9999 507.478 54.3478L510.435 51.3912V25.6521V-6.86646e-05H506.957H503.478V28.6956Z" fill="#FFD819"/>
<path d="M521.739 19.6521C521.739 41.2173 522 41.913 526.261 33.2173C528.087 29.5651 528.261 27.6521 528.522 14.5217L528.87 -8.39233e-05H525.304H521.739V19.6521Z" fill="#FFD819"/>
<path d="M539.13 13.6521C539.13 28.7825 538.174 33.913 534.261 40.6956C532.87 43.1304 516 60.7826 492.522 84.3478C455.044 122.087 453.217 124.174 451.826 128.609C450.696 132.435 450.435 137.565 450.435 154.348V175.304L453.913 178.696L457.391 182.087V165.217C457.391 142.174 458.696 135.391 464.522 127.826C465.478 126.609 483.13 108.609 503.826 87.826C524.522 67.0434 542.348 48.4347 543.565 46.5217C545.565 43.1304 545.652 42.6086 545.913 21.4782L546.174 -6.10352e-05H542.696H539.13V13.6521Z" fill="#FFD819"/>
<path d="M557.391 14.9565C557.391 35.3913 556.348 44.2608 553.304 50.3478C551.391 54.3478 543.652 62.5217 511.565 94.7826C480.087 126.522 471.826 135.304 470.261 138.696C468.435 142.783 468.348 144.435 468 167.652L467.652 192.348L471.391 196.174L475.217 200.087L475.652 175.478L476.087 150.87L478.609 145.652C480.783 141.217 486.783 134.696 520.435 100.87C550.609 70.4347 560.174 60.2608 561.826 56.9565C563.826 52.6956 563.913 52.0869 564.174 26.2608L564.522 -6.10352e-05H560.957H557.391V14.9565Z" fill="#FFD819"/>
<path d="M611.304 28.4347L639.565 56.9564L639.826 49.5651L640.087 42.2608L618.957 21.1303L597.826 -0.000102997H590.435H583.13L611.304 28.4347Z" fill="#FFD819"/>
<path d="M626.087 13.4782L639.565 26.9564L639.826 19.826L640.087 12.6955L633.739 6.34772L627.478 -0.000102997H620H612.609L626.087 13.4782Z" fill="#FFD819"/>
<path d="M147.826 29.2173C147.826 41.5651 147.391 53.2173 147.043 54.9564C145.043 63.4781 143.304 65.4781 102.87 106.174C72.087 137.217 63.0435 146.782 61.5652 150.087C59.6522 154.174 59.5652 155.391 59.3044 182.609L59.0435 210.869L62.5217 214.348L66.087 217.739V196.956C66.087 185.478 66.5217 172.782 66.9565 168.782C68.4348 155.739 67.913 156.435 111.913 112.174C143.478 80.3477 151.565 71.739 153.13 68.2608C155.043 64.1738 155.13 62.5216 155.478 39.1303L155.826 14.3477L151.913 10.5216L147.913 6.69553L147.826 29.2173Z" fill="#FFD819"/>
<path d="M361.739 25.6521C361.739 44.6956 360.87 54.6086 358.957 59.5651C356.609 65.5651 350.957 71.826 314.261 108.696C286.783 136.348 275.391 148.348 274.435 150.869C273.217 153.652 272.87 159.13 272.435 182.174L272 210L275.217 213.652C276.957 215.739 278.696 217.391 279.13 217.391C279.565 217.391 280 205.13 280.174 190.174L280.435 163.043L282.696 158.261C285.652 152 288.261 149.13 329.304 108C354.348 82.7825 364.87 71.739 366.261 68.8695C368.174 64.9564 368.261 63.826 368.522 39.1303L368.783 13.4782L365.304 9.99991L361.739 6.60861V25.6521Z" fill="#FFD819"/>
<path d="M574.783 27.4782C574.783 50.3477 574.087 56.5217 570.609 63.0434C568.957 66.1738 556.87 78.8695 528.609 107.391C490.696 145.565 488.87 147.565 487.478 152.087C486.348 156 486.087 161.478 486.087 183.826L486.174 210.869L489.13 214.087C490.87 215.913 492.348 217.391 492.609 217.391C492.87 217.391 493.044 206.869 493.044 194.087C493.044 180.956 493.478 168.522 494 165.652C495.913 155.391 496.783 154.348 538.609 112.174C563.739 86.8695 578.522 71.3912 579.652 69.1304C581.13 65.9999 581.304 63.3043 581.565 39.5651L581.826 13.4782L578.348 9.99991L574.783 6.60861V27.4782Z" fill="#FFD819"/>
<path d="M0 19.9999V27.3912L7.3913 34.7825C22.9565 50.2608 23.4783 51.913 23.4783 86.4347V111.652L26.9565 108.261L30.5217 104.783L30.2609 75.2173C30 48.1738 29.8261 45.3912 28.3478 42.6086C27.4783 40.9564 20.6957 33.4782 13.3913 26.0869L0 12.6086V19.9999Z" fill="#FFD819"/>
<path d="M166.087 41.7391C166.087 51.0434 165.739 60.9565 165.217 63.7391C163.391 75.1304 163.217 75.3043 120.87 117.826C87.7391 151.043 81.4783 157.826 79.5652 161.913L77.3913 166.696V217.913C77.3913 246.087 77.3913 269.478 77.3913 270C77.3913 270.435 78.9565 269.217 80.8696 267.391L84.3478 264V222.174C84.3478 176.87 84.6087 174.174 89.1304 166.435C90.6087 163.826 106.696 146.956 130.87 122.609C168.522 84.7826 170.348 82.8695 171.652 78.3478C172.783 74.5217 173.043 69.3913 173.043 52.6086V31.6521L169.565 28.2608L166.087 24.8695V41.7391Z" fill="#FFD819"/>
<path d="M378.957 45.826C378.609 68.8695 378 71.6521 372.087 79.3043C370.522 81.3912 352.087 100.261 331.217 121.304C294.957 157.826 293.13 159.739 291.826 164.261C290.609 168.348 290.435 175.826 290.435 220.348V271.652L293.913 268.261L297.304 264.783L297.391 224.783C297.391 202.783 297.826 182.174 298.261 178.869C299.913 167.826 299.739 168 342.348 125.043C374.522 92.6086 382.174 84.4347 383.913 80.6956C386 76.1738 386.087 75.6521 386.087 53.3912V30.7825L383.217 27.9999C381.652 26.4347 380.087 25.2173 379.826 25.2173C379.478 25.2173 379.13 34.5217 378.957 45.826Z" fill="#FFD819"/>
<path d="M592.174 44.3478C592.174 65.826 591.478 70.1739 587.652 76.2608C586.087 78.5217 567.565 97.826 546.435 119.13C515.913 149.826 507.478 158.783 505.913 162.174L503.913 166.522L503.652 218.435C503.478 247.043 503.739 270.435 504.174 270.435C504.522 270.435 506.087 269.13 507.652 267.565L510.435 264.696V227.826C510.435 207.478 510.87 186.956 511.304 182.174C512.783 167.565 511.391 169.304 556.174 124.348C587.565 92.7826 596 83.826 597.565 80.4348C599.391 76.3478 599.565 74.6956 599.826 54L600.174 32L596.87 28.6087C595.043 26.7826 593.304 25.2174 592.957 25.2174C592.522 25.2174 592.261 33.826 592.174 44.3478Z" fill="#FFD819"/>
<path d="M0 50.0869C0 56.9565 0.26087 58.6087 2.08696 61.826C5.65217 68.0869 6.08696 74.3478 6.08696 117.391V157.913L9.56522 161.304L13.0435 164.696V113.391C13.0435 53.7391 13.3913 56.4347 5.21739 47.7391L0.0869565 42.1739L0 50.0869Z" fill="#FFD819"/>
<path d="M183.652 94.7826L183.913 147.391L186 151.739C187.652 155.043 197.043 165.043 226.348 194.522C247.391 215.652 265.739 234.696 267.13 236.696C271.565 243.478 272.174 247.13 272.174 268.87C272.174 279.739 272.435 288.696 272.783 288.696C273.13 288.696 274.87 287.043 276.783 285.043L280.174 281.391L279.826 259.217C279.478 238 279.391 236.783 277.478 233.043C276.087 230.435 262.522 216.087 236.522 190C191.739 144.956 192.609 146.087 191.304 130.783C190.87 126 190.522 105.739 190.435 85.6521V49.0434L186.87 45.6521L183.391 42.1739L183.652 94.7826Z" fill="#FFD819"/>
<path d="M397.391 42.6087C396.957 52.2608 397.391 145.565 397.826 147.391C398.261 148.783 399.043 151.13 399.826 152.609C400.522 154 418.174 172.435 439.043 193.478C460 214.522 478.348 233.652 480 236C484.87 243.217 485.478 246.174 485.913 268.522L486.261 288.87L489.739 285.478L493.13 282.174L492.87 259.13C492.609 237.13 492.522 235.913 490.696 232.435C489.478 230.261 473.391 213.391 450.783 190.696C430 169.739 411.739 150.956 410.348 148.956C404.696 140.87 404.87 142.174 404.522 93.3913L404.261 48.9565L400.87 45.6521C398.957 43.7391 397.391 42.4347 397.391 42.6087Z" fill="#FFD819"/>
<path d="M610.609 95.2174L610.87 148.261L612.957 152.174C614.087 154.348 620.609 161.739 627.478 168.696L640 181.304V174V166.696L632.348 158.783C628.087 154.435 623.478 148.87 622.087 146.522C617.913 139.304 617.478 134 617.391 89.5652V49.0434L613.913 45.6521L610.348 42.1739L610.609 95.2174Z" fill="#FFD819"/>
<path d="M201.913 98.6957L202.174 136.957L204.609 141.043C205.913 143.304 207.391 145.391 207.913 145.652C208.522 146.087 208.696 134.609 208.522 108.522C208.261 68 208.261 68.3478 203.565 62.6087L201.739 60.4348L201.913 98.6957Z" fill="#FFD819"/>
<path d="M414.957 98.3478C415.217 138.957 415.217 138.609 419.913 144.348L421.739 146.522L421.565 108.261C421.304 70.8695 421.304 69.913 419.391 66.4348C418.348 64.5217 416.87 62.4348 416.087 61.7391C414.783 60.6956 414.696 63.4782 414.957 98.3478Z" fill="#FFD819"/>
<path d="M628 97.5652C628.261 122.087 628.696 135.304 629.391 137.304C630.522 140.696 634 146.087 635.044 146.087C636.174 146.087 635.217 73.1304 634.087 69.6521C632.957 66.2608 629.478 60.8695 628.435 60.8695C628 60.8695 627.826 77.3913 628 97.5652Z" fill="#FFD819"/>
<path d="M169.304 98.9565L166 102.348L166.261 131.391C166.522 160.087 166.522 160.522 168.609 164.348C169.913 166.87 184.522 182.261 210 207.826C251.478 249.652 252.087 250.348 253.913 260.174C254.435 262.609 254.783 273.913 254.783 285.304C254.783 296.783 255.13 306.087 255.478 306.087C255.826 306.087 257.391 304.696 258.957 303.043L261.826 300L261.565 273.739C261.304 249.913 261.13 247.13 259.652 244.348C258.783 242.696 240.522 223.652 219.217 202.174C197.826 180.609 179.478 161.652 178.435 159.913C173.826 152.348 173.652 150.783 173.13 122.348L172.609 95.5652L169.304 98.9565Z" fill="#FFD819"/>
<path d="M382.348 99.6521L379.043 103.391L379.304 131.478C379.565 159.565 379.565 159.565 381.739 163.652C383.217 166.348 396.696 180.609 422.609 206.696C462.522 246.87 464.957 249.652 466.87 258.348C467.391 260.435 467.826 272.087 467.913 284.174C467.913 296.174 468.261 306.087 468.609 306.087C468.957 306.087 470.696 304.609 472.435 302.783L475.652 299.478V279.565C475.565 257.043 474.87 248.783 472.609 244C471.565 241.913 456.348 225.913 432 201.391C387.913 157.217 388.348 157.739 386.957 144.261C386.609 140.261 386.174 127.739 386.174 116.522C386.087 105.304 385.913 96.0869 385.826 96.0869C385.739 95.9999 384.174 97.6521 382.348 99.6521Z" fill="#FFD819"/>
<path d="M595.739 99.4782L591.913 103.391L592.435 131.217C592.87 156.956 593.044 159.391 594.783 163.217C596.174 166.348 601.826 172.609 618.261 189.13L640 210.87V203.478V196.087L625.217 181.304C617.044 173.13 608.783 164.522 606.957 162.087C600.696 154.087 600.609 153.217 600 122.783L599.565 95.5651L595.739 99.4782Z" fill="#FFD819"/>
<path d="M151.043 117.391L147.826 120.956V141.13C147.913 164.261 148.696 172.783 151.478 177.304C152.522 179.043 170.783 198 192.174 219.565C235.478 263.217 235.217 262.783 236.435 275.391C236.87 279.13 237.217 290.609 237.217 300.87C237.304 311.13 237.391 320.696 237.391 322.174L237.478 324.783L240.957 321.043L244.435 317.304L244.174 288.87C243.913 260.957 243.913 260.348 241.826 256.522C240.522 253.913 226.348 239.13 200.783 213.391C164.783 177.217 161.565 173.739 158.957 168.174L156.087 162.174L155.826 138C155.652 124.783 155.217 113.913 154.87 113.913C154.522 113.913 152.783 115.478 151.043 117.391Z" fill="#FFD819"/>
<path d="M364.957 117.217L361.652 120.609L361.913 146.609L362.174 172.609L364.609 176.783C366.087 179.217 382.348 196.261 404.522 218.522C425.13 239.217 443.13 257.739 444.522 259.739C449.652 267.304 449.826 268.435 450.261 297.739L450.609 324.522L454 321.217L457.478 317.826L457.217 288.696L456.957 259.565L454.522 255.391C453.043 252.87 436.957 236.087 414.609 213.652C394 192.957 376.087 174.435 374.609 172.435C369.565 165.043 369.304 163.304 368.783 137.565L368.261 113.826L364.957 117.217Z" fill="#FFD819"/>
<path d="M578 117.217L574.609 120.609L574.957 146.174L575.217 171.739L577.652 176.174C579.304 179.13 589.826 190.261 610.087 210.522L640 240.435V233.043V225.652L616.435 202.174C603.478 189.217 591.13 176.435 589.043 173.652C583.043 165.565 582.435 162.87 581.826 136.696L581.304 113.826L578 117.217Z" fill="#FFD819"/>
<path d="M133.652 134.609L130.348 138L130.609 160.956C130.87 183.13 130.957 184 132.957 187.826C134.261 190.348 148.435 205.304 174 230.87C210.087 267.13 213.217 270.522 215.826 276.087L218.696 282.174L218.957 326.609L219.217 371.043L222.696 374.435L226.174 377.826L225.913 324.348C225.652 274 225.565 270.696 224 267.826C223.13 266.174 204.87 247.13 183.565 225.652C162.174 204.087 143.826 185.13 142.783 183.391C138.522 176.261 138.087 173.652 137.478 151.913L136.957 131.217L133.652 134.609Z" fill="#FFD819"/>
<path d="M560.609 134.609L557.304 138V159.478C557.391 181.304 557.826 185.478 560.696 189.826C561.652 191.13 579.826 209.826 601.13 231.217L640 270.174V262.696V255.217L606.435 221.739C588 203.304 571.739 186.609 570.348 184.609C565.304 177.391 564.957 175.304 564.435 152.348L563.913 131.217L560.609 134.609Z" fill="#FFD819"/>
<path d="M346.609 135.565L343.304 138.956L343.652 160.956C343.913 182.348 344 183.217 346.087 187.391C347.652 190.696 357.304 200.956 386.522 230.261C407.565 251.478 425.826 270.435 427.217 272.348C432.174 279.739 432.261 280.956 432.783 328.261L433.217 371.739L436.261 374.522C437.913 376.087 439.391 377.391 439.652 377.391C439.913 377.391 440 353.826 439.826 324.956L439.565 272.609L437.391 268.522C435.913 265.652 422.87 252 396.435 225.478C350.87 179.739 352.522 181.913 351.13 164.348C350.696 158.522 350.435 148.869 350.609 142.956C350.783 137.043 350.696 132.174 350.435 132.174C350.174 132.174 348.435 133.739 346.609 135.565Z" fill="#FFD819"/>
<path d="M115.652 152.696L112.609 155.739L112.174 200.696L111.739 245.652L109.304 250.783C107.217 255.304 101.652 261.304 67.4783 295.565C37.3043 326 27.6522 336.261 26 339.565C24 343.739 23.913 344.696 23.6522 366L23.3043 388L26.6087 391.391C28.4348 393.217 30.1739 394.783 30.4348 394.783C30.6957 394.783 30.7826 389.913 30.6087 383.913C30.4348 378 30.6957 368.348 31.1304 362.609C32.5217 345.043 30.8696 347.217 76.6087 301.217C107.391 270.348 116 261.217 117.565 257.739L119.565 253.478L119.826 201.478C120 172.956 119.739 149.565 119.391 149.565C119.043 149.565 117.304 150.956 115.652 152.696Z" fill="#FFD819"/>
<path d="M329.391 152.783L326.087 156.174V196.957C326.087 241.565 325.652 245.826 321.217 253.652C319.739 256.174 303.652 273.043 279.913 296.957C258.609 318.435 240.435 337.391 239.565 339.043C237.565 342.957 236.783 353.565 237.13 372.957L237.304 388.957L240.609 392.348L243.913 395.739L244.435 374.609C244.957 352.087 245.391 349.565 249.913 342.957C251.13 341.13 269.304 322.435 290.261 301.391C314.696 276.87 329.217 261.565 330.522 259.13L332.609 255.217L332.87 212.609C332.957 189.13 332.957 165.391 332.87 159.739L332.609 149.478L329.391 152.783Z" fill="#FFD819"/>
<path d="M542.435 152.783L539.217 156.087L538.957 200.435L538.696 244.783L535.826 250.783C533.217 256.348 530 259.826 494 296C468.609 321.565 454.261 336.609 452.957 339.13C450.957 342.956 450.87 343.826 450.609 365.913L450.348 388.696L453.826 392.435L457.391 396.087V379.13C457.391 359.043 458.348 351.739 461.478 345.739C463.217 342.522 474.783 330.348 503.13 301.739C524.696 280 543.13 260.783 544 259.13C545.565 256.261 545.652 253.304 545.913 214.783C546 192.087 546 168.087 545.913 161.478L545.652 149.478L542.435 152.783Z" fill="#FFD819"/>
<path d="M0 173.913V181.217L26.3478 207.826C49.913 231.478 53.1304 235.043 55.7391 240.435L58.6957 246.435L59.1304 267.652L59.5652 288.783L62.8696 285.391L66.1739 282L65.913 258.609C65.6522 237.739 65.4783 234.869 64 232.174C63.1304 230.522 48.3478 215.043 31.2174 197.826L0 166.522V173.913Z" fill="#FFD819"/>
<path d="M313.217 169.304C308.261 176.261 308.348 175.739 308 215.391C307.826 239.913 308 252.174 308.522 252.174C309.739 252.174 312.522 248.174 313.913 244.348C314.783 242.087 315.217 232.869 315.478 207.826C315.652 189.391 315.652 172.609 315.478 170.435L315.217 166.522L313.217 169.304Z" fill="#FFD819"/>
<path d="M526.261 169.478C521.826 175.478 521.739 176.696 521.739 216.348C521.739 252.522 521.739 253.217 523.391 251.217C528.348 244.783 528.261 245.565 528.522 210.87C528.696 193.13 528.696 176 528.522 172.783L528.261 166.783L526.261 169.478Z" fill="#FFD819"/>
<path d="M98.5217 171.565C94.8696 177.217 94.6087 179.826 94.9565 220L95.2174 253.478L98 249.304C99.8261 246.522 100.957 243.565 101.304 240.609C101.565 238.087 101.739 220.609 101.565 201.739L101.304 167.391L98.5217 171.565Z" fill="#FFD819"/>
<path d="M0 203.391V210.696L17.6522 228.609C37.1304 248.348 39.3044 251.478 40.8696 262.174C41.3044 265.478 41.7391 276.87 41.7391 287.391V306.435L45.3044 303.043L48.7826 299.565L48.5217 273.913C48.2609 248.783 48.1739 248.174 46.1739 244.348C44.9565 241.913 35.5652 231.826 22.087 218.261L0 196.087V203.391Z" fill="#FFD819"/>
<path d="M130.261 229.217C129.826 258 129.565 259.652 124.957 266.522C123.826 268.261 105.826 286.696 85.0435 307.652C61.5652 331.304 46.3478 347.304 44.6957 350L42.1739 354.348L41.913 380.435L41.6522 406.522L45.1304 409.913L48.5217 413.217L48.8696 389.478C49.3043 362.696 49.7391 360.435 56.1739 352.348C58 350.087 76.1739 331.391 96.6087 310.87C117.043 290.261 134.435 272.087 135.304 270.435C136.783 267.652 136.957 264.696 137.217 238.261L137.478 209.13L134.087 205.739L130.609 202.435L130.261 229.217Z" fill="#FFD819"/>
<path d="M343.304 229.826L343.043 256.956L340.087 263.043C337.391 268.609 333.652 272.609 297.826 308.696C272.696 334 258 349.478 256.87 351.739C255.391 354.869 255.217 357.652 254.957 380.869L254.696 406.522L258.174 410L261.739 413.391V395.13C261.739 368.435 263.043 360.522 268.87 353.043C269.826 351.826 287.478 333.826 308.174 313.043C328.87 292.261 346.696 273.652 347.913 271.739L350 268.261L350.261 238.696L350.435 209.13L347.391 205.826C345.739 204.087 344.174 202.609 344 202.609C343.739 202.609 343.478 214.869 343.304 229.826Z" fill="#FFD819"/>
<path d="M557.304 203.478C557.304 204.174 557.304 212.956 557.391 223.043C557.478 246.87 556.522 256.956 553.391 263.391C551.478 267.478 544.435 274.87 511.652 307.913C480.087 339.565 471.826 348.348 470.261 351.826C468.435 355.826 468.348 357.565 468 380.957L467.652 405.913L471.217 409.478C473.13 411.391 474.957 413.043 475.13 413.043C475.391 413.043 475.652 402.174 475.826 388.87L476.087 364.783L478.957 358.696C481.565 353.13 484.696 349.739 520.783 313.478C546.348 287.826 560.522 273.043 561.826 270.435C563.913 266.609 563.913 266.087 564.174 237.826L564.435 209.13L560.957 205.652C558.696 203.565 557.391 202.696 557.304 203.478Z" fill="#FFD819"/>
<path d="M574.783 241.043C574.783 263.652 574.174 269.13 571.131 275.565C569.739 278.435 558.435 290.435 529.913 319.13C504.435 344.783 489.913 360.087 488.609 362.609C486.522 366.435 486.522 366.957 486.261 395.304L486 424L489.478 427.913L492.957 431.739L493.044 408.261C493.044 382.261 493.739 375.652 497.217 369.13C498.87 366 510.609 353.565 538.783 325.217C560.348 303.478 578.783 284.261 579.652 282.609C581.131 279.826 581.304 276.957 581.565 253.043L581.826 226.522L578.348 223.043L574.783 219.652V241.043Z" fill="#FFD819"/>
<path d="M147.652 245.043L147.391 269.217L144.435 275.217C141.739 280.696 137.826 284.87 102 320.956C75.6522 347.478 62.1739 361.739 61.1304 364C59.7391 366.956 59.5652 370.956 59.3044 395.652L59.1304 423.913L62.2609 427.217C64 429.043 65.4783 430.435 65.6522 430.261C65.8261 430.087 66.087 420.696 66.1739 409.391C66.2609 383.304 66.9565 376.87 70.4348 369.826C72.7826 365.13 78.2609 359.217 111.913 325.478C144.609 292.696 151.043 285.826 152.957 281.739C155.13 277.043 155.13 276.522 155.478 252.348L155.826 227.652L152.522 224.261C150.696 222.435 148.957 220.87 148.609 220.87C148.261 220.87 147.826 231.739 147.652 245.043Z" fill="#FFD819"/>
<path d="M361.739 239.565C361.739 250.087 361.304 261.391 360.87 264.783C359.13 276.609 359.13 276.696 316 320C284.696 351.478 276.261 360.435 274.783 363.739C273.043 367.652 272.87 369.826 272.435 395.913L272 423.913L276 427.826L280 431.652V406.435C280 379.565 280.609 374.435 284.522 367.913C285.565 366.174 303.913 347.13 325.391 325.565C355.913 294.87 364.783 285.391 366.261 282.087C368.174 278 368.261 276.696 368.522 252.609L368.783 227.391L365.304 223.913L361.739 220.522V239.565Z" fill="#FFD819"/>
<path d="M0 232.956V240.174L8.69565 249.217C14.7826 255.652 18.1739 260 20.1739 264.174L23.0435 270L23.3043 297.13C23.4783 312.087 23.7391 324.348 23.913 324.348C24.087 324.348 25.7391 322.783 27.5652 320.783L30.8696 317.304L30.4348 287.913L30 258.522L27.4783 254.696C26.087 252.609 19.3043 245.217 12.5217 238.261L0 225.652V232.956Z" fill="#FFD819"/>
<path d="M165.913 258.435C165.478 280.783 164.87 283.739 160 290.956C158.348 293.304 140.261 312.174 119.739 332.783C99.1304 353.478 81.5652 371.478 80.6957 372.783C79.8261 374.174 78.6957 376.609 78.2609 378.261C77.4783 381.217 76.8696 483.217 77.6522 484C77.8261 484.261 79.4783 482.783 81.2174 480.87L84.3478 477.391V435.391C84.3478 390.435 84.6087 387.13 88.8696 380.087C89.913 378.348 108 359.478 129.13 338.174C152.522 314.696 168.522 297.739 170.087 295.13L172.609 290.87L172.87 267.826L173.13 244.783L169.739 241.478L166.261 238.087L165.913 258.435Z" fill="#FFD819"/>
<path d="M378.957 259.304L378.696 280.435L375.739 286.522C373.043 292.087 369.391 296 333.478 332.174C308.261 357.565 293.652 372.956 292.522 375.217C290.957 378.522 290.87 381.478 290.609 431.739L290.348 484.783L293.913 481.304L297.391 477.913V437.391C297.391 394 297.826 388.348 301.565 381.304C303.217 378.174 314.957 365.739 342.609 337.826C364 316.261 382.348 297.13 383.565 295.217C385.652 291.826 385.652 291.391 385.913 268.261L386.174 244.783L382.696 241.391L379.304 238.087L378.957 259.304Z" fill="#FFD819"/>
<path d="M592.174 258.174C592.087 280.435 591.565 283.913 586.609 290.783C584.957 293.043 566.696 312 545.913 332.956C516.783 362.174 507.652 371.913 506 375.217L503.913 379.565L503.652 432.174L503.391 484.783L506.957 481.217L510.522 477.739L510.435 441.652C510.435 405.217 511.217 389.304 513.217 384.696C515.913 378.435 521.739 372 557.478 336.087C587.913 305.478 596 296.956 597.565 293.478C599.391 289.391 599.565 287.739 599.826 267.304L600.174 245.391L596.957 241.826C595.13 239.913 593.391 238.261 592.957 238.261C592.609 238.261 592.261 247.217 592.174 258.174Z" fill="#FFD819"/>
<path d="M0 263.217C0 270 0.347826 271.739 2.17391 275.391C5.65217 282.174 6.08696 288.435 6.08696 330.87V370.956L9.56522 374.348L13.1304 377.826L12.8696 324.783C12.6087 264.261 13.3043 269.826 4.43478 260L0.0869565 255.217L0 263.217Z" fill="#FFD819"/>
<path d="M183.652 307.826L183.913 360.435L185.913 364.783C187.478 368.261 195.826 377.043 226.435 407.826C247.652 429.13 266 448.087 267.217 450.087C271.478 457.043 272.174 461.304 272.174 482.348C272.174 493.043 272.522 501.739 272.87 501.739C273.217 501.739 275.043 500.174 276.87 498.348L280.174 494.957L279.826 472.957C279.565 452.261 279.391 450.609 277.565 446.609C276 443.13 267.478 434.174 236.174 402.696C191.217 357.391 192.696 359.304 191.304 344.261C190.87 339.304 190.522 318.783 190.435 298.696V262.087L186.957 258.696L183.391 255.217L183.652 307.826Z" fill="#FFD819"/>
<path d="M397.13 307.304C397.304 360.261 397.478 362.957 401.13 368.261C402.087 369.652 420.174 388.261 441.391 409.565C482.783 451.217 483.478 452.087 485.217 462.696C485.652 465.739 486.087 475.913 486.087 485.217V502.087L489.565 498.696L493.043 495.304V474.348C493.043 457.565 492.783 452.435 491.652 448.609C490.261 444.087 488.435 442.087 450.957 404.348C427.043 380.261 410.609 363.13 409.13 360.522C404.609 352.783 404.348 350.174 404.348 304.783V262.957L401.043 259.739C399.217 258 397.565 256.522 397.391 256.522C397.13 256.522 397.043 279.391 397.13 307.304Z" fill="#FFD819"/>
<path d="M610.609 308.87C610.87 361.043 610.87 361.304 612.783 365.217C614 367.652 619.652 374 627.391 381.739L640 394.348V386.87C640 379.478 639.913 379.304 637.217 376.87C631.304 371.652 623.391 362.435 621.304 358.348C617.826 351.391 617.391 345.478 617.391 302.522V262.087L614.522 259.304C612.957 257.739 611.391 256.522 611.043 256.522C610.696 256.522 610.522 280.087 610.609 308.87Z" fill="#FFD819"/>
<path d="M201.913 311.826C202.174 349.13 202.174 350.087 204.087 353.565C205.13 355.478 206.609 357.565 207.391 358.261C208.696 359.304 208.783 356.522 208.522 321.652C208.261 280.696 208.435 282.261 203.304 275.739C201.652 273.652 201.652 274.087 201.913 311.826Z" fill="#FFD819"/>
<path d="M414.957 311.478C415.217 348.783 415.217 349.13 417.217 353.217C418.348 355.391 419.826 357.739 420.522 358.348C421.652 359.304 421.739 354.956 421.565 321.217L421.304 283.043L418.87 278.956C417.565 276.696 416.087 274.609 415.565 274.348C414.957 273.913 414.783 285.565 414.957 311.478Z" fill="#FFD819"/>
<path d="M628 311.565L628.261 348.348L630.87 353.478C632.348 356.261 634 358.696 634.609 358.957C635.391 359.217 635.652 352.435 635.652 326.783C635.565 290.435 635.043 283.043 631.739 278.087C630.522 276.261 629.13 274.783 628.609 274.783C628 274.783 627.739 285.826 628 311.565Z" fill="#FFD819"/>
<path d="M168.87 313.043L166 316.435L166.261 344.956C166.522 371.043 166.696 373.739 168.174 376.956C169.304 379.217 184 394.609 209.13 420C244.957 456.087 248.696 460.087 251.391 465.652L254.348 471.739L254.609 495.913L254.957 520.174L258.435 516.87L261.826 513.478L261.565 486.956C261.304 460.696 261.304 460.435 259.217 456.956C258.087 455.043 239.652 435.826 218.261 414.348C176.783 372.609 175.913 371.565 174 361.304C173.478 358.435 173.043 346 173.043 332.87C173.043 320.087 172.783 309.565 172.435 309.652C172 309.652 170.435 311.217 168.87 313.043Z" fill="#FFD819"/>
<path d="M382.348 312.87L379.043 316.261L379.304 344.435C379.565 372.174 379.565 372.696 381.652 376.956C383.304 380.261 392.957 390.522 423.043 420.87C456.609 454.696 462.696 461.217 464.87 465.652L467.391 470.87L467.826 495.478L468.261 520.087L472.087 516.174L475.826 512.348L475.478 487.652C475.13 464.522 474.957 462.783 473.217 458.696C471.652 455.304 463.652 446.783 433.13 416.087C412.174 395.043 393.826 376 392.348 373.826C387.304 366.348 386.87 363.565 386.261 335.304L385.652 309.478L382.348 312.87Z" fill="#FFD819"/>
<path d="M595.217 313.13L592 316.696L592.435 344.435C592.87 372.087 592.87 372.261 595.13 376.783C596.783 380.174 602.609 386.609 618.696 402.609L640 423.913V416.609V409.304L630.087 399.478C611.826 381.391 605.13 373.913 602.696 368.783L600.435 363.913L600.174 336.696C600 321.826 599.565 309.565 599.217 309.565C598.783 309.565 597.043 311.13 595.217 313.13Z" fill="#FFD819"/>
<path d="M151.391 330.783L147.652 334.609L148 359.304C148.348 382.522 148.435 384.174 150.261 388.261C151.826 391.739 159.913 400.261 190.783 431.304C212 452.609 230.435 471.913 231.913 474.348C236.522 481.739 236.957 484.87 236.957 512.348C236.957 526.174 237.13 537.391 237.391 537.391C237.652 537.391 239.391 535.913 241.217 534L244.522 530.609L244.174 502.087C243.913 474 243.826 473.391 241.826 469.565C240.435 467.043 226.174 452 200.435 426.087C166.87 392.261 160.783 385.739 158.609 381.304L156.087 376.087L155.652 351.478L155.217 326.87L151.391 330.783Z" fill="#FFD819"/>
<path d="M364.957 330.261L361.652 333.652L361.913 359.652C362.174 385.043 362.261 385.739 364.261 389.565C365.565 392.087 379.826 407.043 405.217 432.609C447.13 474.783 447.826 475.565 449.565 486.174C450 489.217 450.435 502.087 450.435 514.783V537.739L453.913 534.348L457.478 530.87L457.217 502.174C456.957 475.913 456.783 473.217 455.304 470C454.174 467.739 439.478 452.261 414.348 426.957C378.522 390.87 374.783 386.87 372.087 381.304L369.13 375.217L368.696 351.043L368.261 326.87L364.957 330.261Z" fill="#FFD819"/>
<path d="M578 330.348L574.609 334L574.957 359.391C575.217 384.174 575.304 384.87 577.304 389.043C578.87 392.174 587.304 401.13 609.478 423.391L639.565 453.478L639.826 446.261L640.087 439.043L614.609 413.478C589.565 388.261 585.391 383.391 583.304 376.087C582.783 374.087 582.087 362.783 581.826 349.652L581.304 326.783L578 330.348Z" fill="#FFD819"/>
<path d="M133.652 348.522L130.348 351.913L130.609 374.435C130.87 394.522 131.043 397.304 132.522 400.435C133.652 402.696 148.261 418.087 173.478 443.478C209.304 479.565 213.043 483.565 215.739 489.13L218.696 495.217L218.957 539.652L219.217 584.087L222.696 587.478L226.087 590.87L225.913 537.826C225.652 487.391 225.565 484.609 224 481.304C222.87 479.043 208.087 463.565 182.957 438.261C144.435 399.478 141.391 396 138.957 388.261C138.435 386.87 137.826 376.522 137.478 365.391L136.957 345.13L133.652 348.522Z" fill="#FFD819"/>
<path d="M346.609 348.522L343.304 352L343.652 374C343.913 394.609 344.087 396.348 345.913 400.348C347.478 403.739 356 412.869 387.304 444.261C420.522 477.739 427.044 484.696 429.13 488.956C431.391 493.565 431.652 495.217 432.261 508.087C432.609 515.826 432.957 536.261 432.957 553.478L433.044 584.87L436.609 588.261L440.087 591.739L439.826 539.13L439.565 486.522L437.565 482.174C436 478.696 427.826 470 397.913 440C377.217 419.217 359.13 400.609 357.652 398.696C352 391.304 351.304 387.913 350.522 362.956L350 345.13L346.609 348.522Z" fill="#FFD819"/>
<path d="M560 348.522L556.957 351.739L557.391 374.783C557.826 396.956 557.913 398 559.913 401.739C561.217 404.261 575.391 419.13 600.174 444C621.217 465.13 638.783 482.87 639.217 483.565C639.652 484.348 640 481.826 640 476.956V469.13L605.826 434.783C585.478 414.348 570.609 398.696 569.13 396.174C565.13 389.391 564.348 384.087 564.348 363.652C564.348 353.565 564.087 345.217 563.739 345.217C563.304 345.217 561.652 346.696 560 348.522Z" fill="#FFD819"/>
<path d="M115.913 366.261L112.261 370L112 414.348L111.739 458.696L108.783 464.783C106.087 470.348 102.435 474.261 66.8696 510C35.913 541.13 27.4783 550.087 25.913 553.478C24.087 557.565 23.913 559.13 23.6522 579.739L23.3043 601.652L26.8696 605.13L30.4348 608.609V595.826C30.5217 571.565 32.1739 561.652 37.3913 554.957C38.4348 553.652 56.3478 535.391 77.3044 514.348C106.522 484.957 115.826 475.043 117.478 471.739L119.565 467.391L119.826 421.304C120 395.913 120 372.348 119.826 368.87L119.565 362.522L115.913 366.261Z" fill="#FFD819"/>
<path d="M329.391 365.826L326.087 369.217V410C326.087 454.522 325.652 459.043 321.217 466.87C319.826 469.217 303.391 486.522 280.87 509.13C260 530.174 242.087 548.522 241.13 550C237.739 555.043 237.304 558.174 237.304 580.435V602L240.609 605.391L243.913 608.783L244.348 587.652L244.783 566.435L247.739 560.435C250.435 554.87 254.087 550.957 289.565 515.217C314.957 489.652 329.217 474.696 330.522 472.174L332.609 468.261L332.87 427.391C332.957 404.87 332.957 381.13 332.87 374.522L332.609 362.522L329.391 365.826Z" fill="#FFD819"/>
<path d="M542.435 366L539.13 369.391V411.478C539.13 456.522 538.87 459.826 534.609 466.87C533.565 468.609 515.217 487.652 493.739 509.217C463.217 539.913 454.348 549.391 452.87 552.696C450.957 556.696 450.87 558.261 450.609 579.565L450.348 602.174L453.739 605.478L457.217 608.87L457.565 588.522C458.087 565.304 458.696 562 464.522 554.609C466.435 552.087 484.783 533.13 505.217 512.609C525.652 492 543.13 473.826 544 472.174C545.565 469.304 545.652 466.261 545.913 427.826C546 405.13 546 381.13 545.913 374.522L545.652 362.522L542.435 366Z" fill="#FFD819"/>
<path d="M0 387.565V394.261L25.4783 419.913C39.4783 434.087 52 447.304 53.3913 449.304C58.1739 456.522 58.6087 458.696 58.9565 481.043C59.1304 492.435 59.5652 501.739 60 501.739C60.4348 501.739 61.913 500.174 63.4783 498.261L66.1739 494.87L65.913 472C65.6522 451.391 65.4783 448.783 63.913 445.652C62.8696 443.478 50.6957 430.522 31.6522 411.478C14.8696 394.696 0.869565 380.87 0.521739 380.87C0.26087 380.87 0 383.913 0 387.565Z" fill="#FFD819"/>
<path d="M98.9565 384C97.5652 385.913 96.087 389.652 95.6522 392.261C95.1304 395.13 94.8696 410.957 94.9565 431.739L95.2174 466.522L98 462.261C99.5652 459.913 101.043 456.435 101.304 454.435C101.565 452.522 101.739 435.043 101.565 415.739L101.304 380.609L98.9565 384Z" fill="#FFD819"/>
<path d="M312.435 383.739C308.348 389.739 308.348 389.913 308.087 428.87C307.913 449.391 308.087 466.087 308.435 466.087C309.304 466.087 312.609 461.217 314 457.826C315.304 454.783 316.348 380.87 315.043 380.87C314.696 380.87 313.478 382.174 312.435 383.739Z" fill="#FFD819"/>
<path d="M526.87 382.261C526.087 383.217 524.696 385.304 523.826 386.956C522.261 389.739 522.174 392.783 522 428.261C521.739 470.087 521.478 468.522 526.348 459.565C528.174 456.174 528.261 455.043 528.522 424.348C528.696 406.869 528.696 389.913 528.522 386.609C528.261 381.043 528.174 380.783 526.87 382.261Z" fill="#FFD819"/>
<path d="M0 417.13L0.0869565 423.913L16.5217 440.696C34.3478 458.87 37.3913 462.609 39.4783 469.217C41.3044 475.304 41.6522 480.522 41.7391 501.739V520.348L45.3044 516.957L48.7826 513.478L48.5217 487.826C48.2609 463.13 48.1739 462 46.2609 458.174C44.9565 455.391 37.3044 447.043 22.6957 432.261C10.8696 420.261 0.869565 410.435 0.608696 410.435C0.26087 410.435 0 413.478 0 417.13Z" fill="#FFD819"/>
<path d="M130.435 438.261C130.435 450.957 130 463.826 129.565 466.87C128 478.174 127.565 478.696 84.7826 521.739C63.1304 543.478 44.6957 562.696 43.8261 564.348C42.3478 567.13 42.1739 569.913 41.913 593.739L41.6522 620.087L44.9565 623.304L48.2609 626.522L48.7826 602.609C49.3043 576.522 49.6522 574.609 54.7826 567.478C56.2609 565.565 74.4348 546.87 95.1304 526.087C119.826 501.304 133.565 486.87 134.87 484.348C136.957 480.522 136.957 480 137.217 451.304L137.478 422.174L134 418.696L130.435 415.304V438.261Z" fill="#FFD819"/>
<path d="M343.304 442.696L343.043 470L340.522 475.652C338.174 480.87 334.609 484.609 298.609 520.87C273.13 546.609 258.609 561.826 257.304 564.348C255.304 568.174 255.217 568.87 254.957 593.913L254.696 619.565L258.174 623.043L261.739 626.435V607.826C261.739 597.565 262.174 586.174 262.609 582.609C264.261 570.348 264.087 570.609 307.478 526.956C336.783 497.478 347.304 486.348 348.609 483.478C350.261 479.826 350.435 477.826 350.435 450.87V422.087L347.043 418.783L343.565 415.391L343.304 442.696Z" fill="#FFD819"/>
<path d="M557.304 418.087C557.217 419.391 557.304 428.261 557.304 437.826C557.391 447.391 557.13 458.783 556.609 463.13C555.043 477.565 556.609 475.652 512.174 520.435C481.913 551.043 472 561.478 470.435 564.783C468.348 569.043 468.348 569.826 468 594.174L467.652 619.304L470.957 622.696C472.783 624.522 474.522 626.087 474.87 626.087C475.217 626.087 475.652 615.217 475.826 601.913L476.087 577.739L479.043 571.739C481.739 566.174 485.565 562.174 521.391 526C548.174 499.13 561.304 485.304 562.348 482.956C563.652 480 563.913 475.913 564.174 451.478L564.522 423.391L560.957 419.565C557.391 415.739 557.391 415.739 557.304 418.087Z" fill="#FFD819"/>
<path d="M147.826 455.913C147.826 479.913 147.13 484.696 142.957 491.478C141.652 493.565 123.13 512.783 101.739 534.348C76.7826 559.565 62.3478 574.696 61.2174 576.957C59.7391 580.087 59.5652 582.957 59.3044 608.783C59.0435 634.174 59.1304 637.304 60.4348 638.609C61.2174 639.391 62.7826 640 64 640H66.087L66.1739 624.087C66.1739 615.391 66.5217 603.913 66.8696 598.609C68.087 582.435 66.1739 584.957 111.565 539.217C142.174 508.435 151.478 498.609 153.043 495.217C155.13 491.043 155.13 490.087 155.478 466L155.826 441.13L152.609 437.478C150.783 435.565 149.043 433.913 148.609 433.913C148.174 433.913 147.826 443.739 147.826 455.913Z" fill="#FFD819"/>
<path d="M361.739 452.609C361.739 463.13 361.304 474.435 360.87 477.826C359.13 489.652 359.13 489.739 316.087 533.043C294.435 554.783 276.087 574 275.217 575.652C273.304 579.391 272.261 593.913 272.261 619.652C272.174 635.478 272.348 637.217 273.739 638.522C274.609 639.391 276.348 640 277.652 640H279.913L280.174 614.957L280.435 590L283.391 583.913C286.087 578.348 289.652 574.522 324.522 539.478C345.565 518.348 363.652 499.739 364.783 498C368.174 493.13 368.609 488.783 368.696 463.913V440.348L365.217 436.957L361.739 433.565V452.609Z" fill="#FFD819"/>
<path d="M574.609 457.478C574.174 483.565 574 484.87 568.522 492.87C567.044 495.13 548.696 514.174 527.739 535.217C506.87 556.261 489.044 574.87 488.174 576.522C486.696 579.304 486.522 582.174 486.261 608.522C486.087 629.913 486.261 637.826 487.044 638.783C487.565 639.478 489.13 640 490.522 640H493.044V618.348C493.044 606.522 493.478 594.609 493.913 592.087C495.826 581.826 496.957 580.435 538.174 539.13C559.391 517.826 577.739 498.696 579.044 496.522L581.304 492.609L581.565 466.522L581.826 440.435L578.348 437.043L574.957 433.739L574.609 457.478Z" fill="#FFD819"/>
<path d="M0 446.435V454.087L6.6087 460.696C15.3043 469.391 18.6087 473.565 21.0435 478.696C22.9565 482.87 23.0435 484.087 23.3043 510.174C23.4783 525.13 23.913 537.391 24.2609 537.391C24.6087 537.391 26.1739 536.087 27.7391 534.435L30.5217 531.565L30.4348 502.957C30.3478 467.478 31.5652 470.957 13.1304 452.174L0 438.783V446.435Z" fill="#FFD819"/>
<path d="M166.087 467.826C166.087 477.13 165.652 487.304 165.217 490.348C163.652 501.652 163.217 502.087 120.435 545.217C98.7826 566.957 80.3478 586.174 79.4783 587.826C78 590.522 77.8261 593.391 77.5652 615.391L77.3044 640H80.7826H84.3478V624C84.3478 606.783 85.0435 600.957 88 594.783C89.3044 591.913 100.522 580.087 129.13 551.304C154.87 525.478 169.217 510.348 170.522 507.826C172.522 504 172.609 503.13 172.87 480.87L173.13 457.826L169.652 454.348L166.087 450.957V467.826Z" fill="#FFD819"/>
<path d="M379.13 470.087C379.13 491.739 378.261 496.957 373.565 503.739C372 506 353.739 524.957 332.87 545.913C308.174 570.696 294.261 585.304 292.957 587.826C290.957 591.652 290.87 592.435 290.609 615.826L290.348 640H293.739H297.217L297.652 621.913C298.087 601.217 298.87 597.478 304.522 590.261C306.435 587.739 324.783 568.783 345.217 548.261C365.652 527.652 383.13 509.478 384 507.826C385.478 505.13 385.652 502.261 385.913 481.304L386.174 457.826L382.696 454.348L379.13 450.957V470.087Z" fill="#FFD819"/>
<path d="M592.174 471.043C592.087 493.304 591.478 497.304 586.696 504.348C585.304 506.522 567.043 525.391 546.174 546.261C520.087 572.435 507.565 585.565 506.087 588.435C503.913 592.522 503.913 592.957 503.652 616.261L503.304 640H506.696H510.174L510.696 622.348C511.304 603.304 512.174 598.435 516.261 592.435C517.652 590.435 536 571.391 557.13 550.087C585.043 521.826 596.087 510.174 597.565 507.13C599.478 503.217 599.565 501.913 599.826 480.87L600.174 458.696L596.174 454.87L592.261 451.043L592.174 471.043Z" fill="#FFD819"/>
<path d="M0 476.696C0 482.957 0.347826 484.87 2.08696 488.435C5.65217 495.478 6.08696 501.478 6.08696 544.087V584.261L9.3913 587.565L12.6087 590.783L12.8696 540C13.1304 480.609 13.3913 483.13 5.21739 474.522L0.0869565 469.13L0 476.696Z" fill="#FFD819"/>
<path d="M183.652 521.478L183.913 573.478L186.261 578.261C188.174 582.087 194.522 588.87 217.217 611.565L245.739 640.087L252.696 639.826L259.565 639.565L229.304 609.13C212.696 592.435 197.913 576.956 196.435 574.87C191.13 566.783 191.043 566.348 190.696 518.696L190.348 475.217L187.565 472.348C186.087 470.87 184.522 469.565 184.174 469.565C183.739 469.565 183.478 492.956 183.652 521.478Z" fill="#FFD819"/>
<path d="M397.304 470C397.304 470.522 397.304 493.739 397.391 521.739C397.478 565.913 397.652 573.217 398.87 576.957C400.087 580.87 403.13 584.261 429.391 610.609L458.609 640H466H473.478L442.957 609.304C426.174 592.522 411.217 576.957 409.826 574.783C404.696 567.043 404.87 568.435 404.522 520.348L404.261 475.913L400.87 472.609C398.957 470.696 397.391 469.565 397.304 470Z" fill="#FFD819"/>
<path d="M610.609 521.739C610.87 573.478 610.87 574.435 612.783 578.435C614 581.043 618.87 586.87 627.304 595.391L639.913 608.261L640 600.957V593.739L633.739 587.043C624.435 577.043 621.043 572.522 619.391 567.565C618.087 563.565 617.826 557.826 617.565 519.478L617.304 475.913L613.826 472.522L610.348 469.13L610.609 521.739Z" fill="#FFD819"/>
<path d="M414.957 524.783C415.217 566.261 415.043 564.696 420.174 571.217C421.826 573.304 421.826 572.87 421.565 535.13C421.304 493.913 421.391 494.87 416.522 488.696L414.783 486.522L414.957 524.783Z" fill="#FFD819"/>
<path d="M201.913 525.739C202.174 566.956 202 565.304 206.957 571.304L208.696 573.478L208.522 535.652C208.261 499.391 208.174 497.652 206.435 493.913C205.478 491.739 204 489.478 203.13 488.783C201.739 487.652 201.652 489.826 201.913 525.739Z" fill="#FFD819"/>
<path d="M628.087 524.435C628.435 564.261 628.522 565.304 633.217 570.609L635.652 573.478L635.478 536L635.217 498.609L632.609 493.478C627.652 483.826 627.652 483.913 628.087 524.435Z" fill="#FFD819"/>
<path d="M169.391 525.826L166.087 529.217V556.609C166.087 579.739 166.348 584.696 167.478 588.348C168.783 592.087 171.826 595.565 192.522 616.348L216.087 640.087L223.043 639.826L230 639.565L205.739 615.217C192.435 601.826 180.435 589.304 179.217 587.391C173.739 579.391 173.565 578.435 173.043 549.304L172.609 522.522L169.391 525.826Z" fill="#FFD819"/>
<path d="M382.348 526L379.043 529.565L379.304 557.565C379.565 584.696 379.652 585.826 381.565 590C383.043 593.217 388.957 599.739 406.261 617.13L429.043 640H436.435H443.826L418.609 614.609C404.522 600.435 392.261 587.391 391.043 585.217C387.13 578.261 386.696 574.87 386.174 548L385.652 522.522L382.348 526Z" fill="#FFD819"/>
<path d="M595.478 526.522L592.174 530.174L592.261 548.783C592.348 574.522 593.217 586.522 595.217 590.87C596.261 593.043 605.044 602.609 618.435 616.087L640 637.826V630.522V623.217L623.13 606.087C609.044 591.739 605.826 588 603.391 582.956L600.435 576.956L600.174 549.826C600 534.87 599.652 522.609 599.304 522.696C598.957 522.696 597.217 524.435 595.478 526.522Z" fill="#FFD819"/>
<path d="M150.957 544.261L147.652 547.652L147.913 572.261L148.261 596.957L150.609 601.826C152.435 605.478 157.217 610.957 169.391 623.304L185.739 640H192.87C196.783 640 200 639.826 200 639.565C200 639.304 191.391 630.435 180.783 619.826C164.87 603.652 161.13 599.478 158.87 594.783L156.087 589.217L155.826 565.043C155.652 551.739 155.217 540.87 154.87 540.87C154.522 540.87 152.783 542.435 150.957 544.261Z" fill="#FFD819"/>
<path d="M364.957 543.478L361.652 546.348L361.913 572.957C362.174 597.043 362.348 599.826 363.826 602.609C364.696 604.261 373.13 613.391 382.435 622.783L399.478 640H406.87H414.261L394.522 620.174C377.13 602.696 374.522 599.652 372 594.348L369.13 588.261L368.696 564.435L368.261 540.522L364.957 543.478Z" fill="#FFD819"/>
<path d="M578 544.174L574.696 547.565L574.957 572.696C575.217 596.522 575.304 598 577.131 602C578.522 605.043 583.826 611.043 595.826 623.13L612.435 640H619.913H627.304L608.087 620.609C597.565 610 588 599.565 586.696 597.391C582.87 590.696 582.348 586.87 581.826 563.217L581.304 540.783L578 544.174Z" fill="#FFD819"/>
<path d="M133.652 561.565L130.348 564.956L130.609 587.913L130.87 610.87L133.13 614.783C134.435 616.956 140.087 623.478 145.739 629.391L156.087 640.087L163.217 639.826L170.348 639.565L158.261 627.13C151.565 620.348 144.87 612.956 143.391 610.783C138.696 603.826 138.087 600.609 137.478 578.435L136.957 558.174L133.652 561.565Z" fill="#FFD819"/>
<path d="M346.696 561.739L343.304 565.13L343.652 587.13C344 614.696 343.478 613.304 358.87 628.87L369.913 640H377.304H384.696L370.783 625.826C353.565 608.435 352.522 606.609 351.217 591.565C350.696 585.826 350.435 576 350.609 569.739C350.783 563.391 350.696 558.261 350.435 558.261C350.174 558.261 348.522 559.826 346.696 561.739Z" fill="#FFD819"/>
<path d="M560.522 561.652L557.217 565.043L557.304 586.696C557.391 599.652 557.826 609.478 558.435 611.304C559.826 615.913 562 618.609 572.957 629.826L582.957 640H590.261H597.652L584.174 626.261C573.217 615.043 570.087 611.304 567.739 606.435L564.783 600.435L564.348 579.304L563.913 558.174L560.522 561.652Z" fill="#FFD819"/>
<path d="M115.826 579.391L112.174 583.13V611.565V640H116.087H120V607.826C120 590.087 119.913 575.652 119.739 575.652C119.565 575.652 117.826 577.304 115.826 579.391Z" fill="#FFD819"/>
<path d="M328.87 579.391L326.087 582.261V611.13V640H329.565H333.043V608.261C333.043 590.783 332.696 576.522 332.348 576.522C332 576.522 330.435 577.826 328.87 579.391Z" fill="#FFD819"/>
<path d="M542.348 579.826L539.13 583.13V611.565V640H542.609H546.087V608.261C546.087 590.783 546 576.522 545.826 576.522C545.652 576.522 544.087 578 542.348 579.826Z" fill="#FFD819"/>
<path d="M0 600.87V608.261L15.913 624.174L31.8261 640.087L38.9565 639.826L46.087 639.565L23.0435 616.522L0 593.478V600.87Z" fill="#FFD819"/>
<path d="M99.4783 596.783C95.3044 602.957 95.3044 603.304 94.9565 621.913L94.6087 640H98.1739H101.739V616.957C101.739 604.261 101.652 593.913 101.565 593.913C101.391 593.913 100.435 595.217 99.4783 596.783Z" fill="#FFD819"/>
<path d="M312.696 596.783C308.957 601.652 308.522 604.087 308.087 622.348L307.565 640H311.652H315.652V616.957C315.652 604.261 315.478 593.913 315.304 593.913C315.044 593.913 313.913 595.217 312.696 596.783Z" fill="#FFD819"/>
<path d="M525.652 597.217C522.174 602.522 521.739 605.391 521.739 623.217V640H525.217H528.696V616.957C528.696 604.261 528.522 593.913 528.261 593.913C528 593.913 526.87 595.391 525.652 597.217Z" fill="#FFD819"/>
<path d="M0 630.522C0 635.913 0.347826 638.348 1.21739 639.043C2 639.739 5.04348 640 9.47826 639.826L16.6087 639.565L8.26087 631.304L0 623.043V630.522Z" fill="#FFD819"/>
<path d="M343.478 634.087V640H346.87C352.087 640 352.261 637.391 347.391 632.261L343.478 628.261V634.087Z" fill="#FFD819"/>
<path d="M130.435 634.609V640H133.913C136.957 640 137.391 639.739 137.391 638C137.391 636.783 136 634.609 133.913 632.609L130.435 629.217V634.609Z" fill="#FFD819"/>
<path d="M557.304 631.304C557.304 632.522 557.13 634.957 557.043 636.696L556.783 640H560.609C563.913 640 564.348 639.739 564.348 638C564.348 636.783 562.957 634.609 560.87 632.609C557.478 629.304 557.391 629.304 557.304 631.304Z" fill="#FFD819"/>
</g>
</svg>
