<svg width="612" height="18" viewBox="0 0 612 18" fill="none" xmlns="http://www.w3.org/2000/svg">
<circle cx="181" cy="9" r="9" fill="#E5203B"/>
<circle cx="81" cy="9" r="9" fill="#E5203B"/>
<circle cx="281" cy="9" r="9" fill="#E5203B"/>
<circle cx="31" cy="9" r="9" fill="#E5203B"/>
<circle cx="231" cy="9" r="9" fill="#E5203B"/>
<circle cx="131" cy="9" r="9" fill="#E5203B"/>
<circle cx="331" cy="9" r="9" fill="#E5203B"/>
<circle cx="6" cy="9" r="6" fill="#E5203B"/>
<circle cx="206" cy="9" r="6" fill="#E5203B"/>
<circle cx="106" cy="9" r="6" fill="#E5203B"/>
<circle cx="306" cy="9" r="6" fill="#E5203B"/>
<circle cx="56" cy="9" r="6" fill="#E5203B"/>
<circle cx="256" cy="9" r="6" fill="#E5203B"/>
<circle cx="156" cy="9" r="6" fill="#E5203B"/>
<circle cx="356" cy="9" r="6" fill="#E5203B"/>
<circle cx="381" cy="9" r="9" fill="#E5203B"/>
<circle cx="581" cy="9" r="9" fill="#E5203B"/>
<circle cx="481" cy="9" r="9" fill="#E5203B"/>
<circle cx="431" cy="9" r="9" fill="#E5203B"/>
<circle cx="531" cy="9" r="9" fill="#E5203B"/>
<circle cx="406" cy="9" r="6" fill="#E5203B"/>
<circle cx="606" cy="9" r="6" fill="#E5203B"/>
<circle cx="506" cy="9" r="6" fill="#E5203B"/>
<circle cx="456" cy="9" r="6" fill="#E5203B"/>
<circle cx="556" cy="9" r="6" fill="#E5203B"/>
</svg>
