<svg width="301" height="203" viewBox="0 0 301 203" fill="none" xmlns="http://www.w3.org/2000/svg">
<path d="M29.5015 176.715C27.8978 177.935 26.6493 177.383 25.4259 177.092C24.3029 176.823 23.2015 176.435 22.0714 176.22C20.5215 175.922 20.2166 175.463 20.7475 173.924C21.3574 172.162 21.9709 170.404 22.6275 168.509C22.1682 168.33 21.7808 168.118 21.3682 168.025C17.863 167.224 14.7525 165.699 12.2268 163.091C10.8276 161.648 9.36025 160.263 8.08303 158.717C7.22558 157.676 6.38965 156.481 6.01653 155.214C5.52861 153.567 5.4138 151.791 6.06317 150.065C6.45064 149.043 6.69819 147.963 6.96727 146.897C7.25069 145.777 7.03184 144.816 6.404 143.771C5.11244 141.622 5.66494 139.509 7.68839 137.915C8.94766 136.925 10.3971 136.372 11.9613 136.103C13.5004 135.838 15.0359 135.551 16.5822 135.328C17.5617 135.188 18.1285 134.672 18.272 133.721C18.4478 132.562 18.9393 131.647 19.9726 131.015C20.7691 130.527 20.8767 129.867 20.3995 129.013C20.0587 128.403 19.7107 127.671 19.7322 127.003C19.8327 124.007 18.0855 121.56 17.3966 118.801C17.1886 117.968 16.288 117.229 15.5597 116.626C14.3005 115.586 13.1739 114.52 12.2878 113.081C10.9926 110.978 9.38895 109.033 7.1036 107.881C4.38055 106.511 2.78045 103.974 0.760587 101.878C0.40182 101.509 0.290602 100.813 0.240374 100.249C0.111218 98.7852 0.0753412 97.3104 0 95.7675C0.577616 95.2759 1.26645 94.691 1.82613 94.2137C2.31046 95.118 2.93831 96.1299 3.39753 97.2135C3.59844 97.6872 3.64149 98.4048 3.42264 98.8426C2.84503 99.9873 3.14998 100.859 3.9895 101.634C4.99046 102.56 5.92325 103.64 7.08566 104.293C10.4617 106.177 13.2529 108.857 16.4746 110.928C18.107 111.976 19.8865 112.797 21.6301 113.651C21.8705 113.77 22.5414 113.569 22.5952 113.389C22.7279 112.952 22.7638 112.367 22.5737 111.969C22.2508 111.294 21.4112 110.749 21.3395 110.088C21.1242 108.104 21.0381 106.08 21.1637 104.089C21.2462 102.783 22.3979 102.169 23.5997 101.86C24.4787 101.634 25.372 101.473 26.2582 101.279C29.0673 100.669 31.4352 103.281 30.5742 106.048C30.3625 106.73 30.097 107.397 29.9248 108.09C29.7669 108.714 29.8674 109.267 30.5168 109.371C31.4209 108.43 32.2281 107.526 33.1107 106.701C33.8354 106.023 34.7 105.872 35.64 106.335C38.1513 107.576 40.6878 108.761 43.1741 110.049C44.3867 110.677 44.4549 111.348 43.5472 112.363C43.2028 112.747 42.8117 113.131 42.3633 113.372C40.0277 114.624 38.0329 116.49 35.3278 117.103C33.9825 117.408 33.5197 118.259 33.5089 119.748C33.491 121.635 33.5412 123.526 33.5197 125.414C33.5125 126.124 33.43 126.846 33.2972 127.545C33.003 129.128 33.0497 130.638 33.9825 132.034C35.0516 133.635 34.7897 135.554 35.2094 137.309C36.153 141.252 36.6409 145.239 36.5656 149.287C36.519 151.884 36.4221 154.49 36.1709 157.073C36.0526 158.275 35.6471 159.499 35.1269 160.597C34.5421 161.831 34.2695 163.015 34.5493 164.354C34.6677 164.924 34.6534 165.52 34.7108 166.101C34.7969 166.959 34.4524 167.472 33.5663 167.587C32.2819 167.755 31.0047 168.003 29.7167 168.096C28.1955 168.208 26.6421 169.413 26.2403 170.92C26.0752 171.545 25.8958 172.169 25.6734 172.772C25.2357 173.956 25.3469 174.415 26.3909 175.032C26.7784 175.262 27.2412 175.363 27.6395 175.578C28.1776 175.869 28.6835 176.213 29.4907 176.712L29.5015 176.715ZM32.9851 112.65C35.1485 112.13 36.8562 111.721 39.0052 111.204C38.1729 110.397 37.6957 109.823 37.1181 109.392C35.2633 108.011 34.1439 108.355 33.3439 110.54C33.1573 111.057 33.1501 111.638 32.9851 112.65Z" fill="white"/>
<path d="M282.242 80.8725C284.036 82.4621 285.834 84.0446 287.62 85.6413C290.347 88.0814 292.704 90.8443 294.706 93.9087C295.316 94.8417 295.266 95.7244 294.964 96.8439C294.34 99.1548 294.064 101.559 293.655 103.927C292.919 108.172 291.958 112.324 289.812 116.149C286.978 121.205 282.924 124.89 277.83 127.542C276.402 128.284 275.171 128.532 274.041 127.097C273.765 126.745 273.345 126.512 273.008 126.207C272.061 125.342 271.017 125.015 269.782 125.536C269.607 125.611 269.391 125.586 269.212 125.658C265.879 126.939 265.922 126.293 263.927 124.083C260.318 120.085 257.993 115.517 257.157 110.081C256.537 106.041 256.957 102.19 257.775 98.2864C258.388 95.3584 258.865 92.4053 259.507 89.4844C259.662 88.7775 260.114 88.0383 260.634 87.5252C261.646 86.5348 262.804 85.6916 263.902 84.7909L263.845 84.8519C264.559 84.5577 265.269 84.2563 265.987 83.9656C268.268 83.047 270.511 82.0136 272.843 81.2457C275.935 80.2266 279.103 79.5377 282.3 80.9407L282.242 80.8761V80.8725ZM267.874 119.131C267.874 120.25 268.48 120.982 269.567 121.395C268.99 120.652 268.412 119.913 267.834 119.17C267.619 117.896 267.372 116.626 267.196 115.349C267.045 114.24 267.544 113.45 268.599 113.084C271.002 112.248 273.413 111.405 275.842 113.049C276.1 113.224 276.441 113.278 276.746 113.389C276.89 113.601 277.004 113.845 277.184 114.025C279.204 116.034 279.315 116.612 277.84 119.041C277.413 119.748 276.757 120.318 276.201 120.946C275.896 121.291 275.577 121.621 275.264 121.962C277.708 120.986 278.866 119.016 279.577 116.712C279.667 116.422 279.731 115.969 279.577 115.779C278.788 114.803 278.224 113.508 276.692 113.443C276.552 113.232 276.456 112.966 276.269 112.812C273.951 110.914 269.399 111.018 267.196 113.027C266.919 113.278 266.629 113.63 266.568 113.978C266.223 115.88 266.295 117.706 267.867 119.138L267.874 119.131ZM290.433 94.9673L290.501 95.0247C289.655 93.5284 288.234 93.2449 286.781 93.575C283.222 94.386 280.226 96.2088 278.318 99.3773C277.152 101.311 276.649 103.4 277.876 105.675C279.229 108.183 284.151 110.149 286.888 107.792C287.628 107.157 288.385 106.543 289.134 105.922C289.314 105.743 289.493 105.567 289.673 105.388C289.949 105.032 290.236 104.684 290.501 104.322C291.8 102.564 292.632 100.637 292.496 98.4048C292.406 96.9193 291.922 95.6275 290.43 94.9637L290.433 94.9673ZM289.464 112.622C290.656 111.47 291.1 110.121 290.462 109.206C289.612 107.989 288.6 108.875 287.653 109.116C287.527 109.148 287.405 109.195 287.283 109.241C285.421 109.927 283.527 110.296 281.539 109.884C281.094 109.79 280.642 109.694 280.19 109.668C278.892 109.59 278.648 110.117 279.34 111.459C279.397 111.631 279.451 111.807 279.509 111.979C279.792 113.662 280.772 114.541 282.494 114.566C282.795 114.62 283.093 114.67 283.394 114.724C285.367 115.786 287.746 115.216 289.131 113.354L289.464 112.625V112.622ZM263.755 97.6872C264.049 98.4587 264.322 99.693 264.946 100.716C266.188 102.754 268.563 103.68 270.482 103.098C271.849 102.686 272.15 102.19 271.802 100.798C271.271 98.6668 270.249 96.7865 268.731 95.2077C267.87 94.3106 266.815 93.2628 265.545 93.7437C264.121 94.2819 264.006 95.8572 263.759 97.6872H263.755ZM273.062 113.773C272.05 114.093 271.311 114.308 270.583 114.563C269.704 114.871 269.327 115.564 269.643 116.4C270.069 117.53 270.622 118.625 271.218 119.683C271.566 120.304 272.222 120.498 272.911 120.222C274.4 119.622 275.645 118.729 276.169 117.132C276.29 116.752 276.301 116.077 276.075 115.891C275.099 115.094 274.016 114.43 273.062 113.777V113.773ZM277.661 90.0226C276.348 89.9688 275.096 91.0848 274.712 92.6528C274.332 94.2066 274.906 95.8464 276.025 96.4062C276.882 96.8332 277.926 96.6681 278.73 95.972C279.9 94.9637 280.359 93.148 279.803 91.7163C279.423 90.7331 278.759 90.098 277.657 90.0226H277.661ZM275.655 101.412C273.908 103.21 273.227 105.291 273.27 107.602C273.28 108.108 273.847 108.922 274.278 109.008C274.705 109.094 275.508 108.556 275.745 108.086C276.692 106.191 277.051 104.182 276.237 102.119C276.154 101.907 275.935 101.746 275.655 101.415V101.412ZM280.262 85.444C280.23 85.2502 280.276 84.9273 280.136 84.7515C279.76 84.2778 279.333 83.5637 278.874 83.5207C278.414 83.4776 277.858 84.0984 277.403 84.4931C277.234 84.6366 277.202 84.9632 277.155 85.2143C276.987 86.1401 276.979 87.0767 277.833 87.6723C278.138 87.8876 278.744 87.945 279.082 87.7871C280.007 87.3565 280.212 86.4487 280.266 85.4404L280.262 85.444ZM263.109 102.897C265.395 106.385 268.846 106.931 271.87 104.06C268.451 105.524 265.588 105.38 263.109 102.897ZM264.469 89.9616C262.84 90.0083 262.148 90.8264 261.577 91.745C260.559 93.3813 260.523 96.9408 261.499 98.8821C260.964 95.484 261.423 92.4698 264.469 89.958V89.9616ZM263.655 106.339C263.612 106.385 263.572 106.428 263.529 106.475C263.845 106.672 264.135 106.934 264.476 107.053C265.327 107.354 266.22 107.533 267.052 107.871C267.605 108.093 268.078 108.509 268.588 108.836C268.215 109.32 267.859 109.819 267.465 110.282C267.318 110.454 267.081 110.544 266.884 110.67C267.497 110.652 268.111 110.53 268.48 110.164C268.947 109.701 269.492 109.048 269.51 108.463C269.535 107.62 268.609 107.515 267.92 107.35C266.5 107.013 265.079 106.676 263.658 106.335L263.655 106.339ZM270.435 92.3514C272.412 95.0247 273.729 97.8845 273.471 101.308C274.676 98.7457 273.252 94.5797 270.435 92.3514ZM260.982 103.54C259.407 103.116 259.213 103.192 258.686 104.196C257.911 105.668 258.112 106.938 259.285 108.007C258.783 104.383 258.876 104.085 260.982 103.54ZM264.76 111.211C263.285 110.659 261.825 110.11 260.408 109.575C261.635 111.19 262.589 111.556 264.76 111.211ZM264.361 108.753C264.017 108.438 263.816 108.1 263.601 108.097C263.386 108.09 263.16 108.409 262.937 108.585C263.117 108.807 263.267 109.155 263.49 109.213C263.68 109.263 263.96 108.979 264.361 108.75V108.753ZM271.924 123.465C271.964 123.343 272.007 123.221 272.046 123.099C271.623 122.952 271.203 122.805 270.78 122.658C270.74 122.776 270.701 122.895 270.658 123.013L271.921 123.465H271.924Z" fill="white"/>
<path d="M171.785 97.985C171.186 98.2254 170.555 98.4013 169.998 98.7134C165.984 100.988 162.002 103.324 157.969 105.563C156.993 106.105 156.548 106.823 156.448 107.853C156.042 111.979 155.741 116.124 155.214 120.236C154.453 126.153 153.574 132.056 152.659 137.955C151.881 142.964 150.611 147.855 148.914 152.642C147.421 156.847 145.459 160.83 142.452 164.095C138.8 168.06 134.29 170.666 128.64 169.865C123.484 169.133 119.746 166.428 118.275 161.164C118.171 160.791 117.956 160.371 118.042 160.037C118.16 159.592 118.436 159.061 118.809 158.857C119.032 158.731 119.685 159.047 119.925 159.341C120.456 159.987 120.854 160.748 121.299 161.465C124.033 165.879 129.393 166.654 133.677 164.494C136.342 163.148 138.079 160.905 139.553 158.422C142.158 154.03 143.837 149.254 145.053 144.328C146.051 140.298 146.905 136.225 147.647 132.142C148.193 129.149 148.462 126.106 148.845 123.085C149.165 120.577 149.463 118.065 149.785 115.557C150.108 113.056 150.449 110.558 150.801 107.928C150.169 107.727 149.628 107.569 149.093 107.383C146.983 106.651 145.534 105.312 145.014 103.059C144.655 101.512 145.096 100.884 146.643 100.848C147.877 100.82 149.111 100.77 150.342 100.691C151.834 100.594 152.11 100.378 152.365 98.8606C152.577 97.5975 152.634 96.3129 152.781 95.039C153.384 89.7499 154.101 84.4788 155.727 79.387C156.677 76.4051 158.288 73.8395 161.184 72.3396C163.58 71.0945 166.02 70.9868 168.484 72.2104C169.79 72.8599 170.698 73.8252 170.899 75.2964C171.064 76.5056 171.218 77.7364 171.19 78.9492C171.164 80.0472 170.555 81.0161 169.528 81.4072C168.793 81.6871 167.839 81.7732 167.1 81.5543C166.289 81.3139 166.579 80.3845 166.544 79.6776C166.475 78.3285 166.382 76.9577 166.095 75.6444C165.833 74.4388 165.047 74.2127 164.104 75.0452C163.49 75.587 163.002 76.319 162.593 77.0438C160.394 80.9622 159.476 85.2825 158.787 89.6566C158.374 92.2832 158.066 94.9278 157.743 97.5652C157.696 97.9599 157.822 98.3761 157.886 98.9251C161.801 98.0496 165.51 97.2171 169.216 96.3846C169.471 96.3272 169.719 96.2447 169.973 96.1945C171.638 95.8823 171.972 96.2268 171.746 98.0209L171.789 97.9814L171.785 97.985Z" fill="white"/>
<path d="M220.38 106.755C223.666 103.504 226.745 100.343 229.188 96.6322C229.758 95.7639 230.286 94.8668 230.774 93.9482C231.767 92.0823 232.069 90.2846 230.214 88.6806C229.604 88.1531 229.202 87.4498 229.866 86.6317C230.49 85.8674 231.308 85.9428 231.968 86.3985C233.407 87.3888 234.914 88.3577 236.109 89.61C237.745 91.3252 237.849 93.4925 236.528 95.5486C235.621 96.9588 234.551 98.3044 233.368 99.4885C230.659 102.205 227.843 104.817 225.048 107.444C224.574 107.889 223.982 108.212 223.207 108.761C224.273 109.582 224.922 110.081 225.568 110.583C227.207 111.857 228.872 113.099 230.487 114.409C233.629 116.956 233.655 120.821 232.119 124.169C230.863 126.907 228.765 128.973 226.576 130.911C223.986 133.204 221.09 135.077 217.74 136.118C216.936 136.369 216.114 136.563 215.296 136.781C212.742 137.46 210.622 136.95 208.824 134.84C207.924 133.785 206.657 132.999 205.455 132.257C202.381 130.355 201.706 127.814 203.615 124.226C205.039 121.546 207.138 119.403 209.309 117.34C211.662 115.101 214.095 112.945 216.484 110.741C216.861 110.393 217.191 109.999 217.625 109.536C216.947 108.872 216.319 108.244 215.68 107.627C212.258 104.322 212.182 100.371 213.754 96.2949C215.383 92.0715 218.346 88.7596 221.833 85.9607C223.953 84.2563 227.638 85.1426 228.951 87.5037C229.346 88.2106 229.08 88.9497 228.312 89.226C228.072 89.3122 227.799 89.3732 227.548 89.348C225.543 89.165 223.979 90.1231 222.712 91.4651C220.265 94.0594 218.568 97.0987 217.793 100.63C217.316 102.811 217.775 104.616 219.562 106.023C219.813 106.224 220.043 106.453 220.38 106.755ZM212.362 131.998C214.582 131.934 216.527 131.578 218.184 130.495C220.079 129.257 221.905 127.886 223.638 126.429C225.503 124.858 226.816 122.816 227.799 120.598C228.797 118.348 228.571 117.182 226.741 115.578C225.625 114.599 224.377 113.759 223.121 112.955C221.166 111.703 220.879 111.742 219.311 113.4C215.594 117.326 212.146 121.467 209.463 126.189C209.176 126.691 208.878 127.212 208.717 127.761C208.064 129.957 208.835 131.252 211.07 131.772C211.572 131.891 212.089 131.948 212.365 131.998H212.362Z" fill="white"/>
<path d="M269.711 46.888C269.811 42.7184 270.963 39.1624 274.005 36.3923C276.886 33.7693 280.298 32.8363 284.115 33.2741C288.959 33.8338 292.826 36.2739 295.969 39.837C298.929 43.1921 300.633 47.175 300.952 51.6783C301.243 55.8192 300.231 59.5797 297.325 62.6441C296.446 63.5699 295.355 64.3521 294.24 64.9765C292.701 65.8341 291.56 65.5255 290.491 64.1117C288.88 61.9839 287.33 59.813 285.758 57.6564C285.644 57.4985 285.55 57.3263 285.435 57.1684C283.444 54.348 281.704 54.5059 280.194 57.6492C279.771 58.5284 279.412 59.4398 278.97 60.3081C278.095 62.0233 277.119 62.2279 275.806 60.8751C271.982 56.9352 269.822 52.2632 269.714 46.8844L269.711 46.888ZM279.118 54.3444C279.042 52.7799 278.353 51.5025 277.001 50.6377C275.239 49.5146 273.485 50.4045 273.442 52.4785C273.406 54.1435 274.109 55.507 275.537 56.4292C276.28 56.9064 277.098 57.1146 277.937 56.6768C278.856 56.1996 279.121 55.3563 279.118 54.3444ZM284.151 39.4674C284.298 40.2102 284.327 40.6049 284.46 40.9602C284.743 41.7137 285.188 42.3703 286.07 42.4601C286.932 42.5498 287.574 42.0833 288.004 41.3907C288.729 40.221 288.898 38.9543 288.306 37.6841C287.685 36.3564 286.239 36.0837 285.317 37.1996C284.732 37.9065 284.449 38.861 284.151 39.4638V39.4674ZM280.876 40.892C280.89 39.3311 279.702 37.7594 278.257 37.4221C276.908 37.1063 275.943 37.8599 275.917 39.2378C275.892 40.6336 277.026 42.2268 278.361 42.6718C279.738 43.1311 280.865 42.3345 280.876 40.892ZM295.549 54.5454C296.385 54.2081 297.099 54.043 297.662 53.6627C298.595 53.0275 298.649 52.0013 297.928 51.1186C296.973 49.9452 294.71 49.5577 293.45 50.3507C292.36 51.0396 292.123 52.2776 293.088 53.1388C293.777 53.7524 294.713 54.0897 295.546 54.549L295.549 54.5454ZM294.799 60.3476C294.835 59.0092 293.809 57.4949 292.543 57.0105C291.022 56.4292 289.708 57.337 289.855 58.941C289.988 60.3942 290.774 61.4958 292.119 62.0915C293.519 62.7123 294.76 61.8726 294.799 60.3512V60.3476ZM292.5 46.6153C294.028 46.6404 295.617 45.4311 295.951 43.9922C296.245 42.7292 295.596 41.8213 294.304 41.6922C292.855 41.5486 291.136 42.7041 290.702 44.1143C290.275 45.5065 291.057 46.5938 292.5 46.6153Z" fill="white"/>
<path d="M120.259 96.0294C114.074 96.5856 108.226 97.1525 102.851 99.894C101.079 100.798 99.5616 101.961 99.149 104.135C99.027 104.774 98.4889 105.334 98.0978 106.012C96.5049 105.162 96.4618 103.762 96.7094 102.582C96.9641 101.362 97.6027 100.145 98.3418 99.1225C99.4647 97.5652 101.133 96.6035 102.859 95.7962C107.286 93.7186 112.011 92.8861 116.836 92.495C118.067 92.3945 119.305 92.2976 120.539 92.2761C121.827 92.2545 123.018 92.355 124.022 91.1314C124.761 90.2308 126.067 90.403 127.158 90.6936C127.962 90.9089 128.776 91.196 129.486 91.623C130.179 92.0357 130.738 92.6672 131.384 93.2234C131.334 94.4219 130.581 95.0534 129.605 95.545C129.099 95.7998 128.518 96.0186 128.148 96.4169C117.984 107.354 109.277 119.314 102.694 132.759C102.267 133.631 101.94 134.55 101.553 135.479C102.245 136.132 103.042 136.092 103.788 136.049C107.031 135.866 110.274 135.63 113.518 135.418C114.232 135.371 114.949 135.267 115.652 135.325C115.943 135.35 116.409 135.719 116.427 135.96C116.445 136.225 116.097 136.692 115.817 136.778C114.702 137.115 113.557 137.377 112.409 137.589C108.653 138.289 104.889 138.952 101.086 139.638C102.41 141.105 102.525 141.629 108.563 139.487C107.067 141.242 105.417 142.882 102.999 143.194C100.738 143.488 99.21 142.16 98.0153 140.226C95.6582 140.513 93.2903 140.829 90.9153 141.077C90.0148 141.17 89.0892 141.177 88.1851 141.102C87.2128 141.019 86.4415 140.581 86.2872 139.469C86.2513 139.218 86.1042 138.981 86.0648 138.73C85.5266 135.271 85.9248 134.901 89.369 135.167C92.0167 135.375 94.6824 135.407 97.3731 135.518C98.6288 129.526 101.51 124.312 104.57 119.188C109.047 111.699 114.117 104.613 119.269 97.5795C119.563 97.1741 119.81 96.7327 120.259 96.0258V96.0294Z" fill="white"/>
<path d="M198.176 124.352C198.854 123.896 199.414 123.519 199.984 123.139C200.939 124.09 200.573 124.883 200.124 125.719C198.84 128.127 197.537 130.527 196.343 132.981C195.776 134.144 195.435 135.418 195.005 136.645C194.657 137.632 194.007 138.141 192.931 138.016C191.808 137.883 190.681 137.643 190.115 136.563C189.924 136.197 190.147 135.565 190.283 135.084C191.413 131.087 192.708 127.125 193.67 123.089C194.33 120.326 194.793 117.477 194.599 114.595C194.552 113.928 194.37 113.267 194.169 112.155C193.049 113.357 192.185 114.2 191.417 115.126C187.201 120.225 183.994 125.93 181.389 131.991C180.851 133.247 180.349 134.517 179.829 135.78C178.695 138.533 176.776 138.041 174.756 136.803C174.096 136.397 174.239 135.701 174.458 135.038C175.165 132.881 175.986 130.746 176.506 128.543C177.543 124.129 178.422 119.676 179.334 115.234C179.448 114.674 179.348 114.071 179.348 113.088C178.716 113.637 178.311 113.974 177.92 114.33C177.536 114.681 177.228 115.162 176.783 115.374C176.392 115.56 175.861 115.46 175.394 115.485C175.416 115.062 175.276 114.531 175.48 114.233C176.503 112.729 177.558 111.237 178.72 109.841C179.552 108.843 180.169 108.857 181.257 109.546C181.64 109.787 182.006 110.095 182.43 110.232C184.708 110.978 184.805 112.141 184.468 114.215C184.105 116.45 183.535 118.653 183.061 120.871C183.022 121.054 183.022 121.244 182.964 121.843C183.492 121.111 183.825 120.695 184.112 120.247C186.215 116.953 188.371 113.702 191.115 110.892C191.298 110.705 191.478 110.519 191.672 110.343C193.986 108.222 196.063 108.204 198.406 110.296C199.184 110.993 199.446 111.886 199.453 112.927C199.471 116.318 198.987 119.644 198.316 122.956C198.23 123.379 198.226 123.821 198.18 124.352H198.176Z" fill="white"/>
<path d="M120.428 112.97C119.674 113.899 119.247 114.452 118.795 114.979C118.505 115.32 118.217 115.697 117.848 115.93C117.622 116.074 117.109 116.109 116.962 115.959C116.739 115.729 116.531 115.194 116.653 114.972C117.636 113.145 118.648 111.326 119.753 109.572C120.23 108.814 121.059 108.804 121.855 109.184C122.318 109.406 122.763 109.69 123.247 109.844C125.282 110.49 125.913 111.466 125.676 113.583C125.439 115.708 125.239 117.839 125.034 119.97C125.013 120.196 125.091 120.433 125.192 121.122C125.845 119.838 126.311 118.941 126.76 118.033C128.292 114.936 129.946 111.915 132.141 109.227C132.59 108.678 133.092 108.158 133.637 107.706C134.495 106.995 135.463 106.73 136.547 107.225C136.784 107.332 137.031 107.426 137.286 107.48C139.374 107.91 140.432 108.578 140.501 111.814C140.572 115.173 140.515 118.531 140.515 121.955C140.752 121.736 141.006 121.384 141.347 121.219C141.702 121.047 142.298 120.864 142.513 121.036C142.772 121.237 142.868 121.836 142.797 122.22C142.689 122.784 142.366 123.304 142.14 123.842C140.755 127.14 139.356 130.419 138.685 133.972C138.28 136.121 137.63 136.466 135.582 136.067C133.752 135.712 133.282 135.038 133.792 133.179C135.273 127.768 135.898 122.235 136.03 116.651C136.077 114.696 135.93 112.697 134.965 110.483C133.935 111.94 133.031 113.102 132.245 114.34C128.381 120.43 125.723 127.043 123.847 133.986C123.696 134.55 123.57 135.124 123.369 135.673C122.638 137.668 120.072 138.357 118.422 137.008C117.726 136.437 117.984 135.687 118.117 135.009C118.533 132.845 119.079 130.703 119.427 128.528C120.04 124.703 120.625 120.864 120.492 116.963C120.478 116.583 120.689 116.199 120.675 115.819C120.646 115.019 120.539 114.222 120.42 112.97H120.428Z" fill="white"/>
<path d="M179.517 19.8467C179.936 19.287 180.439 18.7703 180.758 18.1567C182.182 15.4511 183.538 12.7097 184.948 9.99693C185.845 8.27097 187.191 6.96125 188.916 6.07495C191.546 4.72576 195.019 6.18977 195.683 8.95275C195.826 9.5484 195.754 10.2445 195.607 10.8545C195.424 11.6045 194.825 12.1786 194.057 12.0817C193.602 12.0243 193.082 11.5327 192.809 11.0985C191.22 8.57598 188.952 8.40733 186.975 10.7576C186.563 11.2457 186.265 11.8485 185.996 12.437C182.189 20.7151 178.404 29.004 174.594 37.2822C172.933 40.8884 171.258 44.491 169.536 48.0649C168.596 50.017 168.52 51.9295 169.439 53.8923C170.763 56.7163 169.873 59.0666 167.864 61.1693C166.203 62.9096 164.316 64.2086 161.804 64.3485C158.608 64.5279 156.433 62.619 156.042 60.0175C155.303 55.0908 157.711 50.6772 162.486 49.1055C164.362 48.4884 165.525 47.4836 166.422 45.7182C170.479 37.7056 174.677 29.7647 178.806 21.788C179.133 21.1601 179.319 20.4639 179.574 19.7965L179.52 19.8432L179.517 19.8467ZM166.569 54.5633C165.815 54.6638 165.395 55.1051 165.553 55.9376C165.593 56.1386 166.07 56.4651 166.217 56.4077C166.981 56.1063 167.236 55.5357 166.809 54.7678C166.78 54.7176 166.716 54.6853 166.572 54.5633H166.569ZM161.653 54.7248C162.149 53.8492 162.389 53.5191 162.507 53.1495C162.543 53.0383 162.249 52.7118 162.062 52.6687C161.607 52.5682 161.119 53.1962 161.244 53.6842C161.305 53.9246 161.424 54.1471 161.653 54.7248ZM160.455 58.3059C161.419 59.2245 162.298 59.6527 163.092 59.5905C162.131 59.124 161.295 58.7149 160.455 58.3059Z" fill="white"/>
<path d="M270.999 16.3518C270.941 17.5861 271.189 17.927 272.394 18.2715C275.074 19.0322 276.125 22.2652 274.364 24.4039C272.541 26.6142 270.712 28.8174 268.846 30.9919C267.206 32.9045 265.725 33.0085 263.834 31.4261C263.034 30.7587 262.273 30.0339 261.42 29.4454C260.681 28.9394 259.873 28.4873 259.03 28.2038C257.086 27.5472 255.511 26.4276 254.596 24.6084C253.928 23.2771 253.032 22.2545 251.851 21.3933C251.066 20.8228 250.33 20.1625 249.638 19.4772C248.36 18.2105 248.267 17.0945 249.404 15.6879C250.84 13.9189 252.368 12.2253 253.846 10.4885C254.477 9.74575 255.048 8.94557 255.697 8.22074C256.878 6.89666 258.065 6.79978 259.45 7.90497C260.264 8.55445 261.039 9.25057 261.825 9.93593C262.453 10.4849 263.127 10.8258 263.956 10.4239C264.943 9.9467 265.718 10.3486 266.449 10.9729C267.687 12.0315 268.932 13.0793 270.148 14.1629C271.081 14.9918 271.063 15.0133 270.999 16.3589V16.3518ZM255.26 20.7869C255.263 24.1491 258.022 26.8546 261.391 26.808C264.623 26.7649 267.282 24.002 267.257 20.7151C267.232 17.4785 264.476 14.798 261.194 14.816C257.85 14.8339 255.252 17.4462 255.256 20.7869H255.26ZM269.298 14.7837C269.248 14.6725 269.208 14.3746 269.04 14.2203C268.179 13.4453 267.318 12.6558 266.371 11.992C266.141 11.8341 265.449 12.0135 265.223 12.2683C265 12.5195 264.907 13.2479 265.093 13.4345C265.958 14.2921 266.887 15.1066 267.895 15.792C268.448 16.1688 269.244 15.5911 269.298 14.7873V14.7837ZM256.504 10.6572C256.795 11.0447 256.96 11.3174 257.179 11.5399C257.495 11.8592 257.832 12.1607 258.191 12.4262C259.059 13.0721 259.504 13.0183 260.135 12.2324C260.759 11.4574 260.738 10.9945 259.888 10.2804C259.317 9.79958 258.65 9.43357 257.914 8.94198C257.376 9.59505 256.949 10.1153 256.504 10.6572Z" fill="white"/>
<path d="M231.889 155.067C231.929 158.925 230.243 162.014 227.663 164.626C225.597 166.718 223.121 168.279 220.334 169.291C215.77 170.949 211.838 168.487 211.479 163.654C211.163 159.438 212.76 155.914 215.713 152.979C217.722 150.98 220.133 149.559 222.77 148.598C228.79 146.405 232.148 150.765 231.889 155.064V155.067ZM215.748 161.038C215.982 161.863 216.193 163.227 216.746 164.436C217.801 166.74 221.04 167.501 223.096 166.065C226.163 163.923 228.076 158.706 227.222 154.985C226.791 153.112 225.798 151.745 223.921 151.285C221.962 150.804 220.194 151.325 218.798 152.853C216.821 155.017 216.093 157.669 215.745 161.042L215.748 161.038Z" fill="white"/>
<path d="M232.302 8.43962C233.077 3.81434 235.761 1.27384 239.897 0C239.98 0.297827 240.073 0.470064 240.033 0.516712C238.455 2.31803 237.823 4.42793 237.813 6.80337C237.806 8.09156 237.576 9.37975 237.422 10.9191C237.863 11.2205 238.455 11.5865 239.004 12.0064C240.442 13.1151 241.967 14.1414 243.262 15.4009C244.852 16.9474 244.694 18.2177 243.036 19.714C241.081 21.483 238.713 22.1576 236.173 21.9602C230.871 21.5476 226.587 19.2834 223.756 14.6258C222.813 13.0757 222.45 11.3712 222.533 9.57711C222.619 7.67532 223.602 6.6419 225.496 6.74237C226.838 6.81413 228.169 7.19449 229.486 7.51385C230.354 7.72197 231.19 8.06644 232.302 8.43603V8.43962ZM233.249 9.56275C232.212 9.14292 231.398 8.73745 230.537 8.4755C228.811 7.95521 227.15 7.04737 225.263 7.33802C224.736 7.42055 223.939 7.63944 223.817 7.9875C223.677 8.3858 224.09 9.03528 224.373 9.51252C224.563 9.83187 224.915 10.0759 225.241 10.2804C226.809 11.2744 228.492 11.9525 230.379 11.9059C231.671 11.8736 232.962 11.766 234.218 11.6942C234.354 11.809 234.48 11.8736 234.548 11.9741C234.727 12.2432 234.899 12.5231 235.047 12.8137C236.281 15.2358 238.171 16.951 240.679 17.9737C241.207 18.189 241.806 18.3468 242.369 18.3325C243.714 18.2966 244.159 17.4785 243.384 16.4056C242.861 15.6772 242.197 15.0062 241.476 14.4679C239.872 13.2623 238.193 12.1571 236.55 11.0124C236.231 9.10704 235.911 7.21243 235.567 5.1707C234.021 6.18977 233.622 7.74708 233.253 9.55916L233.249 9.56275Z" fill="white"/>
<path d="M259.658 162.165C261.093 162.061 262.392 161.964 263.694 161.871C263.762 162.014 263.834 162.154 263.902 162.298C263.468 162.71 263.088 163.209 262.589 163.518C261.821 163.995 261.003 164.451 260.146 164.716C259.041 165.061 258.37 165.671 258.191 166.801C259.077 166.962 259.931 167.117 260.802 167.275C260.002 170.17 255.762 170.791 252.77 169.463C253.494 168.175 254.99 167.178 254.564 165.362C251.249 164.824 247.765 165.821 244.062 164.558C244.848 163.83 245.336 163.353 245.853 162.904C248.934 160.209 252.038 157.54 255.091 154.813C255.959 154.037 256.784 153.165 257.434 152.207C258.356 150.847 259.64 150.033 261.061 149.383C261.416 149.222 262.019 149.136 262.263 149.33C262.507 149.523 262.586 150.137 262.499 150.51C261.75 153.664 260.946 156.808 260.164 159.955C259.995 160.633 259.852 161.318 259.658 162.165ZM255.579 161.978C256.128 160.26 256.662 158.605 256.788 156.503C254.517 158.415 252.526 160.094 250.287 161.978H255.579Z" fill="white"/>
<path d="M166.052 114.215C164.538 114.344 164.459 117.283 162.195 116.231C162.26 115.876 162.224 115.507 162.385 115.273C163.368 113.831 164.362 112.388 165.428 111.003C165.991 110.271 166.777 110.002 167.677 110.505C167.788 110.566 167.918 110.605 168.043 110.637C171.656 111.613 171.369 112.464 171.014 115.801C170.752 118.237 170.038 120.623 169.518 123.031C169.191 124.535 168.85 126.035 168.51 127.578C168.675 127.56 168.797 127.588 168.854 127.538C169.36 127.107 169.758 126.149 170.572 126.842C171.276 127.438 170.666 128.184 170.357 128.787C169.32 130.807 168.205 132.791 167.175 134.815C166.648 135.852 166.296 136.979 165.765 138.016C165.08 139.358 164.036 139.537 162.267 138.719C160.943 138.106 160.778 137.621 161.352 136.071C163.838 129.347 165.614 122.453 166.26 115.295C166.289 114.99 166.253 114.674 166.231 114.365C166.231 114.322 166.138 114.287 166.059 114.222L166.052 114.215Z" fill="white"/>
<path d="M93.685 64.5961C96.7058 67.6677 99.7266 70.7428 102.941 74.0117C97.8646 78.411 92.91 82.516 87.7294 86.4595C89.0784 79.0712 91.1557 71.9521 93.1217 64.8042L93.685 64.5961Z" fill="white"/>
<path d="M113.005 84.5828C111.666 85.2538 91.4319 88.024 89.0353 87.841C89.2685 87.4821 89.3977 87.1197 89.6524 86.908C94.0222 83.2229 98.4099 79.5628 102.783 75.8812C103.469 75.3035 104.078 75.0739 104.803 75.8238C107.465 78.5796 110.152 81.3139 112.818 84.0661C112.936 84.1881 112.944 84.4142 113.005 84.5864V84.5828Z" fill="white"/>
<path d="M104.43 179.417C103.178 180.02 101.922 180.623 100.674 181.226C100.527 181.269 100.38 181.308 100.229 181.351C96.8637 181.545 93.4948 182.101 90.1332 181.481C88.6766 181.211 87.2379 180.784 85.8387 180.289C85.1965 180.063 84.5974 179.568 84.1238 179.059C83.3632 178.237 83.3525 177.203 84.1884 176.453C84.9454 175.772 85.8387 175.154 86.7787 174.788C91.5144 172.958 96.3901 172.707 101.316 173.852C102.364 174.096 103.415 174.584 104.304 175.194C105.768 176.188 105.862 177.171 104.893 178.682C104.721 178.954 104.538 179.22 104.362 179.486L104.423 179.421L104.43 179.417ZM98.7436 177.246C96.7022 179.17 93.2401 179.364 90.8507 177.512C91.4032 178.915 92.3145 179.507 94.3487 179.392C96.0779 179.295 97.9471 179.256 98.7436 177.246ZM97.0538 175.815C95.5685 175.176 94.4994 175.226 92.989 175.815H97.0538Z" fill="white"/>
<path d="M199.353 166.155C200.562 166.155 201.767 166.155 202.976 166.155C204.343 166.159 205.71 166.134 207.073 166.205C207.461 166.227 207.838 166.543 208.218 166.726C208.006 167.088 207.866 167.533 207.569 167.802C206.421 168.846 205.093 169.395 203.486 169.324C200.82 169.202 198.151 169.198 195.485 169.123C195.112 169.112 194.746 168.975 194.068 168.828C194.405 168.089 194.542 167.361 194.972 166.923C196.508 165.348 198.097 163.816 199.751 162.369C201.943 160.45 204.3 158.706 206.417 156.711C207.203 155.968 207.734 154.777 207.988 153.697C208.336 152.229 207.436 151.109 206.062 150.819C204.358 150.46 202.919 151.21 202.567 152.782C202.37 153.657 202.417 154.583 202.345 155.591C201.2 156.244 200.027 156.915 198.589 157.737C198.352 157.034 198.007 156.474 198.015 155.921C198.036 154.296 198.65 152.875 199.898 151.788C201.828 150.105 203.974 148.777 206.403 147.937C207.691 147.492 208.964 147.582 210.223 148.074C212.172 148.838 213.036 150.654 212.383 152.663C211.712 154.726 210.284 156.23 208.659 157.568C205.8 159.926 202.923 162.258 200.067 164.623C199.733 164.899 199.496 165.287 199.213 165.624C199.26 165.803 199.31 165.983 199.356 166.162L199.353 166.155Z" fill="white"/>
<path d="M234.548 166.381C237.662 167.282 240.851 165.857 244.001 167.293C242.602 168.947 241.167 169.93 239.198 169.894C236.665 169.847 234.132 169.783 231.599 169.682C230.928 169.657 230.264 169.481 229.227 169.316C229.791 168.437 230.121 167.842 230.526 167.3C232.27 164.978 234.648 163.367 236.894 161.598C238.724 160.155 240.468 158.591 242.15 156.976C242.731 156.42 243.126 155.591 243.409 154.816C243.976 153.27 243.248 151.92 241.712 151.429C240.163 150.934 238.649 151.533 238.175 152.979C237.856 153.951 237.784 155.003 237.565 156.244C236.805 156.704 235.9 157.328 234.925 157.812C234.078 158.232 233.551 157.884 233.468 156.926C233.281 154.784 234.221 153.076 235.861 151.867C237.422 150.715 239.126 149.732 240.859 148.852C242.548 147.995 244.342 147.858 246.097 148.842C247.668 149.721 248.447 151.192 247.873 152.889C247.467 154.084 246.864 155.333 246 156.219C244.464 157.794 242.663 159.108 240.981 160.536C239 162.219 237.023 163.902 235.057 165.602C234.874 165.76 234.777 166.022 234.548 166.381Z" fill="white"/>
<path d="M58.9922 176.88C59.2469 177.864 59.5411 178.57 59.5949 179.295C59.8424 182.503 59.5949 185.704 58.4648 188.711C57.2952 191.826 55.2323 194.337 52.2366 195.945C50.841 196.695 50.4607 196.508 49.9871 195.041C48.6955 191.036 49.553 187.304 51.6482 183.842C53.0366 181.549 54.974 179.683 57.1122 178.061C57.6109 177.681 58.1778 177.39 58.9922 176.884V176.88Z" fill="white"/>
<path d="M161.862 65.486C163.738 64.51 165.446 63.839 166.909 62.8163C170.544 60.2758 171.193 57.6707 170.081 53.4294C169.507 51.2334 169.607 49.4859 170.572 47.4729C173.023 42.3668 175.258 37.1602 177.601 32.0002C178.117 30.8592 178.709 29.7504 179.269 28.6273C179.409 28.6918 179.545 28.7564 179.685 28.821C178.699 31.6952 177.723 34.5694 176.722 37.4401C175.455 41.0678 174.246 44.7171 172.854 48.2982C172.151 50.1103 172.241 51.6281 173.296 53.2679C174.214 54.6925 174.734 56.318 174.688 58.0762C174.583 61.9982 171.19 65.7444 167.283 66.2001C165.474 66.4082 163.688 66.401 161.862 65.4896V65.486Z" fill="white"/>
<path d="M74.7815 92.4985C75.0255 93.27 75.2515 93.9805 75.5062 94.7879C74.2613 95.2579 73.1922 95.1575 71.9688 94.5582C72.4101 93.6898 72.8011 92.9148 73.1384 92.2545C72.0728 91.074 70.9104 90.1016 70.1749 88.8744C69.4753 87.7082 69.2242 86.2729 68.6502 84.5828C68.1156 85.6449 67.7784 86.3088 67.3191 87.2166C66.3074 86.438 65.4213 85.7562 64.284 84.8806C65.4428 84.3209 66.2715 83.9154 67.0931 83.5207C66.8205 82.4155 66.0061 82.376 65.2311 82.272C62.2713 81.8808 59.3796 82.3258 56.531 83.0614C51.9711 84.2383 47.6551 86.0361 43.5257 88.2967C42.8871 88.6447 42.2772 89.2189 41.1865 88.9892C41.5345 88.6196 41.6996 88.3362 41.9435 88.1998C47.203 85.2754 52.6563 82.8461 58.6154 81.7301C61.7798 81.1381 64.9369 80.9192 68.2125 82.3078C68.478 81.2888 68.6968 80.4455 68.9444 79.4982C70.4189 79.8391 71.2333 80.8689 72.2343 82.0854C71.1938 82.5662 70.2933 82.9789 69.3211 83.4274C69.8485 85.1964 70.3005 86.8829 70.8638 88.5299C71.1508 89.3696 71.6531 90.1267 72.9123 90.2379C72.672 89.427 72.4854 88.7883 72.2056 87.8446C73.472 87.9379 74.5089 88.0096 75.8901 88.1101C75.4058 89.2404 75.0649 90.0298 74.7313 90.8085C76.5072 91.7773 79.8975 91.4472 82.6062 89.9975C81.9999 89.3157 81.4295 88.677 80.7729 87.9414C81.7165 86.969 82.8107 86.8398 84.07 86.8183V89.5849C85.0602 89.3086 85.932 89.0682 87.0191 88.7667C86.6603 90.2379 84.949 89.8181 84.6046 91.074C85.1427 91.6661 85.7311 92.3155 86.3984 93.0511C85.3365 93.9841 84.1884 94.0307 82.8107 94.3465C82.9184 93.3059 83.0009 92.5093 83.1085 91.4508C80.3532 91.7952 77.7055 92.129 74.7815 92.495V92.4985Z" fill="white"/>
<path d="M193.587 20.0872C193.605 22.6348 192.181 24.6227 189.67 25.5557C187.413 26.3918 185.246 25.8679 183.657 24.0666C182.727 23.0152 182.315 21.8813 183.072 20.5106C183.667 19.4305 184.148 18.2894 184.69 17.1807C185.651 15.2071 187.754 14.3136 189.863 14.9703C192.238 15.7131 193.566 17.5359 193.584 20.0872H193.587Z" fill="white"/>
<path d="M254.054 130.136C254.047 134.603 250.466 138.235 246.021 138.278C241.547 138.321 237.795 134.578 237.816 130.089C237.838 125.672 241.519 122.034 245.946 122.052C250.38 122.07 254.061 125.74 254.054 130.136ZM252.332 130.638C251.851 129.07 251.485 127.707 250.997 126.386C250.857 126.009 250.405 125.708 250.029 125.475C249.272 125.005 248.461 124.621 247.682 124.179C246.265 123.376 241.996 124.646 241.257 126.092C240.851 126.889 240.407 127.671 240.03 128.482C239.843 128.884 239.589 129.379 239.675 129.763C239.983 131.133 240.356 132.501 240.837 133.821C241.106 134.564 244.841 136.616 245.605 136.444C246.976 136.136 248.536 135.967 249.605 135.181C251.098 134.083 251.6 132.142 252.332 130.638Z" fill="white"/>
<path d="M47.6766 194.793C42.0547 191.966 39.651 181.086 42.7794 177.017C43.4539 177.397 44.2755 177.681 44.8567 178.222C46.2774 179.546 47.612 180.971 48.9359 182.399C49.4848 182.995 49.7898 183.695 49.2516 184.52C47.5188 187.179 47.4721 190.139 47.752 193.15C47.795 193.598 47.8452 194.047 47.8811 194.495C47.8847 194.546 47.813 194.603 47.6802 194.793H47.6766Z" fill="white"/>
<path d="M95.2313 63.8892C96.9533 63.5519 111.053 64.5351 113.27 65.1415C112.972 65.5219 112.771 65.9166 112.456 66.1678C109.977 68.1665 107.487 70.1544 104.972 72.11C103.802 73.0214 103.626 73.025 102.672 72.0526C100.394 69.7345 98.1516 67.3806 95.9129 65.0195C95.6259 64.7181 95.4716 64.2947 95.2313 63.8892Z" fill="white"/>
<path d="M45.9115 94.4219C44.8962 93.898 43.9634 93.4136 43.0306 92.9327C43.0987 92.7856 43.1705 92.6421 43.2387 92.495C44.2253 92.9112 45.2083 93.3274 46.238 93.758C47.4362 92.9399 47.5331 91.1529 49.1583 90.5537C49.7898 92.4017 51.5083 92.9758 53.0223 93.6683C54.5291 94.3537 55.9139 95.7818 57.9266 94.8991C58.4684 96.46 56.8826 97.5544 57.1624 99.1548C58.1311 99.6428 59.2002 100.181 60.2694 100.719C58.8415 101.125 58.045 99.7217 56.6781 99.6787C55.9462 100.762 55.2072 101.864 54.1811 103.385C53.8367 101.606 52.6958 101.132 51.6482 100.579C50.7297 100.095 49.7646 99.6966 48.8211 99.2553C47.7125 98.735 46.629 98.0711 45.3482 98.8821C44.6163 97.2458 45.9581 96.0366 45.9115 94.4254V94.4219Z" fill="white"/>
<path d="M70.2072 188.833C68.5031 194.782 58.68 199.264 53.9694 197.456C54.2062 197.151 54.3605 196.792 54.6295 196.627C57.1732 195.073 58.9922 192.931 59.8137 190.057C60.316 188.305 61.4964 187.67 63.1359 187.746C65.1414 187.843 67.1398 188.051 69.1381 188.262C69.4825 188.298 69.7946 188.603 70.2072 188.833Z" fill="white"/>
<path d="M104.925 74.0117C108.082 71.3636 111.035 68.8841 114.128 66.2898C115.003 67.9189 114.551 69.3506 114.587 70.7177C114.623 72.0813 114.551 73.4484 114.519 74.8155C114.486 76.2472 114.476 77.679 114.393 79.1071C114.318 80.4455 114.54 81.8234 113.916 83.3879C110.708 80.4061 107.982 77.2448 104.925 74.0082V74.0117Z" fill="white"/>
<path d="M110.981 190.297C111.419 190.954 111.702 191.474 112.075 191.922C113.284 193.379 114.881 194.018 116.747 193.896C120.377 193.663 123.649 192.626 125.87 189.504C127.205 190.423 127.624 191.585 127.144 193.006C126.706 194.298 125.856 195.263 124.636 195.873C121.31 197.535 117.78 197.84 114.167 197.283C112.804 197.075 111.587 196.411 110.63 195.349C109.342 193.918 109.316 192.536 110.978 190.297H110.981Z" fill="white"/>
<path d="M46.8012 197.233C45.0074 196.971 43.3678 196.193 41.8502 195.267C37.7459 192.751 35.5216 188.837 34.1511 184.366C33.7421 183.038 34.1331 182.514 35.561 182.647C36.8347 182.765 38.0975 183.092 39.346 183.407C40.0456 183.583 40.3506 184.143 40.4008 184.879C40.6842 189.005 42.9337 192.163 45.524 195.145C46.0191 195.715 46.5644 196.243 47.0882 196.792L46.8012 197.237V197.233Z" fill="white"/>
<path d="M265.28 81.2852C264.849 80.1298 264.422 78.9707 263.985 77.8153C263.443 76.3764 263.486 76.136 264.753 75.1959C265.524 74.6218 266.356 74.1302 267.368 73.4663C268.093 74.5823 268.735 75.5727 269.528 76.7998C269.854 75.709 269.445 74.9483 269.33 74.1732C269.119 72.763 269.234 72.5298 270.518 71.8875C270.633 71.8301 270.755 71.7798 270.873 71.726C273.697 70.4342 273.765 70.4665 274.823 73.4197C275.085 74.1553 275.365 74.8837 275.67 75.6014C276.025 76.441 275.777 76.9828 274.916 77.2556C274.174 77.4888 273.438 77.7902 272.678 77.9301C269.937 78.4361 267.763 80.1908 265.276 81.2457L265.284 81.2852H265.28Z" fill="white"/>
<path d="M112.463 178.85C111.982 178.761 111.053 178.714 110.213 178.413C108.459 177.781 108.093 176.328 109.273 174.875C110.475 173.396 112.194 172.729 113.937 172.208C115.753 171.67 117.633 171.473 119.505 171.972C120.471 172.226 121.411 172.621 121.637 173.726C121.855 174.803 121.245 175.603 120.467 176.242C118.268 178.05 115.681 178.757 112.459 178.85H112.463ZM111.648 175.093C112.732 176.604 113.98 176.385 115.136 176.156C116.355 175.912 117.618 175.581 118.106 173.784C116.129 175.499 114.185 176.098 111.648 175.093Z" fill="white"/>
<path d="M53.3272 199.451C53.9479 199.404 54.3318 199.311 54.7013 199.357C57.3526 199.673 59.8927 199.081 62.3287 198.202C63.6992 197.71 64.9549 196.817 66.1532 195.949C67.0357 195.31 67.6779 195.231 68.5605 195.923C69.6727 196.795 70.9571 197.456 71.671 198.744C68.643 202.748 56.1794 203.373 53.3308 199.451H53.3272Z" fill="white"/>
<path d="M104.81 194.962C105.514 196.462 105.366 197.599 104.731 198.625C103.856 200.036 102.651 201.159 101.065 201.726C97.9758 202.827 94.8079 203.025 91.6579 202.095C90.7036 201.815 89.778 201.198 89.0353 200.524C88.2927 199.849 88.1026 198.877 88.7447 197.703C94.6142 200.168 99.8665 198.905 104.814 194.962H104.81Z" fill="white"/>
<path d="M263.899 84.7909C263.3 85.0098 262.7 85.2287 261.667 85.6055C262.134 84.9703 262.316 84.6008 262.604 84.3496C265.714 81.6727 269.363 79.9539 273.23 78.7734C280.567 76.5343 280.915 77.1802 285.823 80.79C289.299 83.3484 292.148 86.5564 294.265 90.3635C294.57 90.9125 294.81 91.4938 295.183 92.2725C294.175 92.1612 293.949 91.4867 293.587 91.0309C291.072 87.8697 288.338 84.9273 285.084 82.516C284.212 81.8665 283.193 81.418 282.239 80.8761L282.296 80.9407C280.65 78.9779 278.493 79.2112 276.355 79.6525C272.437 80.4599 268.731 81.8808 265.233 83.8185C264.731 84.0948 264.3 84.5039 263.838 84.8519L263.895 84.7909H263.899Z" fill="white"/>
<path d="M94.503 198.238C92.4006 198.636 90.718 197.918 89.1179 196.928C88.8954 196.788 88.7519 196.383 88.7232 196.085C88.386 192.303 88.5725 188.567 89.9359 184.972C90.0184 184.753 90.2408 184.588 90.6283 184.125C91.1198 186.712 91.4176 189.059 92.0418 191.32C92.6697 193.605 93.6204 195.801 94.4994 198.241L94.503 198.238Z" fill="white"/>
<path d="M101.463 196.193C99.558 197.696 97.879 198.191 95.8663 197.843C95.2169 193.444 95.7874 189.142 97.2475 184.879C98.2413 188.819 99.4719 192.601 101.463 196.193Z" fill="white"/>
<path d="M209.176 15.3722C206.076 15.3829 203.55 13.029 203.536 10.1225C203.518 6.90025 205.843 4.32028 208.81 4.25569C211.938 4.18752 214.654 6.65625 214.654 9.56275C214.654 12.9644 212.39 15.365 209.176 15.3722ZM209.05 5.73406C206.754 5.72689 204.928 7.50308 204.899 9.76728C204.874 12.114 206.79 14.0983 209.047 14.0624C211.3 14.0266 213.28 12.1786 213.341 10.0651C213.406 7.66097 211.511 5.74483 209.05 5.73765V5.73406Z" fill="white"/>
<path d="M94.1155 195.227C92.5907 191.212 91.5467 187.1 91.6113 182.55H96.4403C95.7909 186.802 95.1487 190.982 94.5101 195.163C94.3774 195.184 94.2482 195.206 94.1155 195.231V195.227Z" fill="white"/>
<path d="M171.738 98.0245C172.732 98.4623 173.812 98.7744 174.698 99.3701C175.839 100.138 175.983 101.039 175.061 101.99C173.992 103.095 172.808 104.171 171.487 104.932C169.604 106.019 167.663 105.427 166.594 103.672C168.305 101.796 170.041 99.894 171.778 97.9886L171.735 98.0245H171.738Z" fill="white"/>
<path d="M133.899 75.1564C134.606 75.0918 135.316 74.9806 136.023 74.9734C138.416 74.9483 140.461 76.4554 141.132 78.6945C141.817 80.9838 141.003 83.3126 139.037 84.6797C137.135 86.0038 134.552 85.8961 132.712 84.4178C132.263 84.0589 131.822 83.6857 131.377 83.3197L131.438 83.3843C131.374 83.1367 131.327 82.8856 131.244 82.6451C130.154 79.4982 130.742 77.5857 133.404 75.6085C133.605 75.4578 133.777 75.2712 133.964 75.099L133.903 75.1528L133.899 75.1564ZM133.322 82.9107L133.25 82.8353C134.922 84.7084 136.952 84.7873 138.398 83.0363C138.778 82.6703 139.155 82.3007 139.535 81.9347C139.654 81.0663 139.952 80.1728 139.851 79.3296C139.675 77.8153 138.237 76.5702 136.694 76.3226C135.072 76.0607 133.795 76.6922 132.866 78.2172L132.927 78.1347C131.65 79.8606 131.775 81.3641 133.322 82.9143V82.9107Z" fill="white"/>
<path d="M120.158 177.788C121.002 179.252 121.654 180.645 122.182 182.205C122.996 184.613 122.928 187.05 123.212 189.472C123.423 191.262 123.258 191.37 121.167 191.98C121.034 191.578 120.826 191.18 120.783 190.763C120.521 188.381 120.306 185.995 120.051 183.608C120.019 183.314 119.882 183.02 119.749 182.751C119.351 181.94 118.863 181.168 118.526 180.336C117.823 178.599 117.916 178.474 120.155 177.788H120.158Z" fill="white"/>
<path d="M117.773 192.741C115.789 193.343 115.383 193.232 114.784 191.793C113.672 189.124 112.553 186.447 112.09 183.565C111.979 182.869 112.022 182.144 112.032 181.43C112.065 179.432 112.294 179.274 114.461 179.783C114.554 180.182 114.608 180.63 114.766 181.046C115.29 182.435 114.303 183.895 115.161 185.338C115.907 186.597 116.277 188.087 116.765 189.493C117.138 190.566 117.435 191.661 117.769 192.744L117.773 192.741Z" fill="white"/>
<path d="M120.144 191.804C119.979 192.005 119.688 192.36 119.398 192.715C119.079 192.454 118.576 192.249 118.476 191.919C117.708 189.403 116.241 187.118 116.176 184.366C116.147 183.102 115.688 181.857 115.469 180.594C115.351 179.902 115.484 179.274 116.323 179.109C117.077 178.962 117.389 179.486 117.582 180.056C118.16 181.743 118.849 183.411 119.218 185.144C119.663 187.229 119.818 189.378 120.14 191.804H120.144Z" fill="white"/>
<path d="M85.8531 181.308C87.4604 181.728 88.6838 182.048 89.9717 182.385C89.3798 184.441 88.7304 186.267 88.3501 188.144C87.9842 189.949 87.8981 191.811 87.6326 194.129C86.2908 192.407 86.1365 190.742 85.7885 189.174C85.2216 186.633 85.1786 184.096 85.8567 181.305L85.8531 181.308Z" fill="white"/>
<path d="M284.582 77.7723C285.575 76.764 286.587 75.7664 287.563 74.7366C288.55 73.6924 288.715 73.6565 289.82 74.4746C289.873 74.5141 289.92 74.5572 289.97 74.5966C292.55 76.6025 292.6 76.9864 290.605 79.5162C289.409 81.0304 288.029 81.1524 286.465 79.8822C285.726 79.2793 284.768 78.8452 284.643 77.7184L284.585 77.7759L284.582 77.7723Z" fill="white"/>
<path d="M100.229 181.351C100.38 181.308 100.527 181.269 100.674 181.226C101.169 181.226 101.664 181.226 102.242 181.226C101.876 185.302 101.528 189.203 101.18 193.099C99.1454 189.816 98.4422 186.163 98.0153 182.356C98.8405 181.983 99.5329 181.667 100.229 181.351Z" fill="white"/>
<path d="M123.524 182.202C122.602 180.49 121.816 179.166 121.17 177.774C120.765 176.898 120.926 176.73 122.487 175.546C123.674 177.584 125.68 179.198 125.759 181.739C125.913 186.849 125.572 188.359 124.431 189.486C123.66 188.284 123.14 183.393 123.524 182.202Z" fill="white"/>
<path d="M102.543 195.389C101.804 190.975 102.145 186.874 103.429 182.79C103.73 183.978 104.003 185.169 104.333 186.35C104.735 187.785 105.101 189.246 105.646 190.627C106.03 191.6 105.987 192.382 105.313 193.142C104.595 193.953 104.028 194.94 102.543 195.389Z" fill="white"/>
<path d="M293.623 78.5115C294.401 79.8176 295.165 80.9228 295.707 82.1248C295.876 82.5016 295.589 83.2731 295.262 83.6463C294.545 84.4644 293.669 85.1426 292.679 86.0396C291.344 85.3651 290.433 84.0733 289.551 82.7707C289.414 82.5662 289.436 82.0315 289.601 81.8808C290.813 80.7649 291.969 79.5628 293.623 78.5115Z" fill="white"/>
<path d="M109.388 179.048C111.143 179.385 111.2 179.424 111.272 180.792C111.308 181.506 111.326 182.227 111.268 182.937C111.214 183.573 111.046 184.193 110.917 184.872C112.122 186.58 113.65 190.566 113.665 192.091C110.371 190.06 107.454 184.628 109.392 179.044L109.388 179.048Z" fill="white"/>
<path d="M83.5211 180.009C84.4395 180.246 85.0459 180.731 84.888 181.775C84.2494 186.005 84.8306 190.082 86.3554 194.05C86.4092 194.194 86.3051 194.395 86.2692 194.592C82.9363 192.464 81.4474 184.552 83.5211 180.009Z" fill="white"/>
<path d="M265.273 81.2457C263.228 82.76 261.186 84.2742 259.141 85.7885C257.111 84.7192 257.1 83.8221 259.174 81.8342C259.676 82.1679 260.196 82.5124 260.924 82.9932C260.645 81.9239 260.153 81.0125 260.261 80.1764C260.379 79.2506 261.151 78.4971 262.212 78.0522C263.235 79.1286 264.254 80.1979 265.276 81.2744C265.28 81.2852 265.276 81.2457 265.276 81.2457H265.273Z" fill="white"/>
<path d="M284.639 77.7149C282.346 78.1885 281.177 77.0403 281.848 74.9519C282.207 73.8395 282.58 72.7307 282.989 71.6363C283.441 70.4235 283.746 70.3087 284.851 70.8505C285.199 71.0227 285.54 71.2201 285.862 71.4318C286.91 72.1207 286.993 72.3611 286.49 73.513C285.87 74.9411 285.22 76.3513 284.582 77.7687L284.639 77.7113V77.7149Z" fill="white"/>
<path d="M104.369 179.482C104.828 179.256 105.291 179.026 105.743 178.804C107.688 181.434 108.15 187.527 106.543 190.214C106.303 189.881 105.98 189.622 105.908 189.307C105.305 186.709 104.706 184.107 104.211 181.491C104.089 180.838 104.348 180.113 104.43 179.417L104.369 179.482Z" fill="white"/>
<path d="M279.767 73.147C279.767 73.7965 279.76 74.4459 279.767 75.0918C279.781 76.1504 279.207 76.5774 278.21 76.6742C276.746 76.8178 276.377 76.5379 276.255 75.0416C276.151 73.7462 276.05 72.4544 275.964 71.1591C275.917 70.4917 276.201 69.9785 276.886 69.8852C277.69 69.7776 278.511 69.7453 279.318 69.7848C279.451 69.7919 279.641 70.323 279.659 70.6172C279.706 71.4569 279.677 72.3037 279.677 73.147C279.71 73.147 279.738 73.147 279.771 73.147H279.767Z" fill="white"/>
<path d="M66.6267 182.062C66.3541 183.095 66.2141 184.057 65.841 184.922C65.3172 186.142 62.5332 187.042 61.4354 186.436C61.2775 186.35 61.134 186.188 61.0551 186.027C60.4954 184.882 61.3205 182.686 62.4901 182.17C63.4696 181.735 64.9297 181.664 66.6231 182.065L66.6267 182.062Z" fill="white"/>
<path d="M50.6759 181.983C47.795 179.615 47.4219 178.621 50.1736 175.147C51.6589 175.786 52.2796 177.16 52.8536 178.506C53.0151 178.883 52.8285 179.568 52.5594 179.941C52.0428 180.662 51.354 181.265 50.6759 181.983Z" fill="white"/>
<path d="M291.309 117.014C291.814 118.747 291.972 120.552 291.337 122.27C290.623 124.194 288.589 124.682 287.524 123.29C287.233 122.909 287.05 122.07 287.269 121.736C288.356 120.071 289.59 118.506 290.774 116.902L291.309 117.014Z" fill="white"/>
<path d="M256.06 110.142C256.598 112.126 257.197 114.096 257.627 116.106C257.714 116.508 257.251 117.276 256.849 117.469C256.343 117.713 255.55 117.738 255.03 117.509C254.076 117.093 253.595 116.181 253.624 115.126C253.677 113.257 254.359 111.617 255.453 110.153C255.654 110.149 255.859 110.142 256.06 110.139V110.142Z" fill="white"/>
<path d="M296.808 84.4788C298.839 86.8291 298.265 87.8158 295.459 89.5741C294.426 89.183 294.067 88.1531 293.605 87.2812C293.461 87.0121 293.644 86.3159 293.899 86.1437C294.835 85.505 295.865 85.0062 296.808 84.4823V84.4788Z" fill="white"/>
<path d="M273.55 128.399C270.948 129.802 269.427 129.465 267.795 127.215C269.194 125.008 272.419 125.834 273.55 128.399Z" fill="white"/>
<path d="M213.51 1.29537C214.184 2.70915 214.579 3.93634 213.617 5.32141C212.502 4.77958 211.422 4.25569 210.231 3.67439C210.629 2.03814 211.967 1.70802 213.51 1.29537Z" fill="white"/>
<path d="M215.411 9.90005C215.027 8.62621 214.683 7.4672 214.313 6.24719C215.58 5.55824 216.653 6.07495 217.657 6.61319C217.912 6.74954 218.124 7.47438 217.987 7.73991C217.481 8.71233 216.897 9.68834 215.411 9.90364V9.90005Z" fill="white"/>
<path d="M202.919 8.80563C201.322 8.12027 200.91 6.89308 200.555 5.55106C201.843 4.47099 203.127 4.82623 204.677 5.1707C204.325 5.83095 204.024 6.35125 203.766 6.88949C203.489 7.46002 203.253 8.04491 202.919 8.80563Z" fill="white"/>
<path d="M201.211 10.2517C201.688 10.101 202.162 9.95029 202.729 9.77087C203.12 11.0447 203.489 12.2432 203.88 13.5099C202.363 13.9584 201.161 13.5565 199.816 12.6881C200.336 11.7911 200.802 10.9873 201.269 10.1871L201.208 10.2517H201.211Z" fill="white"/>
<path d="M205.409 4.60376C205.028 3.10027 205.226 1.86231 206.263 0.739185C207.755 1.04778 208.613 1.97714 209.197 3.46627C207.909 3.85381 206.704 4.21622 205.409 4.60376Z" fill="white"/>
<path d="M204.745 18.2823C203.726 17.0228 204.006 15.7597 204.437 14.267C205.689 14.92 206.783 15.4942 207.967 16.1114C207.267 17.5503 206.177 18.128 204.749 18.2823H204.745Z" fill="white"/>
<path d="M212.756 15.042C213.208 16.5671 212.868 17.7655 211.96 18.9389C210.478 18.6231 209.535 17.8122 209.025 16.2513C210.281 15.8422 211.461 15.4619 212.756 15.042Z" fill="white"/>
<path d="M213.582 14.3746C214.206 13.1582 214.726 12.1391 215.282 11.0483C216.771 11.3569 217.173 12.5159 217.456 13.7036C217.517 13.962 217.216 14.5289 216.975 14.6007C215.888 14.9272 214.751 15.2753 213.582 14.3746Z" fill="white"/>
<path d="M131.374 84.3603C130.129 85.1067 128.977 84.7012 127.754 83.9943C127.911 82.5518 128.546 81.5579 129.838 80.9766C130.398 81.8234 130.914 82.6021 131.431 83.3807L131.374 83.3197V84.3603Z" fill="white"/>
<path d="M132.321 85.0278C133.472 85.4691 134.484 85.8567 135.607 86.2837C135.316 87.8697 134.197 88.4043 132.877 88.738C131.786 87.1556 131.722 86.7501 132.321 85.0242V85.0278Z" fill="white"/>
<path d="M140.583 76.2688C142.352 75.6372 142.553 75.6588 144.275 76.563C144.189 77.9876 143.55 79.0102 142.061 79.5879C141.563 78.4648 141.1 77.4242 140.583 76.2652V76.2688Z" fill="white"/>
<path d="M140.795 84.041C141.225 82.8891 141.627 81.8198 142.054 80.6788C143.636 80.9443 144.045 82.1643 144.634 83.3556C143.446 84.3747 142.287 84.7371 140.795 84.041Z" fill="white"/>
<path d="M127.474 77.0797C128.668 76.1252 129.809 75.9674 131.284 76.3836C130.864 77.5677 130.473 78.6801 130.053 79.8642C128.442 79.5915 127.994 78.4038 127.474 77.0833V77.0797Z" fill="white"/>
<path d="M139.79 75.5224C138.61 75.0667 137.548 74.6541 136.414 74.2163C136.522 73.8862 136.543 73.617 136.68 73.434C137.587 72.2427 138.764 71.6112 139.367 71.9593C140.041 72.3468 140.278 73.9795 139.79 75.5224Z" fill="white"/>
<path d="M133.96 75.1026C133.304 75.2748 132.647 75.4471 131.915 75.6337C131.33 74.288 131.592 73.1326 132.285 71.9629C133.766 72.153 134.724 72.8276 135.406 74.0907C134.821 74.5033 134.366 74.8263 133.903 75.1492L133.96 75.099V75.1026Z" fill="white"/>
<path d="M140.081 84.773C140.626 86.6425 140.605 86.847 139.758 88.5156C138.366 88.494 137.44 87.762 136.662 86.359C137.788 85.8351 138.854 85.3435 140.081 84.773Z" fill="white"/>
<path d="M298.968 91.1816C298.979 92.1469 298.247 92.9543 297.339 92.9758C296.676 92.9937 295.886 91.946 295.85 90.9951C295.822 90.2451 296.722 89.5669 297.788 89.5382C298.538 89.5167 298.957 90.1016 298.968 91.1816Z" fill="white"/>
<path d="M179.567 19.8001C179.19 19.8934 178.813 20.0046 178.429 20.08C176.984 20.3599 176.768 20.2271 176.004 18.616C177.543 17.6113 178.074 17.6794 179.011 19.0214C179.194 19.287 179.341 19.5776 179.509 19.8503C179.513 19.8467 179.567 19.8001 179.567 19.8001Z" fill="white"/>
<path d="M177.479 15.1461C179.509 14.2957 179.721 14.371 180.708 16.219C179.047 17.3708 178.627 17.2452 177.479 15.1461Z" fill="white"/>
<path d="M179.136 11.992C180.883 11.0483 181.16 11.1344 182.222 12.9429C180.697 14.2347 179.954 14.005 179.136 11.992Z" fill="white"/>
<path d="M187.851 12.1104C189.978 11.3174 190.172 11.3856 191.108 13.1151C189.584 14.3997 189.045 14.2455 187.851 12.1104Z" fill="white"/>
<path d="M251.998 123.049C253.337 122.737 254.151 122.547 255.051 122.335C255.446 123.742 254.912 124.499 253.871 125.313C253.329 124.657 252.834 124.057 251.998 123.049Z" fill="white"/>
<path d="M183.962 9.64887C182.168 10.8366 181.762 10.7074 180.683 8.7231C182.433 7.75067 182.76 7.8332 183.962 9.64887Z" fill="white"/>
<path d="M253.254 139.598C252.404 139.193 251.643 138.83 250.531 138.303C251.385 137.553 251.962 137.047 252.569 136.516C253.591 137.427 253.785 138.314 253.254 139.598Z" fill="white"/>
<path d="M248.152 121.183C248.299 119.812 249.135 119.364 250.1 118.905C250.933 119.787 250.922 120.71 250.42 121.93C249.623 121.668 248.884 121.424 248.156 121.183H248.152Z" fill="white"/>
<path d="M233.852 131.765C234.831 131.123 235.524 130.663 236.532 130.003C236.733 131.133 236.866 131.887 237.005 132.669C235.721 133.179 234.986 132.569 233.852 131.765Z" fill="white"/>
<path d="M246.118 120.692C244.902 120.932 244.192 121.072 243.449 121.216C242.85 119.952 243.395 119.149 244.088 118.011C244.773 118.915 245.286 119.59 246.122 120.688L246.118 120.692Z" fill="white"/>
<path d="M234.957 125.511C235.793 125.45 236.629 125.389 237.899 125.295C237.443 126.411 237.153 127.125 236.708 128.216C235.886 127.334 235.319 126.724 234.752 126.11C234.821 125.909 234.889 125.708 234.957 125.507V125.511Z" fill="white"/>
<path d="M257.735 128.288C257.028 129.174 256.494 129.888 255.22 129.752C255.095 129.042 254.973 128.327 254.847 127.613C256.078 126.985 256.795 127.631 257.735 128.288Z" fill="white"/>
<path d="M257.401 134.316C256.088 134.876 255.227 135.177 254.094 134.428C254.406 133.742 254.718 133.06 255.181 132.049C256.006 132.888 256.587 133.484 257.401 134.313V134.316Z" fill="white"/>
<path d="M239.316 137.309C238.505 137.467 237.694 137.625 236.812 137.797C236.46 136.448 237.041 135.759 237.856 134.829C238.473 135.551 238.968 136.132 239.463 136.717C239.413 136.914 239.363 137.112 239.312 137.309H239.316Z" fill="white"/>
<path d="M243.822 139.038C243.348 140.413 242.577 140.858 241.375 141.335C241.278 140.255 241.203 139.433 241.095 138.26C242.182 138.572 242.922 138.784 243.826 139.042L243.822 139.038Z" fill="white"/>
<path d="M238.394 120.86C239.502 120.867 240.399 121.011 241.009 122.238C240.435 122.705 239.868 123.164 239.294 123.627C238.157 122.848 238.315 121.901 238.39 120.86H238.394Z" fill="white"/>
<path d="M247.736 142.106C247.072 141.27 246.527 140.581 245.709 139.548C246.897 139.322 247.643 139.178 248.45 139.024C248.827 140.241 248.525 141.055 247.736 142.106Z" fill="white"/>
<path d="M209.664 18.3253C209.057 18.7416 208.641 19.2475 208.322 19.1937C207.949 19.1291 207.418 18.5801 207.411 18.232C207.404 17.9127 207.988 17.335 208.333 17.317C208.677 17.2991 209.054 17.8337 209.664 18.3289V18.3253Z" fill="white"/>
<path d="M135.872 73.2833C135.198 72.885 134.527 72.537 135.144 71.6578C135.503 71.1483 136.016 71.0801 136.439 71.5933C137.125 72.4186 136.511 72.824 135.872 73.2833Z" fill="white"/>
<path d="M201.269 10.1871C200.903 10.0938 200.429 10.1082 200.199 9.87852C199.938 9.61658 199.697 9.06039 199.808 8.76974C199.927 8.46115 200.587 8.05568 200.799 8.15615C201.186 8.33197 201.541 8.8128 201.663 9.23981C201.742 9.50893 201.38 9.90723 201.211 10.2517L201.269 10.1907V10.1871Z" fill="white"/>
<path d="M217.112 4.53199C216.326 4.97694 215.935 5.36447 215.555 5.35729C215.271 5.35371 214.819 4.8657 214.758 4.53558C214.661 4.00451 214.948 3.43757 215.616 3.56316C216.018 3.63851 216.362 4.02963 217.112 4.53199Z" fill="white"/>
<path d="M204.429 4.21263C203.629 4.2234 202.779 4.42075 202.862 3.29404C202.883 3.00339 203.414 2.5082 203.697 2.51897C204.691 2.56203 204.792 3.21868 204.433 4.21263H204.429Z" fill="white"/>
<path d="M213.682 15.5946C214.618 15.4619 215.393 15.3793 215.307 16.4738C215.282 16.7824 214.769 17.3098 214.504 17.2955C213.485 17.2381 213.574 16.4774 213.686 15.5982L213.682 15.5946Z" fill="white"/>
<path d="M141.645 73.0716C142.065 73.7462 142.402 74.0584 142.441 74.4029C142.517 75.0308 142.029 75.3753 141.476 75.2605C141.171 75.1959 140.723 74.7043 140.748 74.4424C140.78 74.0692 141.186 73.7247 141.641 73.0716H141.645Z" fill="white"/>
<path d="M209.736 2.57279C209.018 1.98432 208.451 1.51066 209.248 0.746361C209.714 0.297827 210.209 0.315768 210.564 0.861186C211.145 1.75108 210.485 2.12426 209.736 2.57279Z" fill="white"/>
<path d="M142.097 86.7178C141.161 86.6174 140.931 86.1509 141.075 85.6055C141.146 85.3363 141.555 85.0062 141.842 84.9703C142.467 84.895 142.843 85.322 142.714 85.9248C142.639 86.2621 142.251 86.5312 142.097 86.7214V86.7178Z" fill="white"/>
<path d="M217.514 9.40128C217.941 9.87852 218.468 10.2338 218.421 10.4706C218.342 10.8689 217.894 11.1918 217.6 11.5471C217.245 11.2528 216.635 10.9801 216.599 10.6536C216.566 10.3199 217.101 9.92876 217.51 9.40128H217.514Z" fill="white"/>
<path d="M131.84 86.0181C131.187 86.5025 130.853 86.9224 130.48 86.9618C130.222 86.987 129.741 86.5241 129.662 86.2047C129.515 85.6234 129.91 85.1928 130.52 85.2574C130.86 85.2933 131.173 85.6162 131.843 86.0145L131.84 86.0181Z" fill="white"/>
<path d="M145.294 80.0652C144.813 80.4419 144.44 80.9371 144.185 80.8833C143.79 80.7972 143.475 80.3379 143.127 80.0365C143.486 79.7422 143.808 79.2865 144.21 79.2076C144.461 79.1573 144.824 79.6705 145.294 80.0652Z" fill="white"/>
<path d="M136.213 87.292C136.899 87.6508 137.548 88.0096 136.927 88.8852C136.561 89.3983 136.045 89.4342 135.632 88.939C134.947 88.1137 135.553 87.7046 136.213 87.292Z" fill="white"/>
<path d="M203.425 14.4859C203.457 15.4152 203.439 16.1724 202.395 16.0575C202.144 16.0288 201.746 15.5516 201.757 15.2932C201.803 14.2526 202.546 14.3531 203.425 14.4823V14.4859Z" fill="white"/>
<path d="M127.951 81.7086C127.538 81.1524 127.036 80.7362 127.111 80.5209C127.244 80.1441 127.693 79.7279 128.076 79.6453C128.295 79.5987 128.916 80.2051 128.884 80.4563C128.837 80.8402 128.378 81.174 127.947 81.7122L127.951 81.7086Z" fill="white"/>
<path d="M130.222 73.4592C130.609 74.0871 130.932 74.3993 130.997 74.7617C131.101 75.3251 130.674 75.6588 130.172 75.5045C129.842 75.4004 129.425 74.9842 129.393 74.672C129.364 74.3849 129.795 74.0476 130.222 73.4592Z" fill="white"/>
<path d="M289.676 105.391C289.497 105.571 289.317 105.746 289.138 105.926C288.575 106.22 288.026 106.554 287.441 106.805C286.379 107.261 285.331 107.907 284.219 108.05C280.266 108.57 276.893 104.437 278.242 100.87C279.602 97.2745 285.723 92.5488 290.505 95.0211L290.437 94.9637C291.746 96.3918 291.979 98.1142 291.513 99.876C291.022 101.746 290.297 103.554 289.676 105.388V105.391ZM288.568 99.6607C288.55 97.741 287.854 97.2028 286.01 97.7482C284.191 98.2828 282.447 99.0436 281.105 100.404C280.355 101.164 279.778 102.147 279.326 103.123C279.146 103.511 279.34 104.412 279.667 104.634C280.901 105.485 282.296 106.077 283.861 105.714C286.246 105.162 288.593 102.115 288.568 99.6607Z" fill="white"/>
<path d="M283.394 114.721C283.093 114.667 282.795 114.617 282.494 114.563C281.5 113.702 280.502 112.84 279.509 111.976C279.451 111.803 279.397 111.628 279.34 111.455C279.501 110.232 280.341 110.271 281.227 110.472C283.581 111.014 285.855 110.906 288.019 109.726C288.241 109.604 288.499 109.518 288.75 109.471C289.741 109.295 290.254 109.765 290.078 110.781C289.967 111.409 289.68 112.008 289.472 112.618C289.36 112.862 289.249 113.102 289.138 113.346C288.679 113.555 288.194 113.72 287.764 113.978C286.401 114.803 284.962 115.101 283.401 114.717L283.394 114.721ZM284.574 112.173C284.316 112.36 284.058 112.482 284.069 112.543C284.112 112.744 284.241 112.937 284.384 113.092C284.413 113.12 284.775 112.952 284.779 112.858C284.79 112.665 284.671 112.46 284.574 112.169V112.173Z" fill="white"/>
<path d="M139.532 81.9347C139.152 82.3007 138.775 82.6703 138.395 83.0363C136.629 84.2096 134.929 83.8257 133.246 82.8353L133.318 82.9107C132.525 81.3713 132.245 79.7925 132.923 78.1311L132.862 78.2136C133.221 77.9517 133.58 77.6861 133.942 77.4278C135.094 76.6061 136.335 76.4841 137.587 77.1084C138.911 77.7723 139.564 78.9026 139.571 80.3881C139.571 80.9012 139.546 81.4144 139.532 81.9275V81.9347Z" fill="white"/>
<path d="M264.415 23.008C264.283 21.3431 264.164 19.879 264.049 18.433C265.721 19.1901 265.94 21.0811 264.415 23.008Z" fill="white"/>
<path d="M245.318 135.371C245.318 135.371 245.049 135.386 244.938 135.267C244.156 134.456 242.71 134.323 242.229 133.617C241.397 132.397 241.217 130.732 240.765 129.253C241.58 128.417 242.143 127.441 242.358 126.282C243.833 125.834 245.311 125.382 246.785 124.929C247.672 125.798 249.225 125.934 249.817 126.763C250.631 127.9 251.091 129.576 250.994 130.976C250.933 131.894 249.681 132.755 249.537 133.957C249.519 134.101 249.286 134.288 249.121 134.334C247.912 134.682 246.692 134.998 245.315 135.364L245.318 135.371ZM247.758 130.19C247.754 129.142 246.9 128.292 245.903 128.345C244.988 128.396 244.213 129.207 244.184 130.15C244.148 131.184 245.01 132.023 246.046 131.966C247.008 131.916 247.765 131.13 247.758 130.186V130.19Z" fill="white"/>
<path d="M205.481 9.80317C205.581 7.58202 207.113 6.0893 209.187 6.19336C211.343 6.30101 212.832 7.89779 212.738 10.0005C212.645 12.0961 210.984 13.639 208.889 13.5673C206.973 13.5027 205.394 11.7624 205.481 9.80317Z" fill="white"/>
</svg>
