<svg width="447" height="301" viewBox="0 0 447 301" fill="none" xmlns="http://www.w3.org/2000/svg">
<path d="M43.8111 262.431C41.4296 264.243 39.5755 263.422 37.7587 262.991C36.091 262.591 34.4554 262.015 32.7771 261.696C30.4755 261.253 30.0226 260.571 30.8111 258.285C31.7169 255.669 32.6279 253.058 33.6029 250.244C32.921 249.978 32.3455 249.663 31.7328 249.525C26.5275 248.337 21.9082 246.072 18.1574 242.198C16.0795 240.056 13.9004 237.999 12.0037 235.702C10.7303 234.157 9.48895 232.382 8.93485 230.501C8.21026 228.055 8.03977 225.417 9.00411 222.854C9.57952 221.336 9.94715 219.732 10.3467 218.149C10.7676 216.486 10.4426 215.058 9.51026 213.508C7.59222 210.316 8.41272 207.177 11.4176 204.811C13.2877 203.34 15.4402 202.52 17.7631 202.12C20.0488 201.726 22.3291 201.299 24.6254 200.969C26.08 200.761 26.9218 199.994 27.1349 198.582C27.3959 196.861 28.1259 195.502 29.6603 194.564C30.8431 193.839 31.0029 192.859 30.2943 191.59C29.7882 190.685 29.2714 189.598 29.3033 188.606C29.4525 184.157 26.8578 180.523 25.8349 176.425C25.5259 175.189 24.1886 174.091 23.107 173.196C21.2369 171.65 19.564 170.068 18.248 167.931C16.3246 164.808 13.9431 161.92 10.5492 160.209C6.50534 158.174 4.1291 154.406 1.12951 151.294C0.596722 150.745 0.431558 149.712 0.356968 148.875C0.165164 146.701 0.111885 144.511 0 142.219C0.857788 141.489 1.88074 140.621 2.71189 139.912C3.43115 141.255 4.36353 142.758 5.0455 144.367C5.34386 145.07 5.4078 146.136 5.0828 146.786C4.22501 148.486 4.67788 149.781 5.9246 150.932C7.41108 152.307 8.79632 153.911 10.5226 154.881C15.5361 157.678 19.6812 161.659 24.4656 164.734C26.8898 166.29 29.5324 167.51 32.1218 168.778C32.4787 168.954 33.475 168.655 33.555 168.389C33.7521 167.739 33.8054 166.87 33.523 166.279C33.0435 165.277 31.7968 164.467 31.6902 163.487C31.3705 160.54 31.2427 157.534 31.4291 154.577C31.5517 152.637 33.2619 151.726 35.0468 151.268C36.3521 150.932 37.6787 150.692 38.9947 150.404C43.1665 149.499 46.6829 153.378 45.4042 157.486C45.0898 158.499 44.6956 159.49 44.4398 160.518C44.2054 161.446 44.3546 162.266 45.3189 162.421C46.6615 161.025 47.8603 159.682 49.171 158.456C50.2472 157.449 51.5312 157.225 52.9271 157.913C56.6566 159.756 60.4235 161.515 64.1157 163.428C65.9165 164.36 66.0177 165.357 64.6698 166.865C64.1583 167.435 63.5775 168.005 62.9116 168.362C59.4431 170.222 56.4808 172.993 52.4636 173.904C50.4656 174.357 49.7784 175.62 49.7624 177.832C49.7357 180.635 49.8103 183.443 49.7784 186.246C49.7677 187.301 49.6452 188.372 49.448 189.411C49.0111 191.761 49.0804 194.004 50.4656 196.077C52.0534 198.454 51.6644 201.305 52.2878 203.911C53.689 209.767 54.4136 215.687 54.3017 221.698C54.2325 225.556 54.0886 229.425 53.7157 233.261C53.5398 235.047 52.9378 236.864 52.1652 238.494C51.2968 240.327 50.8919 242.086 51.3074 244.074C51.4833 244.921 51.462 245.805 51.5472 246.669C51.6751 247.942 51.1636 248.704 49.8476 248.875C47.9402 249.125 46.0435 249.493 44.1308 249.631C41.8718 249.797 39.5648 251.587 38.9681 253.825C38.723 254.752 38.4566 255.68 38.1263 256.575C37.4763 258.333 37.6414 259.015 39.1919 259.932C39.7673 260.273 40.4546 260.422 41.046 260.742C41.8451 261.174 42.5964 261.685 43.7951 262.426L43.8111 262.431ZM48.9845 167.291C52.1972 166.519 54.7333 165.911 57.9247 165.144C56.6886 163.945 55.98 163.092 55.1222 162.453C52.3677 160.401 50.7054 160.913 49.5173 164.158C49.2402 164.925 49.2296 165.789 48.9845 167.291Z" fill="#E5203B"/>
<path d="M419.144 120.1C421.808 122.46 424.477 124.81 427.131 127.182C431.18 130.805 434.68 134.908 437.653 139.459C438.559 140.845 438.484 142.156 438.037 143.818C437.11 147.25 436.699 150.82 436.092 154.337C435 160.641 433.572 166.806 430.386 172.487C426.177 179.995 420.156 185.468 412.591 189.406C410.47 190.509 408.643 190.876 406.965 188.745C406.554 188.223 405.931 187.876 405.43 187.423C404.024 186.139 402.473 185.654 400.64 186.427C400.379 186.539 400.06 186.502 399.793 186.608C394.844 188.51 394.908 187.551 391.945 184.269C386.585 178.333 383.133 171.549 381.892 163.476C380.97 157.476 381.593 151.758 382.808 145.96C383.719 141.612 384.428 137.226 385.381 132.889C385.61 131.839 386.282 130.741 387.054 129.979C388.557 128.509 390.278 127.256 391.908 125.919L391.823 126.009C392.883 125.572 393.938 125.125 395.003 124.693C398.392 123.329 401.722 121.794 405.185 120.654C409.778 119.141 414.482 118.117 419.229 120.201L419.144 120.105V120.1ZM397.806 176.915C397.806 178.578 398.706 179.665 400.321 180.278C399.463 179.174 398.605 178.077 397.747 176.974C397.428 175.082 397.06 173.196 396.799 171.299C396.575 169.652 397.316 168.48 398.882 167.936C402.452 166.694 406.032 165.442 409.639 167.883C410.023 168.144 410.529 168.224 410.982 168.389C411.195 168.703 411.365 169.066 411.632 169.332C414.631 172.316 414.797 173.174 412.607 176.782C411.973 177.832 410.998 178.679 410.172 179.611C409.719 180.123 409.245 180.613 408.781 181.119C412.41 179.67 414.131 176.745 415.185 173.323C415.319 172.892 415.415 172.22 415.185 171.938C414.013 170.489 413.177 168.565 410.902 168.469C410.694 168.155 410.55 167.76 410.273 167.531C406.831 164.712 400.07 164.867 396.799 167.851C396.389 168.224 395.957 168.746 395.867 169.263C395.355 172.087 395.462 174.8 397.795 176.926L397.806 176.915ZM431.308 141.031L431.409 141.116C430.151 138.894 428.042 138.473 425.884 138.964C420.599 140.168 416.15 142.875 413.315 147.58C411.584 150.452 410.838 153.554 412.66 156.932C414.669 160.657 421.979 163.577 426.044 160.076C427.141 159.133 428.265 158.222 429.379 157.3C429.645 157.033 429.912 156.772 430.178 156.506C430.588 155.978 431.015 155.461 431.409 154.923C433.338 152.312 434.574 149.451 434.371 146.136C434.238 143.93 433.519 142.012 431.302 141.026L431.308 141.031ZM429.869 167.249C431.638 165.538 432.299 163.535 431.35 162.176C430.088 160.369 428.585 161.685 427.179 162.042C426.992 162.09 426.811 162.16 426.63 162.229C423.865 163.247 421.051 163.796 418.1 163.183C417.439 163.044 416.768 162.9 416.097 162.863C414.168 162.746 413.806 163.529 414.834 165.522C414.919 165.778 414.999 166.039 415.084 166.295C415.505 168.794 416.96 170.1 419.517 170.137C419.965 170.217 420.407 170.291 420.854 170.371C423.785 171.949 427.317 171.101 429.374 168.336L429.869 167.254V167.249ZM391.69 145.07C392.126 146.216 392.531 148.049 393.458 149.568C395.302 152.595 398.829 153.969 401.679 153.106C403.709 152.493 404.157 151.758 403.64 149.69C402.851 146.525 401.333 143.733 399.079 141.388C397.801 140.056 396.234 138.5 394.348 139.214C392.233 140.013 392.062 142.353 391.695 145.07H391.69ZM405.51 168.959C404.008 169.433 402.91 169.753 401.828 170.132C400.523 170.59 399.964 171.618 400.433 172.86C401.067 174.538 401.887 176.164 402.772 177.736C403.288 178.658 404.263 178.945 405.286 178.535C407.497 177.645 409.346 176.318 410.124 173.947C410.305 173.382 410.321 172.38 409.985 172.103C408.536 170.92 406.927 169.934 405.51 168.965V168.959ZM412.34 133.688C410.39 133.608 408.531 135.265 407.961 137.594C407.396 139.901 408.249 142.337 409.911 143.168C411.184 143.802 412.735 143.557 413.928 142.523C415.665 141.026 416.347 138.329 415.521 136.203C414.956 134.743 413.971 133.8 412.335 133.688H412.34ZM409.362 150.602C406.767 153.271 405.755 156.362 405.819 159.794C405.835 160.545 406.677 161.755 407.316 161.883C407.95 162.01 409.144 161.211 409.495 160.513C410.902 157.7 411.435 154.715 410.225 151.651C410.103 151.337 409.778 151.097 409.362 150.607V150.602ZM416.203 126.889C416.155 126.601 416.224 126.121 416.017 125.86C415.457 125.157 414.823 124.096 414.141 124.032C413.459 123.968 412.633 124.89 411.957 125.476C411.706 125.69 411.658 126.175 411.589 126.548C411.339 127.922 411.328 129.313 412.596 130.198C413.049 130.517 413.949 130.603 414.45 130.368C415.825 129.729 416.128 128.381 416.208 126.883L416.203 126.889ZM390.73 152.808C394.124 157.987 399.25 158.797 403.741 154.534C398.664 156.708 394.412 156.495 390.73 152.808ZM392.75 133.598C390.331 133.667 389.303 134.882 388.456 136.246C386.942 138.676 386.889 143.962 388.338 146.845C387.544 141.798 388.226 137.322 392.75 133.592V133.598ZM391.54 157.918C391.476 157.987 391.418 158.051 391.354 158.12C391.823 158.414 392.254 158.803 392.76 158.978C394.023 159.426 395.35 159.692 396.586 160.193C397.406 160.524 398.11 161.142 398.866 161.627C398.312 162.346 397.785 163.087 397.199 163.774C396.98 164.03 396.628 164.163 396.335 164.35C397.246 164.323 398.158 164.142 398.706 163.598C399.399 162.911 400.209 161.941 400.235 161.073C400.273 159.82 398.898 159.666 397.875 159.421C395.765 158.92 393.656 158.419 391.546 157.913L391.54 157.918ZM401.61 137.146C404.546 141.116 406.501 145.363 406.117 150.447C407.908 146.642 405.792 140.456 401.61 137.146ZM387.571 153.762C385.232 153.133 384.944 153.245 384.161 154.737C383.01 156.922 383.309 158.808 385.051 160.396C384.305 155.014 384.444 154.572 387.571 153.762ZM393.181 165.154C390.992 164.334 388.823 163.519 386.719 162.725C388.541 165.122 389.958 165.666 393.181 165.154ZM392.59 161.504C392.078 161.035 391.78 160.534 391.46 160.529C391.141 160.518 390.805 160.993 390.475 161.254C390.741 161.584 390.965 162.101 391.295 162.186C391.578 162.261 391.993 161.84 392.59 161.499V161.504ZM403.821 183.352C403.88 183.171 403.944 182.99 404.002 182.809C403.374 182.59 402.75 182.372 402.121 182.153C402.063 182.329 402.004 182.505 401.94 182.681L403.816 183.352H403.821Z" fill="#E5203B"/>
<path d="M255.109 145.513C254.22 145.87 253.282 146.131 252.456 146.594C246.494 149.973 240.58 153.442 234.592 156.767C233.143 157.572 232.482 158.637 232.333 160.167C231.731 166.295 231.283 172.45 230.5 178.556C229.37 187.343 228.065 196.109 226.706 204.87C225.55 212.309 223.664 219.572 221.144 226.68C218.928 232.926 216.013 238.841 211.549 243.69C206.125 249.578 199.428 253.447 191.036 252.258C183.38 251.171 177.829 247.154 175.644 239.336C175.49 238.782 175.17 238.159 175.298 237.663C175.474 237.002 175.884 236.214 176.438 235.91C176.768 235.723 177.738 236.192 178.095 236.629C178.883 237.588 179.475 238.718 180.136 239.784C184.195 246.338 192.155 247.489 198.517 244.281C202.475 242.283 205.054 238.953 207.244 235.265C211.112 228.743 213.605 221.65 215.411 214.334C216.893 208.349 218.161 202.301 219.263 196.237C220.073 191.793 220.473 187.274 221.043 182.787C221.517 179.063 221.959 175.332 222.439 171.608C222.918 167.893 223.425 164.185 223.947 160.279C223.009 159.98 222.204 159.746 221.411 159.469C218.278 158.382 216.125 156.394 215.353 153.048C214.82 150.751 215.475 149.818 217.772 149.765C219.604 149.722 221.437 149.648 223.265 149.531C225.481 149.387 225.891 149.067 226.27 146.813C226.584 144.937 226.669 143.029 226.888 141.138C227.783 133.283 228.848 125.455 231.262 117.894C232.674 113.465 235.066 109.655 239.366 107.428C242.925 105.579 246.548 105.419 250.208 107.236C252.147 108.201 253.495 109.634 253.793 111.819C254.038 113.615 254.268 115.442 254.225 117.244C254.188 118.874 253.282 120.313 251.758 120.894C250.666 121.309 249.249 121.437 248.151 121.112C246.947 120.755 247.379 119.375 247.325 118.325C247.224 116.322 247.086 114.286 246.659 112.336C246.27 110.545 245.104 110.21 243.702 111.446C242.791 112.25 242.067 113.338 241.459 114.414C238.193 120.233 236.829 126.649 235.807 133.145C235.194 137.045 234.736 140.973 234.256 144.889C234.187 145.475 234.373 146.093 234.469 146.909C240.282 145.609 245.791 144.372 251.295 143.136C251.673 143.051 252.041 142.928 252.419 142.854C254.891 142.39 255.386 142.902 255.051 145.566L255.115 145.507L255.109 145.513Z" fill="#E5203B"/>
<path d="M327.275 158.536C332.156 153.708 336.727 149.014 340.355 143.504C341.203 142.214 341.986 140.882 342.71 139.518C344.186 136.747 344.634 134.077 341.879 131.695C340.973 130.912 340.377 129.867 341.362 128.652C342.289 127.517 343.504 127.629 344.484 128.306C346.621 129.777 348.859 131.216 350.633 133.075C353.062 135.622 353.217 138.841 351.256 141.894C349.908 143.989 348.321 145.987 346.562 147.745C342.54 151.779 338.357 155.659 334.207 159.559C333.504 160.22 332.625 160.7 331.474 161.515C333.056 162.735 334.021 163.476 334.98 164.222C337.414 166.114 339.887 167.957 342.284 169.902C346.951 173.686 346.989 179.425 344.708 184.397C342.844 188.462 339.727 191.532 336.477 194.409C332.63 197.814 328.33 200.596 323.354 202.141C322.161 202.514 320.941 202.802 319.726 203.127C315.932 204.134 312.784 203.378 310.114 200.244C308.777 198.678 306.896 197.511 305.112 196.408C300.546 193.583 299.544 189.811 302.378 184.482C304.493 180.501 307.61 177.32 310.834 174.256C314.329 170.931 317.941 167.728 321.489 164.456C322.049 163.939 322.539 163.353 323.184 162.666C322.177 161.68 321.244 160.748 320.296 159.831C315.213 154.923 315.101 149.056 317.435 143.003C319.854 136.731 324.255 131.812 329.433 127.656C332.582 125.125 338.054 126.441 340.004 129.947C340.59 130.997 340.196 132.095 339.055 132.505C338.698 132.633 338.294 132.724 337.921 132.686C334.942 132.415 332.619 133.837 330.739 135.83C327.105 139.683 324.585 144.196 323.434 149.44C322.725 152.68 323.407 155.36 326.061 157.449C326.434 157.747 326.775 158.089 327.275 158.536ZM315.368 196.024C318.666 195.928 321.553 195.401 324.015 193.791C326.828 191.953 329.54 189.917 332.113 187.754C334.884 185.42 336.834 182.388 338.294 179.095C339.775 175.753 339.439 174.022 336.722 171.64C335.065 170.185 333.211 168.938 331.346 167.744C328.442 165.885 328.016 165.943 325.688 168.405C320.168 174.235 315.048 180.384 311.063 187.397C310.637 188.143 310.194 188.915 309.955 189.731C308.985 192.992 310.13 194.916 313.45 195.688C314.196 195.864 314.963 195.949 315.373 196.024H315.368Z" fill="#E5203B"/>
<path d="M400.534 69.631C400.683 63.439 402.393 58.1582 406.911 54.0443C411.19 50.149 416.256 48.7635 421.925 49.4137C429.118 50.2449 434.861 53.8685 439.529 59.16C443.924 64.1424 446.455 70.0573 446.929 76.7449C447.361 82.8943 445.858 88.4788 441.542 93.0296C440.237 94.4044 438.617 95.5661 436.961 96.4933C434.675 97.7669 432.981 97.3086 431.393 95.2091C429.001 92.0491 426.699 88.8252 424.365 85.6226C424.195 85.3882 424.056 85.1324 423.886 84.8979C420.929 80.7095 418.345 80.944 416.102 85.612C415.473 86.9175 414.94 88.271 414.285 89.5606C412.985 92.1077 411.536 92.4115 409.586 90.4025C403.906 84.5515 400.699 77.6135 400.539 69.6257L400.534 69.631ZM414.503 80.7042C414.392 78.3808 413.369 76.4838 411.36 75.1996C408.744 73.5316 406.139 74.8532 406.075 77.9332C406.022 80.4058 407.066 82.4307 409.186 83.8002C410.289 84.5089 411.504 84.818 412.751 84.1679C414.115 83.4591 414.509 82.2069 414.503 80.7042ZM421.979 58.6111C422.197 59.7142 422.24 60.3003 422.437 60.8279C422.858 61.9469 423.518 62.9221 424.829 63.0553C426.108 63.1885 427.061 62.4958 427.701 61.4673C428.777 59.7301 429.027 57.8491 428.148 55.9627C427.226 53.9911 425.079 53.5861 423.71 55.2433C422.842 56.2931 422.421 57.7105 421.979 58.6058V58.6111ZM417.114 60.7266C417.135 58.4086 415.372 56.0746 413.225 55.5737C411.222 55.1048 409.788 56.2238 409.751 58.2701C409.714 60.343 411.397 62.7089 413.379 63.3697C415.425 64.0518 417.098 62.8688 417.114 60.7266ZM438.905 81.0026C440.147 80.5017 441.207 80.2566 442.043 79.6917C443.429 78.7485 443.508 77.2245 442.438 75.9136C441.02 74.1711 437.658 73.5956 435.788 74.7733C434.169 75.7964 433.817 77.6348 435.25 78.9137C436.273 79.8249 437.664 80.3258 438.9 81.0079L438.905 81.0026ZM437.792 89.6192C437.845 87.6316 436.321 85.3828 434.44 84.6634C432.181 83.8002 430.231 85.1484 430.45 87.5303C430.647 89.6885 431.814 91.3244 433.812 92.209C435.89 93.1309 437.733 91.8839 437.792 89.6245V89.6192ZM434.376 69.226C436.646 69.2633 439.006 67.4675 439.502 65.3307C439.939 63.455 438.974 62.1068 437.056 61.9149C434.904 61.7018 432.352 63.4177 431.707 65.5119C431.073 67.5794 432.235 69.194 434.376 69.226Z" fill="#E5203B"/>
<path d="M178.59 142.608C169.405 143.434 160.721 144.276 152.74 148.348C150.108 149.69 147.854 151.417 147.241 154.646C147.06 155.595 146.261 156.426 145.68 157.433C143.315 156.17 143.251 154.092 143.618 152.339C143.997 150.527 144.945 148.721 146.042 147.202C147.71 144.889 150.188 143.461 152.75 142.262C159.325 139.177 166.342 137.94 173.508 137.36C175.335 137.21 177.173 137.067 179.006 137.035C180.919 137.003 182.688 137.152 184.179 135.335C185.277 133.997 187.216 134.253 188.836 134.685C190.029 135.004 191.239 135.431 192.294 136.065C193.322 136.678 194.153 137.615 195.112 138.441C195.038 140.221 193.919 141.159 192.47 141.889C191.718 142.267 190.855 142.592 190.306 143.184C175.213 159.426 162.282 177.187 152.505 197.154C151.871 198.449 151.386 199.813 150.811 201.193C151.839 202.163 153.022 202.104 154.13 202.04C158.947 201.768 163.763 201.417 168.579 201.102C169.64 201.033 170.705 200.879 171.749 200.964C172.181 201.001 172.874 201.55 172.9 201.907C172.927 202.301 172.41 202.994 171.995 203.122C170.338 203.623 168.638 204.012 166.933 204.326C161.355 205.365 155.766 206.351 150.118 207.369C152.084 209.548 152.255 210.326 161.222 207.145C159 209.751 156.549 212.186 152.958 212.65C149.601 213.087 147.332 211.115 145.558 208.243C142.057 208.669 138.541 209.138 135.014 209.506C133.676 209.644 132.302 209.655 130.959 209.543C129.515 209.421 128.37 208.77 128.141 207.118C128.087 206.745 127.869 206.394 127.81 206.021C127.011 200.884 127.603 200.335 132.717 200.729C136.649 201.038 140.608 201.086 144.604 201.252C146.469 192.352 150.747 184.61 155.292 177C161.941 165.879 169.469 155.355 177.12 144.91C177.557 144.308 177.924 143.653 178.59 142.603V142.608Z" fill="#E5203B"/>
<path d="M294.301 184.668C295.308 183.992 296.139 183.432 296.987 182.867C298.404 184.279 297.86 185.457 297.194 186.699C295.287 190.274 293.353 193.839 291.579 197.484C290.737 199.211 290.231 201.102 289.591 202.925C289.075 204.39 288.11 205.147 286.512 204.96C284.844 204.763 283.171 204.406 282.33 202.802C282.047 202.259 282.377 201.321 282.58 200.607C284.258 194.67 286.182 188.788 287.609 182.793C288.59 178.69 289.277 174.458 288.989 170.179C288.92 169.188 288.648 168.208 288.35 166.556C286.688 168.341 285.404 169.593 284.264 170.968C278.003 178.54 273.24 187.013 269.372 196.013C268.573 197.878 267.827 199.765 267.055 201.641C265.371 205.728 262.52 204.998 259.521 203.159C258.541 202.557 258.754 201.523 259.079 200.537C260.128 197.335 261.348 194.164 262.121 190.892C263.661 184.338 264.966 177.725 266.319 171.128C266.49 170.297 266.341 169.401 266.341 167.941C265.403 168.757 264.801 169.258 264.22 169.785C263.65 170.307 263.192 171.021 262.531 171.336C261.95 171.613 261.162 171.464 260.469 171.501C260.501 170.872 260.293 170.084 260.597 169.641C262.116 167.409 263.682 165.192 265.408 163.119C266.644 161.637 267.561 161.659 269.175 162.682C269.745 163.039 270.289 163.497 270.917 163.7C274.3 164.808 274.444 166.535 273.943 169.615C273.405 172.934 272.558 176.206 271.855 179.5C271.796 179.771 271.796 180.054 271.711 180.944C272.494 179.857 272.99 179.238 273.416 178.572C276.538 173.68 279.74 168.853 283.816 164.68C284.088 164.403 284.354 164.126 284.642 163.865C288.078 160.716 291.163 160.689 294.642 163.796C295.798 164.829 296.187 166.156 296.198 167.702C296.225 172.737 295.505 177.677 294.509 182.596C294.381 183.224 294.376 183.88 294.307 184.668H294.301Z" fill="#E5203B"/>
<path d="M178.841 167.766C177.722 169.146 177.088 169.966 176.417 170.75C175.985 171.256 175.559 171.815 175.01 172.162C174.674 172.375 173.913 172.428 173.694 172.204C173.364 171.863 173.055 171.069 173.236 170.739C174.696 168.027 176.198 165.325 177.839 162.719C178.548 161.595 179.779 161.579 180.961 162.144C181.649 162.474 182.309 162.895 183.029 163.124C186.049 164.083 186.987 165.533 186.636 168.677C186.284 171.831 185.986 174.997 185.682 178.162C185.65 178.498 185.767 178.849 185.916 179.873C186.886 177.965 187.579 176.633 188.245 175.284C190.52 170.686 192.976 166.199 196.236 162.208C196.902 161.392 197.648 160.62 198.458 159.948C199.731 158.893 201.17 158.499 202.779 159.234C203.131 159.394 203.498 159.533 203.877 159.613C206.977 160.252 208.549 161.243 208.65 166.05C208.757 171.037 208.672 176.025 208.672 181.109C209.023 180.784 209.402 180.262 209.908 180.016C210.435 179.761 211.32 179.489 211.639 179.745C212.023 180.043 212.167 180.933 212.06 181.503C211.9 182.34 211.421 183.112 211.085 183.912C209.029 188.809 206.951 193.679 205.954 198.955C205.352 202.147 204.388 202.658 201.346 202.067C198.629 201.539 197.931 200.537 198.687 197.777C200.888 189.741 201.815 181.524 202.012 173.233C202.081 170.329 201.863 167.361 200.429 164.073C198.9 166.236 197.558 167.963 196.391 169.801C190.653 178.844 186.705 188.665 183.918 198.976C183.695 199.813 183.508 200.665 183.21 201.481C182.123 204.443 178.313 205.467 175.863 203.463C174.829 202.616 175.213 201.502 175.41 200.495C176.028 197.282 176.838 194.1 177.354 190.871C178.265 185.191 179.134 179.489 178.937 173.696C178.915 173.132 179.23 172.561 179.208 171.997C179.166 170.808 179.006 169.625 178.83 167.766H178.841Z" fill="#E5203B"/>
<path d="M266.591 29.4734C267.214 28.6421 267.96 27.8748 268.434 26.9636C270.55 22.9457 272.564 18.8745 274.657 14.8459C275.989 12.2828 277.987 10.3378 280.55 9.0216C284.455 7.01799 289.613 9.19212 290.598 13.2953C290.811 14.1798 290.705 15.2136 290.486 16.1195C290.215 17.2332 289.325 18.0858 288.185 17.942C287.508 17.8567 286.736 17.1267 286.331 16.4819C283.97 12.7358 280.603 12.4853 277.668 15.9756C277.055 16.7004 276.613 17.5956 276.213 18.4695C270.56 30.763 264.939 43.0724 259.281 55.3659C256.814 60.7213 254.326 66.0714 251.769 71.3788C250.373 74.2777 250.261 77.1179 251.625 80.0327C253.591 84.2265 252.27 87.7168 249.286 90.8395C246.819 93.4239 244.017 95.3529 240.287 95.5608C235.54 95.8272 232.311 92.9923 231.731 89.1289C230.633 81.8125 234.208 75.2582 241.3 72.9242C244.086 72.0076 245.812 70.5156 247.144 67.8938C253.17 55.9947 259.404 44.2021 265.536 32.3563C266.021 31.4237 266.298 30.39 266.676 29.3988L266.596 29.4681L266.591 29.4734ZM247.363 81.0292C246.244 81.1784 245.62 81.8339 245.855 83.0701C245.913 83.3685 246.622 83.8535 246.841 83.7682C247.975 83.3206 248.354 82.4733 247.72 81.333C247.677 81.2584 247.581 81.2104 247.368 81.0292H247.363ZM240.063 81.269C240.799 79.9688 241.156 79.4786 241.331 78.9297C241.385 78.7645 240.948 78.2796 240.671 78.2156C239.994 78.0664 239.27 78.999 239.456 79.7237C239.547 80.0807 239.722 80.4111 240.063 81.269ZM238.284 86.5871C239.715 87.9513 241.021 88.5872 242.2 88.4948C240.772 87.8021 239.531 87.1946 238.284 86.5871Z" fill="#E5203B"/>
<path d="M402.447 24.2832C402.361 26.1163 402.729 26.6225 404.519 27.1341C408.499 28.2638 410.06 33.065 407.444 36.2409C404.737 39.5235 402.02 42.7953 399.25 46.0246C396.815 48.8648 394.615 49.0193 391.807 46.6693C390.619 45.6782 389.489 44.6018 388.221 43.7279C387.124 42.9765 385.925 42.3051 384.673 41.8841C381.785 40.9089 379.446 39.2464 378.087 36.5447C377.096 34.5677 375.764 33.049 374.012 31.7701C372.845 30.9228 371.753 29.9423 370.724 28.9245C368.828 27.0435 368.689 25.3862 370.378 23.2974C372.509 20.6703 374.779 18.1551 376.974 15.576C377.912 14.4729 378.759 13.2846 379.723 12.2082C381.476 10.2419 383.24 10.098 385.296 11.7393C386.505 12.7038 387.656 13.7376 388.823 14.7554C389.755 15.5707 390.757 16.0769 391.988 15.4801C393.453 14.7713 394.604 15.3682 395.691 16.2954C397.529 17.8674 399.378 19.4234 401.184 21.0326C402.569 22.2636 402.542 22.2956 402.447 24.2938V24.2832ZM379.073 30.8695C379.078 35.8626 383.176 39.8805 388.178 39.8112C392.979 39.7473 396.927 35.6441 396.889 30.763C396.852 25.9564 392.76 21.9758 387.885 22.0025C382.92 22.0291 379.062 25.9085 379.068 30.8695H379.073ZM399.921 21.9545C399.846 21.7893 399.788 21.347 399.537 21.1179C398.259 19.9669 396.98 18.7946 395.574 17.8087C395.233 17.5743 394.204 17.8407 393.869 18.2191C393.538 18.5921 393.4 19.6738 393.677 19.9509C394.961 21.2245 396.341 22.4341 397.838 23.4519C398.658 24.0114 399.841 23.1535 399.921 21.9598V21.9545ZM380.922 15.8264C381.353 16.4019 381.599 16.8069 381.923 17.1373C382.392 17.6116 382.893 18.0592 383.426 18.4535C384.715 19.4127 385.376 19.3328 386.314 18.1658C387.241 17.0148 387.209 16.3273 385.946 15.2669C385.099 14.5529 384.108 14.0093 383.016 13.2793C382.217 14.2491 381.583 15.0218 380.922 15.8264Z" fill="#E5203B"/>
<path d="M344.367 230.283C344.426 236.011 341.922 240.599 338.091 244.478C335.022 247.585 331.346 249.903 327.206 251.406C320.429 253.868 314.59 250.212 314.057 243.034C313.588 236.773 315.959 231.54 320.344 227.181C323.328 224.213 326.908 222.103 330.824 220.675C339.764 217.419 344.751 223.893 344.367 230.277V230.283ZM320.397 239.15C320.744 240.375 321.058 242.4 321.878 244.196C323.445 247.617 328.256 248.747 331.309 246.615C335.864 243.434 338.704 235.686 337.436 230.16C336.796 227.378 335.321 225.348 332.534 224.666C329.625 223.952 326.998 224.725 324.926 226.995C321.99 230.208 320.909 234.146 320.392 239.155L320.397 239.15Z" fill="#E5203B"/>
<path d="M344.98 12.5333C346.131 5.66448 350.116 1.89171 356.259 0C356.382 0.442288 356.52 0.698068 356.462 0.767342C354.117 3.44238 353.18 6.5757 353.164 10.1033C353.153 12.0164 352.812 13.9294 352.583 16.2154C353.238 16.6631 354.117 17.2066 354.932 17.8301C357.069 19.4766 359.333 21.0007 361.257 22.8711C363.617 25.1678 363.383 27.0541 360.921 29.2762C358.017 31.9033 354.501 32.9051 350.729 32.6121C342.854 31.9992 336.493 28.6368 332.289 21.7201C330.888 19.418 330.35 16.8869 330.472 14.2225C330.6 11.3982 332.06 9.86355 334.873 10.0128C336.866 10.1193 338.842 10.6842 340.798 11.1584C342.087 11.4675 343.328 11.9791 344.98 12.5279V12.5333ZM346.387 14.2012C344.847 13.5777 343.637 12.9755 342.359 12.5865C339.796 11.8139 337.329 10.4657 334.527 10.8973C333.744 11.0199 332.561 11.3449 332.38 11.8618C332.172 12.4533 332.785 13.4178 333.205 14.1266C333.488 14.6008 334.01 14.9632 334.495 15.2669C336.823 16.743 339.322 17.7501 342.124 17.6808C344.042 17.6329 345.96 17.473 347.825 17.3665C348.028 17.537 348.214 17.6329 348.315 17.7821C348.582 18.1818 348.837 18.5974 349.056 19.029C350.889 22.6259 353.696 25.1731 357.421 26.6918C358.204 27.0115 359.094 27.246 359.93 27.2247C361.928 27.1714 362.589 25.9564 361.438 24.3631C360.66 23.2814 359.674 22.2849 358.603 21.4856C356.222 19.6951 353.728 18.0539 351.288 16.354C350.814 13.5244 350.34 10.7108 349.828 7.67875C347.532 9.19212 346.941 11.5048 346.392 14.1958L346.387 14.2012Z" fill="#E5203B"/>
<path d="M385.605 240.823C387.736 240.668 389.665 240.525 391.599 240.386C391.7 240.599 391.807 240.807 391.908 241.02C391.263 241.633 390.699 242.374 389.958 242.832C388.818 243.541 387.603 244.217 386.33 244.612C384.689 245.123 383.692 246.029 383.426 247.708C384.742 247.948 386.01 248.177 387.305 248.411C386.117 252.711 379.819 253.633 375.376 251.662C376.452 249.749 378.674 248.267 378.04 245.571C373.117 244.772 367.943 246.253 362.445 244.377C363.612 243.296 364.336 242.587 365.103 241.921C369.68 237.919 374.289 233.954 378.823 229.904C380.112 228.753 381.337 227.458 382.302 226.036C383.671 224.016 385.578 222.806 387.688 221.842C388.216 221.602 389.111 221.474 389.473 221.762C389.835 222.05 389.953 222.961 389.825 223.515C388.711 228.199 387.518 232.867 386.356 237.54C386.106 238.548 385.893 239.565 385.605 240.823ZM379.547 240.546C380.362 237.993 381.156 235.537 381.343 232.414C377.97 235.254 375.013 237.748 371.689 240.546H379.547Z" fill="#E5203B"/>
<path d="M246.595 169.615C244.347 169.806 244.23 174.171 240.868 172.609C240.964 172.082 240.911 171.533 241.15 171.187C242.61 169.044 244.086 166.902 245.668 164.845C246.505 163.758 247.672 163.359 249.009 164.105C249.174 164.195 249.366 164.254 249.552 164.302C254.918 165.751 254.491 167.014 253.964 171.97C253.575 175.588 252.515 179.132 251.742 182.707C251.257 184.94 250.751 187.168 250.245 189.459C250.49 189.432 250.671 189.475 250.757 189.4C251.508 188.761 252.099 187.338 253.309 188.367C254.353 189.251 253.447 190.36 252.989 191.255C251.449 194.255 249.792 197.202 248.263 200.207C247.48 201.747 246.958 203.42 246.169 204.96C245.152 206.953 243.601 207.22 240.975 206.005C239.009 205.094 238.763 204.374 239.616 202.072C243.308 192.086 245.945 181.849 246.904 171.219C246.947 170.766 246.894 170.297 246.862 169.838C246.862 169.775 246.723 169.721 246.606 169.625L246.595 169.615Z" fill="#E5203B"/>
<path d="M139.127 95.9285C143.613 100.49 148.099 105.057 152.873 109.911C145.334 116.444 137.976 122.54 130.283 128.397C132.286 117.425 135.371 106.852 138.29 96.2375L139.127 95.9285Z" fill="#E5203B"/>
<path d="M167.817 125.61C165.83 126.606 135.781 130.72 132.222 130.448C132.568 129.915 132.76 129.377 133.138 129.063C139.628 123.59 146.144 118.155 152.638 112.687C153.656 111.829 154.562 111.488 155.638 112.602C159.591 116.695 163.582 120.755 167.54 124.842C167.716 125.024 167.727 125.359 167.817 125.615V125.61Z" fill="#E5203B"/>
<path d="M155.084 266.444C153.224 267.339 151.36 268.234 149.506 269.129C149.287 269.193 149.069 269.252 148.845 269.316C143.847 269.604 138.844 270.43 133.852 269.508C131.689 269.108 129.553 268.474 127.475 267.739C126.521 267.403 125.631 266.667 124.928 265.911C123.799 264.69 123.783 263.156 125.024 262.042C126.148 261.03 127.475 260.113 128.871 259.57C135.903 256.852 143.144 256.479 150.459 258.179C152.015 258.541 153.576 259.266 154.897 260.172C157.071 261.648 157.21 263.108 155.771 265.351C155.515 265.756 155.244 266.151 154.983 266.545L155.073 266.449L155.084 266.444ZM146.639 263.22C143.608 266.076 138.466 266.364 134.918 263.614C135.738 265.698 137.092 266.577 140.112 266.406C142.681 266.262 145.456 266.204 146.639 263.22ZM144.13 261.094C141.924 260.145 140.336 260.22 138.093 261.094H144.13Z" fill="#E5203B"/>
<path d="M296.049 246.749C297.844 246.749 299.634 246.749 301.43 246.749C303.46 246.754 305.49 246.717 307.514 246.823C308.09 246.855 308.649 247.324 309.214 247.596C308.9 248.134 308.692 248.795 308.25 249.194C306.545 250.745 304.573 251.56 302.187 251.454C298.228 251.273 294.264 251.267 290.305 251.155C289.751 251.139 289.208 250.937 288.201 250.718C288.702 249.621 288.904 248.539 289.543 247.889C291.824 245.55 294.184 243.274 296.64 241.127C299.896 238.276 303.396 235.686 306.539 232.723C307.706 231.62 308.495 229.851 308.873 228.247C309.39 226.068 308.053 224.405 306.012 223.973C303.481 223.441 301.345 224.554 300.823 226.888C300.53 228.188 300.599 229.563 300.492 231.061C298.793 232.03 297.05 233.027 294.914 234.247C294.562 233.203 294.051 232.372 294.061 231.551C294.093 229.137 295.005 227.027 296.859 225.412C299.725 222.913 302.911 220.941 306.518 219.694C308.431 219.034 310.322 219.167 312.192 219.897C315.085 221.032 316.369 223.728 315.4 226.712C314.403 229.776 312.283 232.009 309.869 233.997C305.623 237.498 301.35 240.962 297.109 244.473C296.614 244.883 296.262 245.459 295.841 245.96C295.91 246.226 295.985 246.493 296.054 246.759L296.049 246.749Z" fill="#E5203B"/>
<path d="M348.315 247.084C352.94 248.422 357.676 246.306 362.354 248.438C360.276 250.894 358.145 252.354 355.22 252.301C351.459 252.232 347.697 252.136 343.936 251.987C342.939 251.949 341.954 251.688 340.414 251.443C341.251 250.138 341.741 249.253 342.343 248.448C344.932 245.001 348.464 242.608 351.8 239.981C354.517 237.839 357.106 235.516 359.605 233.118C360.468 232.292 361.054 231.061 361.475 229.91C362.317 227.613 361.235 225.609 358.955 224.879C356.653 224.144 354.405 225.034 353.702 227.181C353.228 228.625 353.121 230.187 352.796 232.03C351.667 232.713 350.324 233.64 348.875 234.359C347.617 234.983 346.834 234.466 346.712 233.043C346.435 229.862 347.83 227.325 350.265 225.529C352.583 223.819 355.114 222.359 357.687 221.053C360.196 219.78 362.86 219.577 365.466 221.037C367.799 222.343 368.955 224.528 368.103 227.048C367.501 228.823 366.606 230.677 365.322 231.993C363.042 234.333 360.367 236.283 357.868 238.404C354.927 240.903 351.992 243.402 349.072 245.928C348.8 246.162 348.656 246.551 348.315 247.084Z" fill="#E5203B"/>
<path d="M87.6063 262.676C87.9846 264.136 88.4214 265.186 88.5014 266.262C88.869 271.026 88.5014 275.78 86.8231 280.245C85.0862 284.871 82.0227 288.601 77.5739 290.988C75.5013 292.102 74.9366 291.825 74.2333 289.645C72.3153 283.698 73.5886 278.156 76.7001 273.014C78.762 269.609 81.6391 266.838 84.8145 264.429C85.555 263.865 86.3969 263.433 87.6063 262.682V262.676Z" fill="#E5203B"/>
<path d="M240.372 97.25C243.159 95.8006 245.695 94.8041 247.869 93.2854C253.266 89.5126 254.23 85.6439 252.579 79.3453C251.726 76.0841 251.875 73.489 253.309 70.4996C256.948 62.9168 260.267 55.1847 263.746 47.5219C264.513 45.8274 265.392 44.1808 266.223 42.5129C266.431 42.6088 266.634 42.7047 266.841 42.8007C265.376 47.069 263.927 51.3373 262.441 55.6003C260.56 60.9877 258.764 66.4071 256.697 71.7252C255.653 74.4162 255.786 76.6703 257.352 79.1055C258.716 81.2211 259.489 83.635 259.42 86.2461C259.265 92.0704 254.225 97.6337 248.423 98.3104C245.738 98.6195 243.084 98.6088 240.372 97.2553V97.25Z" fill="#E5203B"/>
<path d="M111.054 137.365C111.417 138.511 111.752 139.566 112.131 140.765C110.282 141.463 108.694 141.314 106.877 140.424C107.533 139.134 108.113 137.983 108.614 137.003C107.032 135.249 105.305 133.805 104.213 131.983C103.174 130.251 102.801 128.12 101.949 125.61C101.155 127.187 100.654 128.173 99.9723 129.521C98.4698 128.365 97.1538 127.352 95.4649 126.052C97.1858 125.221 98.4165 124.619 99.6366 124.032C99.2317 122.391 98.0223 122.332 96.8715 122.178C92.476 121.597 88.1817 122.258 83.9514 123.35C77.1796 125.098 70.7702 127.768 64.6378 131.125C63.6894 131.642 62.7837 132.494 61.164 132.153C61.6808 131.605 61.9259 131.184 62.2882 130.981C70.0989 126.638 78.1973 123.031 87.0469 121.373C91.746 120.494 96.4346 120.169 101.299 122.231C101.693 120.718 102.018 119.466 102.386 118.059C104.576 118.565 105.785 120.094 107.271 121.901C105.726 122.615 104.389 123.228 102.945 123.894C103.728 126.521 104.4 129.025 105.236 131.471C105.662 132.718 106.408 133.843 108.278 134.008C107.921 132.804 107.644 131.855 107.229 130.454C109.11 130.592 110.649 130.699 112.701 130.848C111.981 132.526 111.475 133.699 110.98 134.855C113.617 136.294 118.652 135.804 122.674 133.651C121.774 132.638 120.927 131.69 119.952 130.597C121.353 129.153 122.978 128.961 124.848 128.93V133.038C126.319 132.628 127.613 132.271 129.228 131.823C128.695 134.008 126.153 133.384 125.642 135.249C126.441 136.129 127.315 137.093 128.306 138.186C126.729 139.571 125.024 139.64 122.978 140.109C123.138 138.564 123.26 137.381 123.42 135.809C119.328 136.321 115.396 136.816 111.054 137.36V137.365Z" fill="#E5203B"/>
<path d="M287.487 29.8304C287.514 33.6139 285.398 36.566 281.669 37.9515C278.318 39.1931 275.1 38.4151 272.739 35.74C271.359 34.1787 270.747 32.4948 271.871 30.4592C272.755 28.8553 273.469 27.1607 274.274 25.5141C275.702 22.5833 278.824 21.2565 281.957 22.2316C285.484 23.3347 287.455 26.0417 287.482 29.8304H287.487Z" fill="#E5203B"/>
<path d="M377.283 193.258C377.272 199.893 371.955 205.285 365.354 205.349C358.71 205.413 353.137 199.855 353.169 193.189C353.201 186.629 358.667 181.226 365.242 181.253C371.827 181.279 377.294 186.731 377.283 193.258ZM374.726 194.004C374.012 191.676 373.468 189.651 372.744 187.69C372.536 187.13 371.865 186.683 371.305 186.336C370.181 185.638 368.977 185.068 367.821 184.413C365.716 183.219 359.376 185.105 358.278 187.253C357.676 188.436 357.016 189.598 356.456 190.802C356.179 191.399 355.801 192.134 355.929 192.704C356.387 194.74 356.941 196.77 357.655 198.731C358.055 199.834 363.601 202.882 364.736 202.626C366.771 202.168 369.089 201.918 370.676 200.751C372.893 199.12 373.639 196.237 374.726 194.004Z" fill="#E5203B"/>
<path d="M70.8022 289.277C62.4534 285.078 58.8837 268.922 63.5296 262.879C64.5312 263.444 65.7513 263.865 66.6144 264.669C68.7243 266.635 70.7063 268.751 72.6722 270.872C73.4874 271.756 73.9403 272.796 73.1411 274.021C70.5677 277.97 70.4985 282.366 70.914 286.837C70.978 287.503 71.0526 288.169 71.1059 288.835C71.1112 288.91 71.0046 288.995 70.8075 289.277H70.8022Z" fill="#E5203B"/>
<path d="M141.423 94.8787C143.981 94.3778 164.919 95.8379 168.212 96.7384C167.77 97.3033 167.471 97.8894 167.002 98.2625C163.321 101.231 159.623 104.183 155.888 107.087C154.151 108.44 153.89 108.446 152.473 107.002C149.09 103.559 145.76 100.064 142.435 96.5573C142.009 96.1096 141.78 95.4808 141.423 94.8787Z" fill="#E5203B"/>
<path d="M68.1808 140.221C66.673 139.443 65.2878 138.724 63.9025 138.01C64.0038 137.791 64.1103 137.578 64.2116 137.36C65.6767 137.978 67.1366 138.596 68.6657 139.235C70.4452 138.02 70.589 135.367 73.0026 134.477C73.9403 137.221 76.4923 138.074 78.7407 139.102C80.9784 140.12 83.035 142.241 86.0239 140.93C86.8284 143.248 84.4735 144.873 84.8891 147.25C86.3276 147.975 87.9153 148.774 89.503 149.573C87.3825 150.175 86.1997 148.092 84.1698 148.028C83.0829 149.637 81.9854 151.273 80.4616 153.532C79.9501 150.889 78.2559 150.186 76.7001 149.365C75.3362 148.646 73.903 148.054 72.5017 147.399C70.8554 146.626 69.2464 145.641 67.3444 146.845C66.2575 144.415 68.2501 142.619 68.1808 140.226V140.221Z" fill="#E5203B"/>
<path d="M104.261 280.426C101.73 289.261 87.1428 295.917 80.1473 293.231C80.4989 292.778 80.728 292.246 81.1276 292C84.905 289.693 87.6063 286.512 88.8264 282.243C89.5723 279.643 91.3251 278.7 93.76 278.812C96.7383 278.956 99.7059 279.265 102.674 279.579C103.185 279.632 103.649 280.085 104.261 280.426Z" fill="#E5203B"/>
<path d="M155.819 109.911C160.508 105.979 164.892 102.296 169.485 98.4436C170.785 100.863 170.114 102.989 170.167 105.019C170.22 107.044 170.114 109.075 170.066 111.105C170.018 113.231 170.002 115.357 169.879 117.478C169.767 119.466 170.098 121.512 169.171 123.835C164.408 119.407 160.358 114.712 155.819 109.906V109.911Z" fill="#E5203B"/>
<path d="M164.813 282.6C165.463 283.576 165.883 284.348 166.438 285.014C168.233 287.178 170.604 288.126 173.374 287.945C178.766 287.599 183.625 286.059 186.923 281.423C188.905 282.787 189.529 284.514 188.815 286.624C188.165 288.542 186.902 289.975 185.09 290.881C180.152 293.349 174.909 293.802 169.544 292.976C167.519 292.667 165.713 291.681 164.29 290.103C162.378 287.977 162.34 285.926 164.807 282.6H164.813Z" fill="#E5203B"/>
<path d="M69.5022 292.901C66.8382 292.512 64.4034 291.356 62.1497 289.981C56.0546 286.245 52.7513 280.432 50.7161 273.792C50.1087 271.82 50.6894 271.042 52.8099 271.24C54.7013 271.415 56.5767 271.9 58.4308 272.369C59.4698 272.63 59.9226 273.462 59.9972 274.554C60.4181 280.682 63.7587 285.371 67.6054 289.8C68.3407 290.647 69.1505 291.43 69.9284 292.246L69.5022 292.906V292.901Z" fill="#E5203B"/>
<path d="M393.954 120.713C393.315 118.997 392.681 117.275 392.03 115.56C391.226 113.423 391.29 113.066 393.171 111.67C394.316 110.817 395.552 110.087 397.055 109.101C398.131 110.758 399.085 112.229 400.262 114.052C400.747 112.432 400.14 111.302 399.969 110.151C399.655 108.057 399.825 107.71 401.733 106.757C401.903 106.671 402.084 106.597 402.26 106.517C406.453 104.598 406.554 104.646 408.126 109.032C408.515 110.124 408.931 111.206 409.383 112.272C409.911 113.519 409.543 114.323 408.265 114.728C407.162 115.075 406.069 115.522 404.94 115.73C400.869 116.482 397.641 119.087 393.949 120.654L393.959 120.713H393.954Z" fill="#E5203B"/>
<path d="M167.013 265.602C166.299 265.469 164.919 265.399 163.672 264.952C161.067 264.014 160.524 261.856 162.276 259.697C164.061 257.502 166.613 256.511 169.203 255.738C171.899 254.939 174.69 254.646 177.472 255.386C178.905 255.765 180.301 256.351 180.636 257.992C180.961 259.591 180.056 260.779 178.899 261.728C175.633 264.413 171.792 265.463 167.008 265.602H167.013ZM165.804 260.022C167.413 262.266 169.267 261.941 170.982 261.6C172.794 261.237 174.669 260.747 175.394 258.077C172.458 260.625 169.57 261.515 165.804 260.022Z" fill="#E5203B"/>
<path d="M79.1936 296.194C80.1153 296.125 80.6854 295.986 81.2341 296.056C85.1714 296.525 88.9436 295.645 92.5612 294.34C94.5965 293.61 96.4612 292.283 98.2407 290.993C99.5514 290.045 100.505 289.928 101.816 290.956C103.467 292.251 105.375 293.231 106.435 295.144C101.938 301.091 83.4292 302.019 79.1989 296.194H79.1936Z" fill="#E5203B"/>
<path d="M155.649 289.528C156.693 291.755 156.474 293.445 155.531 294.969C154.231 297.063 152.441 298.731 150.086 299.573C145.499 301.209 140.794 301.502 136.117 300.121C134.699 299.706 133.325 298.789 132.222 297.787C131.119 296.786 130.837 295.342 131.79 293.599C140.507 297.26 148.307 295.384 155.654 289.528H155.649Z" fill="#E5203B"/>
<path d="M391.903 125.919C391.013 126.244 390.123 126.569 388.589 127.128C389.281 126.185 389.553 125.636 389.979 125.263C394.599 121.288 400.017 118.736 405.76 116.982C416.656 113.657 417.173 114.616 424.461 119.977C429.624 123.777 433.854 128.54 436.998 134.194C437.451 135.01 437.808 135.873 438.362 137.029C436.865 136.864 436.529 135.862 435.991 135.185C432.256 130.491 428.196 126.121 423.364 122.54C422.069 121.576 420.556 120.91 419.139 120.105L419.224 120.201C416.779 117.286 413.576 117.633 410.401 118.288C404.583 119.487 399.079 121.597 393.885 124.475C393.139 124.885 392.499 125.492 391.812 126.009L391.897 125.919H391.903Z" fill="#E5203B"/>
<path d="M140.342 294.393C137.219 294.985 134.721 293.919 132.344 292.448C132.014 292.24 131.801 291.638 131.758 291.196C131.258 285.579 131.535 280.032 133.559 274.693C133.682 274.368 134.012 274.122 134.587 273.435C135.317 277.277 135.76 280.762 136.687 284.119C137.619 287.514 139.031 290.775 140.336 294.398L140.342 294.393Z" fill="#E5203B"/>
<path d="M150.678 291.356C147.849 293.588 145.355 294.324 142.366 293.807C141.402 287.274 142.249 280.885 144.417 274.554C145.893 280.405 147.721 286.022 150.678 291.356Z" fill="#E5203B"/>
<path d="M310.637 22.8284C306.033 22.8444 302.282 19.3488 302.261 15.0325C302.234 10.2472 305.687 6.41583 310.093 6.31992C314.739 6.21867 318.772 9.88486 318.772 14.2012C318.772 19.2528 315.41 22.8178 310.637 22.8284ZM310.45 8.51537C307.04 8.50471 304.328 11.1425 304.286 14.5049C304.248 17.9899 307.093 20.9367 310.445 20.8834C313.791 20.8301 316.732 18.0858 316.822 14.9472C316.918 11.3769 314.105 8.53135 310.45 8.5207V8.51537Z" fill="#E5203B"/>
<path d="M139.766 289.922C137.502 283.959 135.951 277.853 136.047 271.096H143.219C142.254 277.41 141.301 283.618 140.352 289.826C140.155 289.858 139.963 289.89 139.766 289.928V289.922Z" fill="#E5203B"/>
<path d="M255.04 145.571C256.516 146.221 258.12 146.685 259.436 147.57C261.13 148.71 261.343 150.047 259.974 151.46C258.386 153.101 256.628 154.699 254.667 155.829C251.87 157.444 248.988 156.564 247.4 153.959C249.941 151.172 252.52 148.348 255.099 145.518L255.035 145.571H255.04Z" fill="#E5203B"/>
<path d="M198.847 111.611C199.897 111.515 200.952 111.35 202.001 111.339C205.555 111.302 208.592 113.54 209.588 116.865C210.606 120.265 209.396 123.723 206.477 125.754C203.653 127.72 199.817 127.56 197.083 125.365C196.418 124.832 195.762 124.278 195.102 123.734L195.192 123.83C195.096 123.462 195.027 123.089 194.904 122.732C193.285 118.059 194.158 115.219 198.112 112.282C198.41 112.059 198.666 111.782 198.943 111.526L198.852 111.606L198.847 111.611ZM197.989 123.126L197.883 123.015C200.365 125.796 203.381 125.913 205.528 123.313C206.093 122.769 206.652 122.221 207.217 121.677C207.393 120.387 207.835 119.061 207.686 117.808C207.425 115.56 205.288 113.711 202.997 113.343C200.589 112.954 198.693 113.892 197.313 116.156L197.403 116.034C195.506 118.597 195.693 120.83 197.989 123.132V123.126Z" fill="#E5203B"/>
<path d="M178.441 264.024C179.693 266.199 180.663 268.266 181.446 270.584C182.656 274.16 182.554 277.778 182.975 281.375C183.29 284.034 183.045 284.194 179.938 285.1C179.741 284.503 179.432 283.911 179.368 283.293C178.979 279.755 178.66 276.211 178.281 272.668C178.233 272.231 178.031 271.794 177.834 271.394C177.242 270.19 176.518 269.044 176.017 267.808C174.973 265.229 175.111 265.042 178.436 264.024H178.441Z" fill="#E5203B"/>
<path d="M174.898 286.229C171.952 287.125 171.35 286.959 170.46 284.823C168.808 280.858 167.146 276.883 166.459 272.604C166.294 271.57 166.358 270.494 166.374 269.433C166.422 266.465 166.763 266.23 169.981 266.987C170.119 267.579 170.199 268.245 170.433 268.863C171.211 270.925 169.746 273.094 171.02 275.236C172.128 277.107 172.676 279.318 173.401 281.407C173.955 283 174.397 284.625 174.893 286.235L174.898 286.229Z" fill="#E5203B"/>
<path d="M178.42 284.839C178.175 285.137 177.743 285.665 177.312 286.192C176.838 285.803 176.092 285.499 175.942 285.009C174.802 281.274 172.623 277.879 172.527 273.792C172.485 271.916 171.803 270.067 171.478 268.191C171.302 267.163 171.499 266.23 172.746 265.985C173.865 265.767 174.328 266.545 174.616 267.392C175.474 269.897 176.497 272.375 177.045 274.948C177.706 278.044 177.935 281.236 178.415 284.839H178.42Z" fill="#E5203B"/>
<path d="M127.496 269.252C129.883 269.875 131.7 270.35 133.612 270.851C132.733 273.904 131.769 276.616 131.204 279.403C130.661 282.084 130.533 284.849 130.139 288.292C128.146 285.734 127.917 283.261 127.4 280.933C126.558 277.16 126.494 273.392 127.501 269.247L127.496 269.252Z" fill="#E5203B"/>
<path d="M422.618 115.496C424.094 113.998 425.596 112.517 427.045 110.988C428.51 109.437 428.756 109.384 430.397 110.599C430.476 110.657 430.546 110.721 430.62 110.78C434.451 113.759 434.526 114.329 431.563 118.085C429.787 120.334 427.738 120.515 425.415 118.629C424.317 117.734 422.895 117.089 422.708 115.416L422.623 115.501L422.618 115.496Z" fill="#E5203B"/>
<path d="M148.845 269.316C149.069 269.252 149.287 269.193 149.506 269.129C150.241 269.129 150.976 269.129 151.834 269.129C151.29 275.183 150.774 280.975 150.257 286.762C147.236 281.886 146.192 276.462 145.558 270.808C146.783 270.254 147.811 269.785 148.845 269.316Z" fill="#E5203B"/>
<path d="M183.439 270.579C182.07 268.037 180.903 266.071 179.944 264.003C179.342 262.703 179.581 262.452 181.899 260.694C183.663 263.721 186.641 266.119 186.758 269.891C186.987 277.48 186.481 279.723 184.787 281.396C183.641 279.611 182.869 272.348 183.439 270.579Z" fill="#E5203B"/>
<path d="M152.281 290.162C151.184 283.608 151.69 277.517 153.597 271.453C154.045 273.217 154.45 274.986 154.94 276.739C155.537 278.87 156.08 281.039 156.89 283.091C157.46 284.535 157.396 285.697 156.394 286.826C155.329 288.031 154.487 289.496 152.281 290.162Z" fill="#E5203B"/>
<path d="M436.044 116.593C437.2 118.533 438.335 120.174 439.14 121.959C439.39 122.519 438.964 123.665 438.479 124.219C437.413 125.434 436.113 126.441 434.643 127.773C432.661 126.771 431.308 124.853 429.997 122.919C429.794 122.615 429.826 121.821 430.072 121.597C431.872 119.94 433.588 118.155 436.044 116.593Z" fill="#E5203B"/>
<path d="M162.447 265.895C165.052 266.396 165.138 266.454 165.244 268.485C165.297 269.545 165.324 270.616 165.239 271.671C165.159 272.614 164.908 273.536 164.717 274.543C166.507 277.08 168.776 283 168.798 285.265C163.907 282.249 159.575 274.181 162.452 265.889L162.447 265.895Z" fill="#E5203B"/>
<path d="M124.033 267.323C125.397 267.675 126.297 268.394 126.063 269.945C125.115 276.227 125.978 282.281 128.242 288.174C128.322 288.388 128.167 288.686 128.114 288.979C123.165 285.819 120.953 274.069 124.033 267.323Z" fill="#E5203B"/>
<path d="M393.943 120.654C390.906 122.903 387.875 125.151 384.838 127.4C381.822 125.812 381.806 124.48 384.886 121.528C385.632 122.023 386.404 122.535 387.486 123.249C387.07 121.661 386.34 120.308 386.5 119.066C386.676 117.691 387.821 116.572 389.399 115.911C390.917 117.51 392.43 119.098 393.949 120.697C393.954 120.713 393.949 120.654 393.949 120.654H393.943Z" fill="#E5203B"/>
<path d="M422.703 115.41C419.299 116.114 417.562 114.409 418.558 111.307C419.091 109.655 419.645 108.009 420.252 106.383C420.924 104.582 421.376 104.412 423.017 105.216C423.534 105.472 424.04 105.765 424.52 106.08C426.076 107.103 426.198 107.46 425.452 109.17C424.531 111.291 423.566 113.385 422.618 115.49L422.703 115.405V115.41Z" fill="#E5203B"/>
<path d="M154.993 266.54C155.675 266.204 156.363 265.863 157.034 265.532C159.922 269.438 160.609 278.487 158.222 282.478C157.865 281.982 157.385 281.599 157.279 281.13C156.384 277.272 155.494 273.408 154.759 269.524C154.578 268.554 154.961 267.477 155.084 266.444L154.993 266.54Z" fill="#E5203B"/>
<path d="M415.468 108.627C415.468 109.591 415.457 110.556 415.468 111.515C415.489 113.087 414.637 113.721 413.156 113.865C410.982 114.078 410.433 113.663 410.252 111.44C410.097 109.517 409.948 107.598 409.82 105.675C409.751 104.684 410.172 103.922 411.19 103.783C412.383 103.623 413.603 103.575 414.802 103.634C414.999 103.645 415.281 104.433 415.308 104.87C415.377 106.117 415.335 107.375 415.335 108.627C415.383 108.627 415.425 108.627 415.473 108.627H415.468Z" fill="#E5203B"/>
<path d="M98.944 270.371C98.5391 271.906 98.3313 273.334 97.7772 274.618C96.9993 276.43 92.8649 277.767 91.2346 276.867C91.0001 276.739 90.787 276.499 90.6698 276.259C89.8387 274.559 91.0641 271.298 92.801 270.531C94.2555 269.886 96.4239 269.779 98.9387 270.376L98.944 270.371Z" fill="#E5203B"/>
<path d="M75.2563 270.254C70.978 266.737 70.4239 265.261 74.5104 260.102C76.7161 261.051 77.6378 263.092 78.4903 265.09C78.73 265.65 78.453 266.667 78.0534 267.222C77.2862 268.293 76.2632 269.188 75.2563 270.254Z" fill="#E5203B"/>
<path d="M432.608 173.771C433.359 176.345 433.593 179.025 432.65 181.578C431.59 184.434 428.569 185.159 426.987 183.091C426.555 182.526 426.283 181.279 426.608 180.784C428.223 178.311 430.056 175.988 431.814 173.606L432.608 173.771Z" fill="#E5203B"/>
<path d="M380.261 163.566C381.06 166.513 381.95 169.439 382.59 172.423C382.717 173.02 382.03 174.16 381.433 174.448C380.682 174.81 379.505 174.848 378.732 174.506C377.315 173.888 376.601 172.535 376.644 170.968C376.724 168.192 377.736 165.757 379.361 163.582C379.659 163.577 379.963 163.566 380.261 163.561V163.566Z" fill="#E5203B"/>
<path d="M440.775 125.455C443.791 128.945 442.938 130.411 438.772 133.022C437.238 132.441 436.705 130.912 436.017 129.617C435.804 129.217 436.076 128.183 436.454 127.928C437.845 126.979 439.374 126.238 440.775 125.46V125.455Z" fill="#E5203B"/>
<path d="M406.235 190.679C402.372 192.763 400.113 192.262 397.689 188.921C399.767 185.644 404.556 186.869 406.235 190.679Z" fill="#E5203B"/>
<path d="M317.073 1.92368C318.074 4.02322 318.66 5.84566 317.232 7.90256C315.576 7.09792 313.972 6.31992 312.203 5.45666C312.794 3.02674 314.782 2.53649 317.073 1.92368Z" fill="#E5203B"/>
<path d="M319.896 14.7021C319.326 12.8104 318.815 11.0892 318.266 9.27738C320.147 8.25426 321.74 9.0216 323.232 9.82092C323.61 10.0234 323.924 11.0998 323.722 11.4941C322.971 12.9382 322.102 14.3877 319.896 14.7074V14.7021Z" fill="#E5203B"/>
<path d="M301.345 13.0768C298.974 12.059 298.361 10.2366 297.834 8.2436C299.746 6.63964 301.654 7.16719 303.955 7.67875C303.433 8.65925 302.986 9.43192 302.602 10.2312C302.192 11.0785 301.84 11.9471 301.345 13.0768Z" fill="#E5203B"/>
<path d="M298.809 15.2243C299.517 15.0005 300.221 14.7767 301.062 14.5102C301.643 16.4019 302.192 18.1818 302.773 20.0628C300.519 20.7289 298.734 20.1321 296.736 18.8425C297.509 17.5103 298.201 16.3167 298.894 15.1284L298.803 15.2243H298.809Z" fill="#E5203B"/>
<path d="M305.042 6.83681C304.477 4.60405 304.771 2.76563 306.31 1.09773C308.527 1.556 309.8 2.93615 310.668 5.14759C308.756 5.7231 306.966 6.2613 305.042 6.83681Z" fill="#E5203B"/>
<path d="M304.057 27.1501C302.543 25.2797 302.959 23.4039 303.598 21.1872C305.458 22.157 307.083 23.0096 308.841 23.9262C307.802 26.063 306.182 26.9209 304.062 27.1501H304.057Z" fill="#E5203B"/>
<path d="M315.954 22.3382C316.625 24.6029 316.119 26.3827 314.771 28.1252C312.571 27.6563 311.169 26.452 310.413 24.134C312.278 23.5265 314.03 22.9617 315.954 22.3382Z" fill="#E5203B"/>
<path d="M317.179 21.347C318.106 19.5406 318.879 18.0272 319.705 16.4073C321.916 16.8655 322.512 18.5867 322.933 20.3506C323.024 20.7342 322.576 21.5762 322.219 21.6828C320.605 22.1677 318.916 22.6846 317.179 21.347Z" fill="#E5203B"/>
<path d="M195.096 125.279C193.247 126.388 191.537 125.786 189.72 124.736C189.955 122.594 190.898 121.118 192.816 120.254C193.647 121.512 194.414 122.668 195.181 123.825L195.096 123.734V125.279Z" fill="#E5203B"/>
<path d="M196.503 126.27C198.213 126.926 199.715 127.501 201.383 128.136C200.952 130.491 199.289 131.285 197.329 131.78C195.709 129.43 195.613 128.828 196.503 126.265V126.27Z" fill="#E5203B"/>
<path d="M208.773 113.263C211.399 112.325 211.698 112.357 214.255 113.7C214.127 115.815 213.179 117.334 210.968 118.192C210.227 116.524 209.54 114.979 208.773 113.258V113.263Z" fill="#E5203B"/>
<path d="M209.087 124.805C209.727 123.095 210.323 121.507 210.957 119.812C213.307 120.206 213.914 122.018 214.788 123.787C213.024 125.301 211.304 125.839 209.087 124.805Z" fill="#E5203B"/>
<path d="M189.305 114.467C191.079 113.05 192.773 112.815 194.963 113.433C194.34 115.192 193.759 116.844 193.136 118.602C190.743 118.197 190.077 116.434 189.305 114.473V114.467Z" fill="#E5203B"/>
<path d="M207.595 112.155C205.843 111.478 204.265 110.865 202.582 110.215C202.742 109.725 202.774 109.325 202.976 109.053C204.324 107.284 206.072 106.346 206.967 106.863C207.968 107.439 208.32 109.863 207.595 112.155Z" fill="#E5203B"/>
<path d="M198.938 111.531C197.963 111.787 196.988 112.043 195.901 112.32C195.032 110.321 195.421 108.606 196.449 106.868C198.65 107.151 200.072 108.153 201.085 110.028C200.216 110.641 199.54 111.121 198.852 111.6L198.938 111.526V111.531Z" fill="#E5203B"/>
<path d="M208.027 125.892C208.837 128.668 208.805 128.972 207.547 131.45C205.48 131.418 204.106 130.331 202.949 128.247C204.622 127.469 206.205 126.739 208.027 125.892Z" fill="#E5203B"/>
<path d="M443.983 135.409C443.999 136.843 442.912 138.042 441.564 138.074C440.578 138.1 439.406 136.544 439.353 135.132C439.31 134.018 440.647 133.011 442.23 132.969C443.343 132.937 443.967 133.805 443.983 135.409Z" fill="#E5203B"/>
<path d="M266.666 29.4041C266.106 29.5427 265.547 29.7079 264.977 29.8198C262.829 30.2354 262.51 30.0383 261.375 27.6456C263.661 26.1536 264.449 26.2548 265.84 28.2478C266.111 28.6421 266.33 29.0738 266.58 29.4787C266.586 29.4734 266.666 29.4041 266.666 29.4041Z" fill="#E5203B"/>
<path d="M263.565 22.4927C266.58 21.2298 266.895 21.3417 268.36 24.086C265.893 25.7966 265.27 25.6101 263.565 22.4927Z" fill="#E5203B"/>
<path d="M266.026 17.8087C268.621 16.4073 269.031 16.5352 270.608 19.2209C268.344 21.1392 267.241 20.7982 266.026 17.8087Z" fill="#E5203B"/>
<path d="M278.968 17.9846C282.127 16.8069 282.415 16.9082 283.805 19.4766C281.541 21.3843 280.742 21.1552 278.968 17.9846Z" fill="#E5203B"/>
<path d="M374.23 182.734C376.217 182.27 377.427 181.988 378.764 181.674C379.35 183.763 378.556 184.887 377.011 186.097C376.207 185.121 375.471 184.231 374.23 182.734Z" fill="#E5203B"/>
<path d="M273.192 14.3291C270.528 16.0929 269.926 15.901 268.323 12.9542C270.923 11.5101 271.407 11.6327 273.192 14.3291Z" fill="#E5203B"/>
<path d="M376.095 207.31C374.832 206.708 373.703 206.17 372.051 205.387C373.319 204.273 374.177 203.522 375.077 202.733C376.596 204.086 376.883 205.403 376.095 207.31Z" fill="#E5203B"/>
<path d="M368.519 179.963C368.737 177.928 369.978 177.261 371.412 176.579C372.648 177.89 372.632 179.26 371.886 181.071C370.703 180.682 369.605 180.32 368.524 179.963H368.519Z" fill="#E5203B"/>
<path d="M347.282 195.678C348.736 194.724 349.764 194.042 351.262 193.061C351.56 194.74 351.757 195.859 351.965 197.02C350.058 197.777 348.965 196.871 347.282 195.678Z" fill="#E5203B"/>
<path d="M365.498 179.233C363.692 179.59 362.637 179.798 361.534 180.011C360.644 178.135 361.454 176.942 362.482 175.252C363.5 176.595 364.262 177.597 365.503 179.228L365.498 179.233Z" fill="#E5203B"/>
<path d="M348.923 186.39C350.164 186.299 351.405 186.208 353.292 186.07C352.615 187.727 352.183 188.788 351.523 190.408C350.303 189.097 349.461 188.191 348.619 187.28C348.72 186.981 348.821 186.683 348.923 186.384V186.39Z" fill="#E5203B"/>
<path d="M382.749 190.514C381.7 191.83 380.906 192.891 379.014 192.688C378.828 191.633 378.647 190.573 378.46 189.512C380.288 188.58 381.353 189.539 382.749 190.514Z" fill="#E5203B"/>
<path d="M382.254 199.466C380.304 200.298 379.025 200.745 377.342 199.632C377.805 198.614 378.269 197.601 378.956 196.099C380.181 197.346 381.044 198.23 382.254 199.461V199.466Z" fill="#E5203B"/>
<path d="M355.396 203.911C354.192 204.145 352.988 204.38 351.677 204.635C351.155 202.632 352.018 201.609 353.228 200.228C354.144 201.299 354.879 202.163 355.614 203.031C355.54 203.324 355.465 203.618 355.391 203.911H355.396Z" fill="#E5203B"/>
<path d="M362.088 206.479C361.385 208.52 360.239 209.181 358.454 209.889C358.31 208.286 358.198 207.065 358.039 205.323C359.653 205.786 360.751 206.101 362.093 206.484L362.088 206.479Z" fill="#E5203B"/>
<path d="M354.027 179.484C355.673 179.494 357.005 179.707 357.911 181.53C357.058 182.223 356.216 182.905 355.364 183.592C353.675 182.436 353.91 181.029 354.021 179.484H354.027Z" fill="#E5203B"/>
<path d="M367.901 211.035C366.915 209.794 366.105 208.77 364.89 207.236C366.654 206.9 367.762 206.687 368.961 206.458C369.52 208.264 369.073 209.474 367.901 211.035Z" fill="#E5203B"/>
<path d="M311.361 27.214C310.461 27.8321 309.843 28.5835 309.368 28.5036C308.814 28.4077 308.026 27.5924 308.015 27.0755C308.005 26.6012 308.873 25.7433 309.384 25.7166C309.896 25.69 310.455 26.484 311.361 27.2193V27.214Z" fill="#E5203B"/>
<path d="M201.777 108.829C200.776 108.238 199.779 107.721 200.696 106.415C201.229 105.659 201.99 105.558 202.619 106.32C203.637 107.545 202.726 108.147 201.777 108.829Z" fill="#E5203B"/>
<path d="M298.894 15.1284C298.35 14.9898 297.647 15.0111 297.306 14.6701C296.917 14.2811 296.56 13.4551 296.725 13.0235C296.901 12.5652 297.882 11.9631 298.196 12.1123C298.771 12.3734 299.299 13.0875 299.48 13.7216C299.597 14.1212 299.059 14.7127 298.809 15.2243L298.894 15.1337V15.1284Z" fill="#E5203B"/>
<path d="M322.422 6.73023C321.255 7.391 320.674 7.96651 320.109 7.95585C319.689 7.95052 319.017 7.22581 318.927 6.73556C318.783 5.9469 319.209 5.10496 320.2 5.29147C320.797 5.40337 321.308 5.9842 322.422 6.73023Z" fill="#E5203B"/>
<path d="M303.588 6.25597C302.4 6.27196 301.137 6.56504 301.259 4.89181C301.291 4.46018 302.08 3.72481 302.501 3.74079C303.977 3.80474 304.126 4.7799 303.593 6.25597H303.588Z" fill="#E5203B"/>
<path d="M317.328 23.1588C318.719 22.9617 319.87 22.8391 319.742 24.4644C319.705 24.9226 318.943 25.706 318.548 25.6847C317.035 25.5994 317.169 24.4697 317.334 23.1642L317.328 23.1588Z" fill="#E5203B"/>
<path d="M210.35 108.515C210.973 109.517 211.474 109.98 211.533 110.492C211.645 111.425 210.92 111.936 210.1 111.766C209.647 111.67 208.981 110.94 209.018 110.551C209.066 109.996 209.668 109.485 210.345 108.515H210.35Z" fill="#E5203B"/>
<path d="M311.468 3.82073C310.402 2.94681 309.56 2.24341 310.743 1.10838C311.436 0.442288 312.171 0.468932 312.698 1.2789C313.562 2.60044 312.581 3.15463 311.468 3.82073Z" fill="#E5203B"/>
<path d="M211.021 128.78C209.631 128.631 209.29 127.938 209.503 127.128C209.609 126.729 210.217 126.238 210.643 126.185C211.57 126.073 212.129 126.707 211.938 127.603C211.826 128.104 211.25 128.503 211.021 128.786V128.78Z" fill="#E5203B"/>
<path d="M323.018 13.9614C323.653 14.6701 324.436 15.1976 324.366 15.5493C324.249 16.1408 323.583 16.6204 323.146 17.148C322.619 16.711 321.713 16.306 321.66 15.8211C321.612 15.3255 322.406 14.7447 323.013 13.9614H323.018Z" fill="#E5203B"/>
<path d="M195.789 127.741C194.819 128.461 194.324 129.084 193.77 129.143C193.386 129.18 192.672 128.493 192.555 128.018C192.336 127.155 192.922 126.516 193.828 126.612C194.334 126.665 194.798 127.144 195.794 127.736L195.789 127.741Z" fill="#E5203B"/>
<path d="M215.768 118.901C215.054 119.46 214.5 120.196 214.122 120.116C213.536 119.988 213.067 119.306 212.55 118.858C213.083 118.421 213.563 117.744 214.159 117.627C214.532 117.553 215.07 118.315 215.768 118.901Z" fill="#E5203B"/>
<path d="M202.284 129.633C203.301 130.166 204.265 130.699 203.344 131.999C202.8 132.761 202.033 132.814 201.42 132.079C200.403 130.853 201.303 130.246 202.284 129.633Z" fill="#E5203B"/>
<path d="M302.096 21.5122C302.144 22.8924 302.117 24.0168 300.567 23.8462C300.194 23.8036 299.602 23.0949 299.618 22.7112C299.688 21.1659 300.791 21.3151 302.096 21.5069V21.5122Z" fill="#E5203B"/>
<path d="M190.013 121.341C189.401 120.515 188.655 119.897 188.767 119.578C188.964 119.018 189.63 118.4 190.2 118.277C190.525 118.208 191.447 119.109 191.399 119.482C191.329 120.052 190.647 120.547 190.008 121.347L190.013 121.341Z" fill="#E5203B"/>
<path d="M193.386 109.091C193.961 110.023 194.441 110.487 194.537 111.025C194.691 111.861 194.057 112.357 193.311 112.128C192.821 111.973 192.203 111.355 192.155 110.892C192.113 110.465 192.752 109.964 193.386 109.091Z" fill="#E5203B"/>
<path d="M430.183 156.511C429.917 156.778 429.651 157.039 429.384 157.305C428.548 157.742 427.733 158.238 426.864 158.611C425.287 159.287 423.731 160.247 422.08 160.46C416.208 161.232 411.2 155.094 413.204 149.797C415.223 144.458 424.312 137.44 431.414 141.111L431.313 141.026C433.258 143.147 433.604 145.704 432.911 148.321C432.181 151.097 431.105 153.783 430.183 156.506V156.511ZM428.537 148.001C428.51 145.15 427.477 144.351 424.738 145.161C422.037 145.955 419.448 147.085 417.455 149.104C416.342 150.234 415.484 151.694 414.812 153.143C414.546 153.719 414.834 155.056 415.319 155.387C417.151 156.65 419.224 157.529 421.547 156.991C425.09 156.17 428.574 151.646 428.537 148.001Z" fill="#E5203B"/>
<path d="M420.854 170.366C420.407 170.286 419.965 170.211 419.517 170.132C418.041 168.853 416.56 167.574 415.084 166.289C414.999 166.034 414.919 165.773 414.834 165.517C415.074 163.7 416.32 163.758 417.636 164.057C421.131 164.861 424.509 164.702 427.722 162.948C428.052 162.767 428.436 162.639 428.809 162.57C430.279 162.309 431.041 163.007 430.78 164.515C430.615 165.448 430.189 166.337 429.88 167.243C429.715 167.606 429.549 167.963 429.384 168.325C428.702 168.634 427.983 168.879 427.344 169.263C425.319 170.489 423.183 170.931 420.865 170.361L420.854 170.366ZM422.607 166.583C422.224 166.86 421.84 167.041 421.856 167.131C421.92 167.43 422.112 167.718 422.325 167.947C422.367 167.989 422.906 167.739 422.911 167.6C422.927 167.313 422.751 167.009 422.607 166.577V166.583Z" fill="#E5203B"/>
<path d="M207.212 121.677C206.647 122.221 206.088 122.769 205.523 123.313C202.902 125.055 200.376 124.485 197.877 123.015L197.984 123.126C196.806 120.84 196.391 118.496 197.398 116.029L197.307 116.151C197.84 115.762 198.373 115.368 198.911 114.984C200.621 113.764 202.465 113.583 204.324 114.51C206.29 115.496 207.26 117.174 207.27 119.38C207.27 120.142 207.233 120.904 207.212 121.666V121.677Z" fill="#E5203B"/>
<path d="M392.67 34.1681C392.473 31.6955 392.297 29.5214 392.126 27.3739C394.609 28.4982 394.934 31.3065 392.67 34.1681Z" fill="#E5203B"/>
<path d="M364.31 201.033C364.31 201.033 363.91 201.054 363.745 200.879C362.583 199.674 360.436 199.477 359.722 198.427C358.486 196.616 358.22 194.143 357.548 191.947C358.758 190.706 359.594 189.256 359.914 187.535C362.104 186.869 364.299 186.198 366.489 185.526C367.805 186.816 370.112 187.018 370.991 188.249C372.2 189.939 372.882 192.427 372.738 194.505C372.648 195.869 370.788 197.148 370.575 198.934C370.549 199.147 370.202 199.424 369.957 199.493C368.162 200.01 366.35 200.479 364.304 201.022L364.31 201.033ZM367.933 193.338C367.927 191.782 366.659 190.519 365.178 190.599C363.819 190.674 362.669 191.878 362.626 193.28C362.573 194.814 363.851 196.061 365.391 195.976C366.819 195.901 367.943 194.734 367.933 193.333V193.338Z" fill="#E5203B"/>
<path d="M305.149 14.5582C305.298 11.2597 307.573 9.04292 310.652 9.19745C313.855 9.35731 316.066 11.7286 315.927 14.8513C315.789 17.9633 313.322 20.2546 310.21 20.1481C307.365 20.0522 305.021 17.4677 305.149 14.5582Z" fill="#E5203B"/>
</svg>
