<svg width="70" height="70" viewBox="0 0 70 70" fill="none" xmlns="http://www.w3.org/2000/svg">
<path id="Vector" d="M65.9629 45.3648L50.115 38.2604L50.0544 38.2335C49.0243 37.7893 47.8993 37.6106 46.7822 37.7135C45.6652 37.8163 44.5917 38.1976 43.6601 38.8224C43.5295 38.9098 43.4036 39.0042 43.2831 39.1051L35.7748 45.4995C31.3997 43.1268 26.8799 38.644 24.5039 34.3228L30.9185 26.6967C31.0216 26.5736 31.1171 26.4443 31.2045 26.3096C31.8129 25.3813 32.1823 24.3169 32.2798 23.2112C32.3773 22.1056 32.1998 20.993 31.7632 19.9725C31.7528 19.9529 31.7438 19.9327 31.7363 19.9119L24.6351 4.03707C24.0523 2.70948 23.0574 1.60481 21.7979 0.886562C20.5384 0.168311 19.0811 -0.125362 17.6417 0.049004C12.7563 0.690774 8.2716 3.08893 5.02511 6.79558C1.77862 10.5022 -0.00761133 15.2639 2.43796e-05 20.1912C2.43796e-05 47.6567 22.3433 70 49.8088 70C54.7361 70.0076 59.4978 68.2214 63.2044 64.9749C66.9111 61.7284 69.3092 57.2437 69.951 52.3583C70.1254 50.9189 69.8317 49.4616 69.1134 48.2021C68.3952 46.9425 67.2905 45.9477 65.9629 45.3648ZM49.8088 61.9229C38.7449 61.9095 28.1381 57.5085 20.3148 49.6852C12.4915 41.8619 8.09047 31.2551 8.07712 20.1912C8.06941 17.403 9.01602 14.696 10.7597 12.5201C12.5033 10.3442 14.939 8.83049 17.6619 8.23042L23.9957 22.3653L17.5475 30.0453C17.4433 30.1695 17.3466 30.2999 17.2581 30.4357C16.6225 31.4068 16.2488 32.5258 16.1734 33.6839C16.0979 34.8421 16.3231 36.0001 16.8273 37.0454C19.9976 43.534 26.5299 50.0226 33.0858 53.1996C34.1382 53.6985 35.302 53.9158 36.4635 53.8303C37.625 53.7448 38.7444 53.3593 39.7124 52.7116C39.8425 52.6239 39.9673 52.5283 40.0859 52.4256L47.6347 46.0076L61.7696 52.3381C61.1695 55.061 59.6558 57.4967 57.4799 59.2403C55.304 60.984 52.597 61.9306 49.8088 61.9229Z" fill="#10451D"/>
</svg>
